<?xml version="1.0" encoding="UTF-8" standalone="no"?>
<!-- Created with Inkscape (http://www.inkscape.org/) -->

<svg
   xmlns:ns0="http://www.iki.fi/pav/software/textext/"
   xmlns:dc="http://purl.org/dc/elements/1.1/"
   xmlns:cc="http://creativecommons.org/ns#"
   xmlns:rdf="http://www.w3.org/1999/02/22-rdf-syntax-ns#"
   xmlns:svg="http://www.w3.org/2000/svg"
   xmlns="http://www.w3.org/2000/svg"
   xmlns:sodipodi="http://sodipodi.sourceforge.net/DTD/sodipodi-0.dtd"
   xmlns:inkscape="http://www.inkscape.org/namespaces/inkscape"
   sodipodi:docname="sm_im_b.svg"
   inkscape:version="0.48.4 r9939"
   version="1.1"
   id="svg6226"
   height="55.53936"
   width="165.39673">
  <sodipodi:namedview
     id="base"
     pagecolor="#ffffff"
     bordercolor="#666666"
     borderopacity="1.0"
     inkscape:pageopacity="0.0"
     inkscape:pageshadow="2"
     inkscape:zoom="7.9195959"
     inkscape:cx="73.362806"
     inkscape:cy="35.210965"
     inkscape:document-units="px"
     inkscape:current-layer="layer1"
     showgrid="false"
     fit-margin-top="0"
     fit-margin-left="0"
     fit-margin-right="0"
     fit-margin-bottom="0"
     inkscape:window-width="1920"
     inkscape:window-height="1025"
     inkscape:window-x="-3"
     inkscape:window-y="-3"
     inkscape:window-maximized="1"
     showguides="true"
     inkscape:guide-bbox="true" />
  <defs
     id="defs6228" />
  <metadata
     id="metadata6231">
    <rdf:RDF>
      <cc:Work
         rdf:about="">
        <dc:format>image/svg+xml</dc:format>
        <dc:type
           rdf:resource="http://purl.org/dc/dcmitype/StillImage" />
        <dc:title />
      </cc:Work>
    </rdf:RDF>
  </metadata>
  <g
     transform="translate(-306.57663,-217.82761)"
     id="layer1"
     inkscape:groupmode="layer"
     inkscape:label="Layer 1">
    <g
       transform="matrix(0,-1,1,0,608.20795,1485.7943)"
       id="g67832">
      <g
         transform="matrix(0,1,-1,0,1440.3718,-770.47162)"
         id="g16785-3-5">
        <g
           id="g40949-7-2-1"
           transform="translate(447.8338,23.00958)">
          <path
             style="fill:none;stroke:#000000;stroke-width:1px;stroke-linecap:butt;stroke-linejoin:miter;stroke-opacity:1"
             d="m 65,167.36218 5,0"
             id="path4610-1-4-0"
             inkscape:connector-curvature="0" />
          <path
             style="fill:none;stroke:#000000;stroke-width:2;stroke-linecap:butt;stroke-linejoin:miter;stroke-opacity:1"
             d="m 65,157.36218 0,20"
             id="path4612-5-1-4"
             inkscape:connector-curvature="0" />
        </g>
        <path
           inkscape:connector-curvature="0"
           id="path8611-9"
           d="m 505.8338,188.56937 2.0012,3.60488"
           style="fill:none;stroke:#000000;stroke-width:0.5;stroke-linecap:butt;stroke-linejoin:miter;stroke-opacity:1" />
        <path
           inkscape:connector-curvature="0"
           id="path8611-8-5"
           d="m 506.8338,188.56936 2.0012,3.60488"
           style="fill:none;stroke:#000000;stroke-width:0.5;stroke-linecap:butt;stroke-linejoin:miter;stroke-opacity:1" />
        <path
           inkscape:connector-curvature="0"
           id="path8611-84-7"
           d="m 507.8338,188.56936 2.0012,3.60488"
           style="fill:none;stroke:#000000;stroke-width:0.5;stroke-linecap:butt;stroke-linejoin:miter;stroke-opacity:1" />
      </g>
      <path
         inkscape:connector-curvature="0"
         id="path8638-9"
         d="m 1250,-252.63782 0,16"
         style="fill:none;stroke:#000000;stroke-width:1px;stroke-linecap:butt;stroke-linejoin:miter;stroke-opacity:1" />
      <path
         inkscape:connector-curvature="0"
         id="path8638-4-5"
         d="m 1250,-237.63782 0,35"
         style="fill:none;stroke:#000000;stroke-width:1px;stroke-linecap:butt;stroke-linejoin:miter;stroke-opacity:1" />
      <path
         style="fill:none;stroke:#000000;stroke-width:2;stroke-linecap:butt;stroke-linejoin:miter;stroke-opacity:1"
         d="m 1260,-207.63782 -20,0"
         id="path4612-5-5-6-5-6-2"
         inkscape:connector-curvature="0" />
      <g
         transform="matrix(0,-1,1,0,1082.6378,-160.13782)"
         id="g4601-3-4">
        <g
           transform="matrix(0,1,-1,0,422.36218,122.36218)"
           id="g16145-1-5-7-4">
          <g
             transform="translate(-35,2.6171874e-6)"
             id="g15315-0-9-4-6">
            <path
               inkscape:connector-curvature="0"
               id="path70904-5-5-7-8"
               style="fill:none;stroke:#000000;stroke-width:1;stroke-linecap:round;stroke-linejoin:miter;stroke-miterlimit:6;stroke-opacity:1;stroke-dasharray:none;display:inline"
               d="m 70,392.35988 c 0,5.52061 4.477217,10.0023 9.999424,10.0023 5.522209,0 10.000576,-4.48169 10.000576,-10.0023 0,-5.52062 -4.478367,-9.9977 -10.000576,-9.9977 -5.522207,0 -9.999424,4.47708 -9.999424,9.9977" />
            <path
               style="fill:none;stroke:#000000;stroke-width:1px;stroke-linecap:butt;stroke-linejoin:miter;stroke-opacity:1"
               d="m 80,382.36218 0,-5"
               id="path15311-4-1-1-5"
               inkscape:connector-curvature="0" />
            <g
               transform="matrix(1.1522065,0,0,1.25,67.784307,75.27218)"
               id="g70398-5-5-9-9" />
          </g>
        </g>
      </g>
      <path
         style="fill:none;stroke:#000000;stroke-width:1px;stroke-linecap:butt;stroke-linejoin:miter;stroke-opacity:1"
         d="m 1250,-202.63782 0,0"
         id="path8638-4-7-4"
         inkscape:connector-curvature="0" />
      <text
         transform="matrix(0,1,-1,0,0,0)"
         xml:space="preserve"
         style="font-size:12.40966606px;font-style:normal;font-variant:normal;font-weight:normal;font-stretch:normal;text-align:center;line-height:125%;letter-spacing:0px;word-spacing:0px;text-anchor:middle;fill:#000000;fill-opacity:1;stroke:none;font-family:Courier;-inkscape-font-specification:Courier"
         x="-190.12267"
         y="-1245.5585"
         id="text6484"
         sodipodi:linespacing="125%"><tspan
           sodipodi:role="line"
           id="tspan6486"
           x="-190.12267"
           y="-1245.5585"
           style="font-style:normal;font-variant:normal;font-weight:normal;font-stretch:normal;font-family:Arial;-inkscape-font-specification:Arial">M</tspan></text>
      <g
         id="g6527"
         transform="translate(2e-5,29.999995)">
        <g
           id="g4601-3-4-7"
           transform="matrix(0,1,1,0,1082.6378,-342.63781)">
          <g
             id="g16145-1-5-7-4-2"
             transform="matrix(0,1,-1,0,422.36218,122.36218)">
            <g
               id="g15315-0-9-4-6-3"
               transform="translate(-35,2.6171874e-6)">
              <path
                 d="m 70,392.35988 c 0,5.52061 4.477217,10.0023 9.999424,10.0023 5.522209,0 10.000576,-4.48169 10.000576,-10.0023 0,-5.52062 -4.478367,-9.9977 -10.000576,-9.9977 -5.522207,0 -9.999424,4.47708 -9.999424,9.9977"
                 style="fill:none;stroke:#000000;stroke-width:1;stroke-linecap:round;stroke-linejoin:miter;stroke-miterlimit:6;stroke-opacity:1;stroke-dasharray:none;display:inline"
                 id="path70904-5-5-7-8-7"
                 inkscape:connector-curvature="0" />
              <path
                 inkscape:connector-curvature="0"
                 id="path15311-4-1-1-5-3"
                 d="m 80,382.36218 0,-5"
                 style="fill:none;stroke:#000000;stroke-width:1px;stroke-linecap:butt;stroke-linejoin:miter;stroke-opacity:1" />
              <g
                 id="g70398-5-5-9-9-5"
                 transform="matrix(1.1522065,0,0,1.25,67.784307,75.27218)" />
            </g>
          </g>
        </g>
        <text
           transform="matrix(0,1,-1,0,0,0)"
           sodipodi:linespacing="125%"
           id="text6484-4"
           y="-1245.5221"
           x="-312.5863"
           style="font-size:12.40966606px;font-style:normal;font-variant:normal;font-weight:normal;font-stretch:normal;text-align:center;line-height:125%;letter-spacing:0px;word-spacing:0px;text-anchor:middle;fill:#000000;fill-opacity:1;stroke:none;font-family:Courier;-inkscape-font-specification:Courier"
           xml:space="preserve"><tspan
             style="font-style:normal;font-variant:normal;font-weight:normal;font-stretch:normal;font-family:Arial;-inkscape-font-specification:Arial"
             y="-1245.5221"
             x="-312.5863"
             id="tspan6486-0"
             sodipodi:role="line">S</tspan></text>
      </g>
      <path
         style="fill:none;stroke:#000000;stroke-width:1px;stroke-linecap:butt;stroke-linejoin:miter;stroke-opacity:1"
         d="m 1250,-267.63783 0,10"
         id="path4610-1-4-0-3"
         inkscape:connector-curvature="0" />
    </g>
    <g
       id="g52447"
       transform="matrix(0.44630125,0,0,-0.44630125,206.84225,567.869)"
       xml:space="preserve"
       stroke-miterlimit="10.433"
       font-style="normal"
       font-variant="normal"
       font-weight="normal"
       font-stretch="normal"
       font-size-adjust="none"
       letter-spacing="normal"
       word-spacing="normal"
       ns0:text="\\sf Generador S\xc3\xadncrono\\\\\n$ \\sf S_{n} = 1000 kVA$ \\\\\n$ \\sf 400\\, V$  \\\\\n$\\sf {X_{s}} = 0.15 p.u.$ \\\\\n"
       ns0:preamble="/home/jmmauricio-s/preamble_beamer.tex"
       style="font-style:normal;font-variant:normal;font-weight:normal;font-stretch:normal;letter-spacing:normal;word-spacing:normal;text-anchor:start;fill:none;stroke:#000000;stroke-width:2.52071881;stroke-linecap:butt;stroke-linejoin:miter;stroke-miterlimit:10.43299961;stroke-opacity:1;stroke-dasharray:none;stroke-dashoffset:0;display:inline"><path
         style="fill:#000000;stroke-width:0"
         inkscape:connector-curvature="0"
         d="m 229.4,710.09 h -2.1 v -0.61 h 1.32 v -1.62 c -0.4,-0.14 -0.88,-0.21 -1.31,-0.21 -1.31,0 -2.33,1.32 -2.33,2.93 0,1.56 1,2.91 2.31,2.91 0.81,0 1.37,-0.24 1.88,-0.65 l 0.14,0.81 c -0.55,0.35 -1.33,0.49 -1.99,0.49 -1.92,0 -3.23,-1.74 -3.23,-3.56 0,-1.81 1.32,-3.56 3.23,-3.56 0.74,0 1.42,0.19 2.08,0.48 z"
         id="path52449" /><path
         style="fill:#000000;stroke-width:0"
         inkscape:connector-curvature="0"
         d="m 234.19,709.3 0,0.03 0,0.04 0,0.04 0,0.03 0,0.05 0,0.04 0,0.04 0,0.05 -0.01,0.05 0,0.05 -0.01,0.05 0,0.05 -0.01,0.06 0,0.05 -0.01,0.06 -0.01,0.05 -0.01,0.06 -0.01,0.06 -0.01,0.06 -0.02,0.05 -0.01,0.06 -0.02,0.06 -0.02,0.06 -0.02,0.06 -0.02,0.06 -0.02,0.06 -0.03,0.06 -0.03,0.06 -0.03,0.06 -0.03,0.06 -0.03,0.05 -0.04,0.06 c -0.4,0.61 -1.01,0.73 -1.37,0.73 -1.1,0 -2,-1.06 -2,-2.34 0,-1.31 0.96,-2.35 2.15,-2.35 0.63,0 1.19,0.23 1.58,0.51 l -0.06,0.65 c -0.62,-0.52 -1.28,-0.56 -1.51,-0.56 -0.79,0 -1.43,0.71 -1.46,1.68 l 0.05,0.55 c 0.16,0.75 0.68,1.25 1.25,1.25 0.52,0 1.08,-0.34 1.21,-1.25 h -2.46 l -0.05,-0.55 z"
         id="path52451" /><path
         style="fill:#000000;stroke-width:0"
         inkscape:connector-curvature="0"
         d="m 238.83,710.09 0,0.06 0,0.06 -0.01,0.07 0,0.06 -0.01,0.07 0,0.06 -0.01,0.07 -0.01,0.07 -0.02,0.06 -0.01,0.07 -0.02,0.06 -0.02,0.07 -0.03,0.06 -0.02,0.06 -0.03,0.06 -0.04,0.06 -0.03,0.06 -0.05,0.05 -0.04,0.05 -0.05,0.05 -0.05,0.05 -0.06,0.05 -0.06,0.04 -0.07,0.03 -0.03,0.02 -0.04,0.02 -0.04,0.01 -0.04,0.02 -0.04,0.01 -0.04,0.01 -0.04,0.01 -0.05,0.01 -0.04,0.01 -0.05,0.01 -0.05,0.01 -0.05,0 -0.05,0.01 -0.05,0 -0.06,0 -0.05,0.01 c -0.9,0 -1.39,-0.68 -1.45,-0.76 v 0.7 h -0.71 v -4.47 h 0.77 v 2.44 c 0,0.65 0.25,1.48 1.01,1.48 0.95,0 0.96,-0.71 0.96,-1.02 v -2.9 h 0.78 z"
         id="path52453" /><path
         style="fill:#000000;stroke-width:0"
         inkscape:connector-curvature="0"
         d="m 243.77,709.3 0,0.03 0,0.04 0,0.04 0,0.03 0,0.05 -0.01,0.04 0,0.04 0,0.05 0,0.05 -0.01,0.05 0,0.05 -0.01,0.05 0,0.06 -0.01,0.05 -0.01,0.06 -0.01,0.05 -0.01,0.06 -0.01,0.06 -0.01,0.06 -0.01,0.05 -0.02,0.06 -0.02,0.06 -0.01,0.06 -0.02,0.06 -0.03,0.06 -0.02,0.06 -0.02,0.06 -0.03,0.06 -0.03,0.06 -0.03,0.06 -0.03,0.05 -0.04,0.06 c -0.41,0.61 -1.02,0.73 -1.37,0.73 -1.11,0 -2,-1.06 -2,-2.34 0,-1.31 0.95,-2.35 2.15,-2.35 0.62,0 1.19,0.23 1.58,0.51 l -0.06,0.65 c -0.63,-0.52 -1.29,-0.56 -1.51,-0.56 -0.8,0 -1.44,0.71 -1.47,1.68 l 0.05,0.55 c 0.16,0.75 0.69,1.25 1.26,1.25 0.51,0 1.07,-0.34 1.2,-1.25 h -2.46 l -0.05,-0.55 z"
         id="path52455" /><path
         style="fill:#000000;stroke-width:0"
         inkscape:connector-curvature="0"
         d="m 245.64,709.25 0,0.09 0.01,0.09 0.01,0.09 0.01,0.09 0.02,0.08 0.02,0.09 0.03,0.08 0.03,0.08 0.03,0.07 0.03,0.08 0.04,0.07 0.05,0.07 0.04,0.07 0.05,0.06 0.05,0.06 0.06,0.06 0.06,0.06 0.06,0.05 0.06,0.05 0.07,0.05 0.06,0.04 0.08,0.04 0.07,0.04 0.07,0.03 0.08,0.03 0.08,0.03 0.08,0.02 0.09,0.02 0.08,0.02 0.09,0.01 0.09,0.01 0.09,0 v 0.67 c -0.89,-0.01 -1.43,-0.5 -1.74,-0.96 v 0.9 h -0.7 v -4.47 h 0.75 z"
         id="path52457" /><path
         style="fill:#000000;stroke-width:0"
         inkscape:connector-curvature="0"
         d="m 251.45,710 0,0.09 -0.01,0.09 -0.01,0.09 -0.01,0.09 -0.02,0.09 -0.02,0.08 -0.03,0.08 -0.03,0.08 -0.03,0.08 -0.04,0.07 -0.04,0.07 -0.04,0.07 -0.04,0.07 -0.05,0.06 -0.05,0.06 -0.06,0.06 -0.05,0.06 -0.06,0.05 -0.07,0.05 -0.06,0.04 -0.07,0.04 -0.06,0.04 -0.08,0.04 -0.07,0.03 -0.07,0.03 -0.08,0.02 -0.08,0.03 -0.08,0.01 -0.08,0.02 -0.08,0.01 -0.09,0 -0.08,0.01 c -0.65,0 -1.1,-0.16 -1.56,-0.43 l 0.06,-0.66 c 0.51,0.37 1.01,0.5 1.5,0.5 0.47,0 0.86,-0.4 0.86,-1.13 v -0.43 c -1.49,-0.02 -2.75,-0.44 -2.75,-1.31 0,-0.43 0.27,-1.23 1.13,-1.23 0.14,0 1.08,0.02 1.65,0.46 l -0.36,0.33 c -0.29,-0.18 -0.67,-0.19 -0.78,-0.19 -0.48,0 -0.93,0.23 -0.93,0.65 0,0.69 1.62,0.76 2.04,0.78 v -0.61 c 0,-0.19 0,-0.44 -0.33,-0.63 l 0.36,-0.33 v -0.36 h 0.75 z"
         id="path52459" /><path
         style="fill:#000000;stroke-width:0"
         inkscape:connector-curvature="0"
         d="m 256.59,714.02 h -0.75 v -2.92 c -0.53,0.44 -1.08,0.55 -1.45,0.55 -0.99,0 -1.76,-1.04 -1.76,-2.32 0,-1.3 0.76,-2.31 1.71,-2.31 0.33,0 0.91,0.08 1.47,0.62 l -0.33,0.26 c -0.23,-0.2 -0.47,-0.28 -0.73,-0.28 -0.62,0 -1.35,0.47 -1.35,1.7 0,1.31 0.86,1.72 1.45,1.72 0.44,0 0.74,-0.23 0.96,-0.55 v -1.98 c 0,-0.14 -0.01,-0.32 -0.33,-0.61 l 0.33,-0.26 v -0.52 h 0.78 z"
         id="path52461" /><path
         style="fill:#000000;stroke-width:0"
         inkscape:connector-curvature="0"
         d="m 262.08,709.31 0,0.12 -0.01,0.13 -0.01,0.12 -0.02,0.12 -0.03,0.11 -0.03,0.12 -0.03,0.11 -0.04,0.11 -0.05,0.1 -0.04,0.11 -0.06,0.1 -0.05,0.09 -0.07,0.1 -0.06,0.09 -0.07,0.08 -0.07,0.09 -0.08,0.08 -0.08,0.07 -0.08,0.07 -0.09,0.07 -0.08,0.06 -0.1,0.06 -0.09,0.05 -0.1,0.05 -0.09,0.04 -0.11,0.04 -0.1,0.03 -0.1,0.03 -0.11,0.02 -0.11,0.01 -0.11,0.01 -0.11,0.01 -0.01,-0.61 c 0.7,0 1.42,-0.52 1.42,-1.69 0,-1.17 -0.68,-1.76 -1.42,-1.76 h 0 c -0.68,0 -1.4,0.56 -1.4,1.76 0,1.2 0.76,1.69 1.4,1.69 l 0.01,0.61 c -1.22,0 -2.19,-1.1 -2.19,-2.4 0,-1.31 1.02,-2.29 2.18,-2.29 1.2,0 2.19,1 2.19,2.29 z"
         id="path52463" /><path
         style="fill:#000000;stroke-width:0"
         inkscape:connector-curvature="0"
         d="m 263.68,709.25 0,0.09 0.01,0.09 0.01,0.09 0.01,0.09 0.02,0.08 0.02,0.09 0.03,0.08 0.03,0.08 0.03,0.07 0.04,0.08 0.04,0.07 0.04,0.07 0.04,0.07 0.05,0.06 0.06,0.06 0.05,0.06 0.06,0.06 0.06,0.05 0.06,0.05 0.07,0.05 0.07,0.04 0.07,0.04 0.07,0.04 0.08,0.03 0.07,0.03 0.08,0.03 0.09,0.02 0.08,0.02 0.08,0.02 0.09,0.01 0.09,0.01 0.09,0 v 0.67 c -0.88,-0.01 -1.43,-0.5 -1.74,-0.96 v 0.9 h -0.7 v -4.47 h 0.75 z"
         id="path52465" /><path
         style="fill:#000000;stroke-width:0"
         inkscape:connector-curvature="0"
         d="m 273.47,713.74 -0.11,0.06 -0.1,0.06 -0.1,0.05 -0.11,0.05 -0.1,0.04 -0.11,0.04 -0.11,0.04 -0.11,0.03 -0.11,0.03 -0.11,0.03 -0.12,0.02 -0.12,0.02 -0.12,0.01 -0.13,0.01 -0.13,0.01 -0.07,0 -0.06,0 c -1.39,0 -2.25,-0.98 -2.25,-1.96 0,-0.43 0.14,-0.84 0.53,-1.26 0.42,-0.45 0.86,-0.57 1.45,-0.71 0.84,-0.21 0.94,-0.23 1.22,-0.48 0.2,-0.17 0.42,-0.5 0.42,-0.93 0,-0.65 -0.55,-1.31 -1.45,-1.31 -0.41,0 -1.31,0.1 -2.14,0.81 l -0.15,-0.81 c 0.87,-0.54 1.67,-0.68 2.3,-0.68 1.31,0 2.22,1 2.22,2.09 0,0.65 -0.3,1.12 -0.52,1.36 -0.47,0.5 -0.8,0.59 -1.71,0.82 -0.58,0.14 -0.74,0.18 -1.04,0.43 -0.07,0.06 -0.35,0.35 -0.35,0.79 0,0.59 0.54,1.18 1.46,1.18 0.83,0 1.31,-0.33 1.68,-0.63 z"
         id="path52467" /><polygon
         style="fill:#000000;stroke-width:0"
         points="275.12,712.36 275.73,712.36 277.22,714.02 276.44,714.02 "
         id="polygon52469" /><polygon
         style="fill:#000000;stroke-width:0"
         points="275.18,707.12 275.93,707.12 275.93,711.54 275.18,711.54 "
         id="polygon52471" /><path
         style="fill:#000000;stroke-width:0"
         inkscape:connector-curvature="0"
         d="m 281.08,710.09 0,0.06 0,0.06 0,0.07 0,0.06 -0.01,0.07 -0.01,0.06 -0.01,0.07 -0.01,0.07 -0.01,0.06 -0.02,0.07 -0.02,0.06 -0.02,0.07 -0.02,0.06 -0.03,0.06 -0.03,0.06 -0.03,0.06 -0.04,0.06 -0.04,0.05 -0.05,0.05 -0.04,0.05 -0.06,0.05 -0.06,0.05 -0.06,0.04 -0.06,0.03 -0.04,0.02 -0.04,0.02 -0.03,0.01 -0.04,0.02 -0.04,0.01 -0.04,0.01 -0.05,0.01 -0.04,0.01 -0.05,0.01 -0.05,0.01 -0.04,0.01 -0.05,0 -0.06,0.01 -0.05,0 -0.05,0 -0.06,0.01 c -0.89,0 -1.38,-0.68 -1.44,-0.76 v 0.7 h -0.72 v -4.47 h 0.78 v 2.44 c 0,0.65 0.25,1.48 1,1.48 0.96,0 0.97,-0.71 0.97,-1.02 v -2.9 h 0.77 z"
         id="path52473" /><path
         style="fill:#000000;stroke-width:0"
         inkscape:connector-curvature="0"
         d="m 285.98,711.28 -0.05,0.03 -0.05,0.03 -0.06,0.03 -0.05,0.02 -0.05,0.03 -0.04,0.02 -0.05,0.02 -0.05,0.03 -0.04,0.02 -0.05,0.02 -0.05,0.01 -0.04,0.02 -0.09,0.03 -0.09,0.03 -0.08,0.02 -0.09,0.02 -0.09,0.01 -0.1,0.02 -0.04,0 -0.05,0 -0.05,0.01 -0.05,0 -0.06,0 -0.05,0 -0.05,0 -0.06,0.01 c -1.38,0 -2.19,-1.21 -2.19,-2.38 0,-1.23 0.91,-2.31 2.15,-2.31 0.54,0 1.08,0.14 1.62,0.5 l -0.06,0.67 c -0.51,-0.4 -1.04,-0.54 -1.55,-0.54 -0.82,0 -1.38,0.72 -1.38,1.69 0,0.77 0.37,1.73 1.42,1.73 0.52,0 0.86,-0.08 1.4,-0.44 z"
         id="path52475" /><path
         style="fill:#000000;stroke-width:0"
         inkscape:connector-curvature="0"
         d="m 287.89,709.25 0.01,0.09 0,0.09 0.01,0.09 0.02,0.09 0.01,0.08 0.03,0.09 0.02,0.08 0.03,0.08 0.03,0.07 0.04,0.08 0.04,0.07 0.04,0.07 0.05,0.07 0.05,0.06 0.05,0.06 0.05,0.06 0.06,0.06 0.06,0.05 0.06,0.05 0.07,0.05 0.07,0.04 0.07,0.04 0.07,0.04 0.08,0.03 0.08,0.03 0.08,0.03 0.08,0.02 0.08,0.02 0.09,0.02 0.08,0.01 0.09,0.01 0.09,0 v 0.67 c -0.88,-0.01 -1.43,-0.5 -1.74,-0.96 v 0.9 h -0.69 v -4.47 h 0.74 z"
         id="path52477" /><path
         style="fill:#000000;stroke-width:0"
         inkscape:connector-curvature="0"
         d="m 294.4,709.31 0,0.12 -0.01,0.13 -0.01,0.12 -0.02,0.12 -0.03,0.11 -0.03,0.12 -0.03,0.11 -0.04,0.11 -0.05,0.1 -0.05,0.11 -0.05,0.1 -0.06,0.09 -0.06,0.1 -0.06,0.09 -0.07,0.08 -0.07,0.09 -0.08,0.08 -0.08,0.07 -0.08,0.07 -0.09,0.07 -0.09,0.06 -0.09,0.06 -0.09,0.05 -0.1,0.05 -0.1,0.04 -0.1,0.04 -0.1,0.03 -0.1,0.03 -0.11,0.02 -0.11,0.01 -0.11,0.01 -0.11,0.01 -0.01,-0.61 c 0.7,0 1.41,-0.52 1.41,-1.69 0,-1.17 -0.67,-1.76 -1.41,-1.76 h 0 c -0.68,0 -1.4,0.56 -1.4,1.76 0,1.2 0.76,1.69 1.4,1.69 l 0.01,0.61 c -1.22,0 -2.19,-1.1 -2.19,-2.4 0,-1.31 1.02,-2.29 2.18,-2.29 1.2,0 2.19,1 2.19,2.29 z"
         id="path52479" /><path
         style="fill:#000000;stroke-width:0"
         inkscape:connector-curvature="0"
         d="m 299.04,710.09 0,0.06 0,0.06 0,0.07 0,0.06 -0.01,0.07 -0.01,0.06 -0.01,0.07 -0.01,0.07 -0.01,0.06 -0.02,0.07 -0.02,0.06 -0.02,0.07 -0.02,0.06 -0.03,0.06 -0.03,0.06 -0.03,0.06 -0.04,0.06 -0.04,0.05 -0.05,0.05 -0.04,0.05 -0.06,0.05 -0.05,0.05 -0.07,0.04 -0.06,0.03 -0.04,0.02 -0.04,0.02 -0.03,0.01 -0.04,0.02 -0.04,0.01 -0.04,0.01 -0.05,0.01 -0.04,0.01 -0.05,0.01 -0.04,0.01 -0.05,0.01 -0.05,0 -0.06,0.01 -0.05,0 -0.05,0 -0.06,0.01 c -0.89,0 -1.38,-0.68 -1.44,-0.76 v 0.7 h -0.72 v -4.47 h 0.78 v 2.44 c 0,0.65 0.25,1.48 1,1.48 0.96,0 0.97,-0.71 0.97,-1.02 v -2.9 h 0.77 z"
         id="path52481" /><path
         style="fill:#000000;stroke-width:0"
         inkscape:connector-curvature="0"
         d="m 304.53,709.31 0,0.12 -0.01,0.13 -0.02,0.12 -0.02,0.12 -0.02,0.11 -0.03,0.12 -0.03,0.11 -0.04,0.11 -0.05,0.1 -0.05,0.11 -0.05,0.1 -0.06,0.09 -0.06,0.1 -0.06,0.09 -0.07,0.08 -0.08,0.09 -0.07,0.08 -0.08,0.07 -0.08,0.07 -0.09,0.07 -0.09,0.06 -0.09,0.06 -0.09,0.05 -0.1,0.05 -0.1,0.04 -0.1,0.04 -0.1,0.03 -0.11,0.03 -0.1,0.02 -0.11,0.01 -0.11,0.01 -0.11,0.01 -0.01,-0.61 c 0.7,0 1.41,-0.52 1.41,-1.69 0,-1.17 -0.67,-1.76 -1.41,-1.76 h 0 c -0.69,0 -1.4,0.56 -1.4,1.76 0,1.2 0.76,1.69 1.4,1.69 l 0.01,0.61 c -1.22,0 -2.19,-1.1 -2.19,-2.4 0,-1.31 1.02,-2.29 2.18,-2.29 1.2,0 2.19,1 2.19,2.29 z"
         id="path52483" /><path
         style="fill:#000000;stroke-width:0"
         inkscape:connector-curvature="0"
         d="m 228.06,701.79 -0.1,0.06 -0.11,0.05 -0.1,0.05 -0.11,0.05 -0.1,0.05 -0.11,0.04 -0.1,0.03 -0.11,0.04 -0.12,0.03 -0.11,0.02 -0.12,0.02 -0.12,0.02 -0.12,0.02 -0.13,0.01 -0.13,0 -0.06,0 -0.07,0 c -1.39,0 -2.25,-0.97 -2.25,-1.95 0,-0.43 0.14,-0.85 0.54,-1.27 0.41,-0.44 0.85,-0.56 1.44,-0.7 0.85,-0.21 0.94,-0.24 1.22,-0.49 0.2,-0.17 0.42,-0.49 0.42,-0.92 0,-0.66 -0.55,-1.31 -1.45,-1.31 -0.41,0 -1.31,0.1 -2.14,0.8 l -0.15,-0.8 c 0.87,-0.55 1.67,-0.69 2.3,-0.69 1.31,0 2.23,1.01 2.23,2.1 0,0.64 -0.31,1.12 -0.53,1.36 -0.47,0.5 -0.8,0.58 -1.71,0.81 -0.58,0.14 -0.74,0.18 -1.04,0.44 -0.07,0.06 -0.35,0.35 -0.35,0.79 0,0.58 0.54,1.18 1.46,1.18 0.83,0 1.31,-0.33 1.68,-0.64 z"
         id="path52485" /><path
         style="fill:#000000;stroke-width:0"
         inkscape:connector-curvature="0"
         d="m 232.21,695.73 -0.01,0.05 0,0.06 0,0.05 0,0.05 -0.01,0.05 -0.01,0.05 0,0.05 -0.01,0.04 -0.01,0.05 -0.02,0.05 -0.01,0.05 -0.02,0.04 -0.02,0.04 -0.02,0.05 -0.03,0.04 -0.02,0.04 -0.03,0.04 -0.03,0.03 -0.04,0.04 -0.03,0.03 -0.04,0.03 -0.05,0.03 -0.04,0.02 -0.05,0.03 -0.05,0.02 -0.06,0.02 -0.03,0.01 -0.03,0 -0.03,0.01 -0.03,0.01 -0.03,0 -0.04,0.01 -0.03,0 -0.04,0.01 -0.04,0 -0.03,0 -0.04,0 -0.04,0 c -0.4,0 -0.78,-0.16 -1.09,-0.53 v 0.51 h -0.56 v -3.13 h 0.61 v 1.69 c 0,0.46 0.2,1 0.73,1 0.72,0 0.72,-0.48 0.72,-0.68 v -2.01 h 0.61 z"
         id="path52487" /><path
         style="fill:#000000;stroke-width:0"
         inkscape:connector-curvature="0"
         d="m 242.89,698.42 0.03,0 0.03,0 0.03,0 0.01,0 0.02,0 0.01,0 0.02,0 0.01,0.01 0.02,0 0.01,0 0.01,0 0.02,0.01 0.01,0 0.01,0.01 0.01,0 0.01,0.01 0.01,0.01 0.01,0 0.01,0.01 0.01,0.01 0.01,0.01 0,0.01 0.01,0 0,0.01 0,0 0.01,0.01 0,0.01 0,0 0,0.01 0,0.01 0.01,0.01 0,0 0,0.01 0,0.01 0,0.01 0,0.01 0,0.01 c 0,0.2 -0.19,0.2 -0.33,0.2 h -5.96 c -0.14,0 -0.32,0 -0.32,-0.2 0,-0.2 0.18,-0.2 0.33,-0.2 z"
         id="path52489" /><path
         style="fill:#000000;stroke-width:0"
         inkscape:connector-curvature="0"
         d="m 242.9,696.49 0.02,0 0.01,0 0.03,0 0.02,0 0.02,0 0.01,0 0.02,0.01 0.01,0 0.01,0 0.02,0 0.01,0 0.01,0.01 0.02,0 0.01,0.01 0.01,0 0.01,0.01 0.01,0 0.01,0.01 0.01,0.01 0.01,0.01 0.01,0 0.01,0.01 0,0 0,0.01 0.01,0.01 0,0 0,0.01 0.01,0 0,0.01 0,0.01 0,0 0,0.01 0.01,0.01 0,0.01 0,0 0,0.01 0,0.01 0,0.01 0,0.01 c 0,0.2 -0.19,0.2 -0.34,0.2 h -5.94 c -0.15,0 -0.33,0 -0.33,-0.2 0,-0.2 0.18,-0.2 0.32,-0.2 z"
         id="path52491" /><path
         style="fill:#000000;stroke-width:0"
         inkscape:connector-curvature="0"
         d="m 249.55,701.91 h -0.2 c -0.59,-0.61 -1.41,-0.64 -1.89,-0.66 v -0.58 c 0.33,0.01 0.8,0.03 1.3,0.24 v -5.16 h -1.24 v -0.58 h 3.27 v 0.58 h -1.24 z"
         id="path52493" /><path
         style="fill:#000000;stroke-width:0"
         inkscape:connector-curvature="0"
         d="m 256.1,698.41 0,0.15 0,0.15 0,0.15 -0.01,0.16 -0.01,0.16 -0.01,0.16 -0.02,0.16 -0.02,0.16 -0.03,0.16 -0.03,0.16 -0.03,0.16 -0.05,0.16 -0.05,0.16 -0.03,0.08 -0.03,0.08 -0.03,0.07 -0.03,0.08 -0.04,0.08 -0.04,0.07 c -0.4,0.75 -1.09,0.99 -1.6,0.99 l -0.01,-0.61 c 0.78,0 1.04,-0.76 1.11,-0.94 0.19,-0.55 0.19,-1.22 0.19,-1.83 0,-0.66 0,-1.28 -0.18,-1.91 -0.26,-0.9 -0.79,-1.06 -1.11,-1.06 h 0 c -0.52,0 -0.92,0.37 -1.12,1.09 -0.16,0.57 -0.17,1.1 -0.17,1.88 0,0.62 0,1.22 0.17,1.77 0.06,0.18 0.31,1 1.11,1 l 0.01,0.61 c -0.58,0 -1.28,-0.27 -1.69,-1.16 -0.33,-0.72 -0.38,-1.55 -0.38,-2.34 0,-0.79 0.04,-1.51 0.34,-2.24 0.4,-0.95 1.16,-1.22 1.72,-1.22 0.73,0 1.36,0.41 1.67,1.09 0.3,0.65 0.4,1.3 0.4,2.37 z"
         id="path52495" /><path
         style="fill:#000000;stroke-width:0"
         inkscape:connector-curvature="0"
         d="m 261.08,698.41 0,0.15 0,0.15 0,0.15 -0.01,0.16 -0.01,0.16 -0.01,0.16 -0.02,0.16 -0.02,0.16 -0.02,0.16 -0.04,0.16 -0.03,0.16 -0.05,0.16 -0.05,0.16 -0.02,0.08 -0.03,0.08 -0.04,0.07 -0.03,0.08 -0.04,0.08 -0.03,0.07 c -0.41,0.75 -1.1,0.99 -1.61,0.99 l -0.01,-0.61 c 0.78,0 1.04,-0.76 1.11,-0.94 0.19,-0.55 0.19,-1.22 0.19,-1.83 0,-0.66 0,-1.28 -0.18,-1.91 -0.26,-0.9 -0.79,-1.06 -1.11,-1.06 h 0 c -0.51,0 -0.92,0.37 -1.12,1.09 -0.16,0.57 -0.17,1.1 -0.17,1.88 0,0.62 0,1.22 0.17,1.77 0.06,0.18 0.31,1 1.11,1 l 0.01,0.61 c -0.58,0 -1.28,-0.27 -1.69,-1.16 -0.33,-0.72 -0.38,-1.55 -0.38,-2.34 0,-0.79 0.04,-1.51 0.34,-2.24 0.4,-0.95 1.16,-1.22 1.72,-1.22 0.73,0 1.36,0.41 1.67,1.09 0.3,0.65 0.4,1.3 0.4,2.37 z"
         id="path52497" /><path
         style="fill:#000000;stroke-width:0"
         inkscape:connector-curvature="0"
         d="m 266.07,698.41 -0.01,0.15 0,0.15 0,0.15 -0.01,0.16 -0.01,0.16 -0.01,0.16 -0.02,0.16 -0.02,0.16 -0.02,0.16 -0.03,0.16 -0.04,0.16 -0.05,0.16 -0.05,0.16 -0.02,0.08 -0.03,0.08 -0.04,0.07 -0.03,0.08 -0.03,0.08 -0.04,0.07 c -0.41,0.75 -1.1,0.99 -1.6,0.99 l -0.02,-0.61 c 0.78,0 1.04,-0.76 1.11,-0.94 0.19,-0.55 0.19,-1.22 0.19,-1.83 0,-0.66 0,-1.28 -0.18,-1.91 -0.26,-0.9 -0.79,-1.06 -1.1,-1.06 h 0 c -0.52,0 -0.93,0.37 -1.13,1.09 -0.16,0.57 -0.17,1.1 -0.17,1.88 0,0.62 0,1.22 0.17,1.77 0.06,0.18 0.31,1 1.11,1 l 0.02,0.61 c -0.59,0 -1.29,-0.27 -1.7,-1.16 -0.33,-0.72 -0.37,-1.55 -0.37,-2.34 0,-0.79 0.04,-1.51 0.33,-2.24 0.4,-0.95 1.16,-1.22 1.72,-1.22 0.73,0 1.36,0.41 1.68,1.09 0.29,0.65 0.4,1.3 0.4,2.37 z"
         id="path52499" /><polygon
         style="fill:#000000;stroke-width:0"
         points="270.07,699.58 268.05,697.51 268.05,702.06 267.33,702.06 267.33,695.17 268.02,695.17 268.02,696.57 268.82,697.4 270.37,695.17 271.18,695.17 269.3,697.87 270.97,699.58 "
         id="polygon52501" /><path
         style="fill:#000000;stroke-width:0"
         inkscape:connector-curvature="0"
         d="m 277.86,702.06 h -0.78 l -1.32,-3.39 c -0.16,-0.41 -0.91,-2.33 -1,-2.78 h -0.01 c -0.08,0.39 -0.51,1.49 -0.59,1.72 l -1.73,4.45 h -0.92 l 2.72,-6.89 h 0.91 z"
         id="path52503" /><path
         style="fill:#000000;stroke-width:0"
         inkscape:connector-curvature="0"
         d="m 280.94,702.06 h -0.88 l -2.6,-6.89 h 0.74 l 0.77,2.03 0.2,0.55 0.65,1.8 c 0.21,0.59 0.52,1.43 0.59,1.8 h 0.01 c 0.02,-0.14 0.09,-0.39 0.32,-1.04 l 0.9,-2.56 h -2.47 l -0.2,-0.55 h 2.89 l 0.76,-2.03 h 0.91 z"
         id="path52505" /><path
         style="fill:#000000;stroke-width:0"
         inkscape:connector-curvature="0"
         d="m 227.13,684.91 h 0.99 v 0.61 h -0.99 v 4.21 h -0.9 l 0.18,-0.44 v -3.77 h -1.92 c 0.51,0.85 1.92,3.21 1.92,3.77 l -0.18,0.44 -2.52,-4.21 v -0.61 h 2.64 v -1.69 h 0.78 z"
         id="path52507" /><path
         style="fill:#000000;stroke-width:0"
         inkscape:connector-curvature="0"
         d="m 232.96,686.45 0,0.15 0,0.15 -0.01,0.16 0,0.15 -0.01,0.16 -0.01,0.16 -0.02,0.16 -0.02,0.16 -0.03,0.16 -0.03,0.16 -0.04,0.17 -0.04,0.15 -0.05,0.16 -0.03,0.08 -0.03,0.08 -0.03,0.08 -0.03,0.07 -0.04,0.08 -0.04,0.08 c -0.4,0.74 -1.09,0.98 -1.6,0.98 l -0.01,-0.61 c 0.78,0 1.04,-0.75 1.1,-0.93 0.19,-0.56 0.19,-1.22 0.19,-1.84 0,-0.65 0,-1.28 -0.17,-1.91 -0.26,-0.9 -0.79,-1.06 -1.11,-1.06 h 0 c -0.52,0 -0.92,0.38 -1.12,1.1 -0.16,0.56 -0.17,1.1 -0.17,1.87 0,0.63 0,1.22 0.17,1.77 0.06,0.19 0.31,1 1.11,1 l 0.01,0.61 c -0.59,0 -1.28,-0.27 -1.69,-1.15 -0.33,-0.73 -0.38,-1.55 -0.38,-2.35 0,-0.78 0.04,-1.51 0.34,-2.23 0.4,-0.95 1.15,-1.22 1.72,-1.22 0.73,0 1.35,0.4 1.67,1.09 0.3,0.64 0.4,1.3 0.4,2.36 z"
         id="path52509" /><path
         style="fill:#000000;stroke-width:0"
         inkscape:connector-curvature="0"
         d="m 237.94,686.45 0,0.15 0,0.15 -0.01,0.16 0,0.15 -0.01,0.16 -0.01,0.16 -0.02,0.16 -0.02,0.16 -0.03,0.16 -0.03,0.16 -0.03,0.17 -0.05,0.15 -0.05,0.16 -0.03,0.08 -0.03,0.08 -0.03,0.08 -0.03,0.07 -0.04,0.08 -0.04,0.08 c -0.4,0.74 -1.09,0.98 -1.6,0.98 l -0.01,-0.61 c 0.78,0 1.04,-0.75 1.11,-0.93 0.18,-0.56 0.18,-1.22 0.18,-1.84 0,-0.65 0,-1.28 -0.17,-1.91 -0.26,-0.9 -0.79,-1.06 -1.11,-1.06 h 0 c -0.51,0 -0.92,0.38 -1.12,1.1 -0.16,0.56 -0.17,1.1 -0.17,1.87 0,0.63 0,1.22 0.17,1.77 0.06,0.19 0.31,1 1.11,1 l 0.01,0.61 c -0.59,0 -1.28,-0.27 -1.69,-1.15 -0.33,-0.73 -0.38,-1.55 -0.38,-2.35 0,-0.78 0.04,-1.51 0.34,-2.23 0.4,-0.95 1.15,-1.22 1.72,-1.22 0.73,0 1.36,0.4 1.67,1.09 0.3,0.64 0.4,1.3 0.4,2.36 z"
         id="path52511" /><path
         style="fill:#000000;stroke-width:0"
         inkscape:connector-curvature="0"
         d="m 246.53,690.11 h -0.78 l -1.32,-3.4 c -0.16,-0.41 -0.91,-2.32 -1,-2.78 h -0.01 c -0.08,0.4 -0.51,1.49 -0.6,1.73 l -1.72,4.45 h -0.92 l 2.72,-6.89 h 0.91 z"
         id="path52513" /><polygon
         style="fill:#000000;stroke-width:0"
         points="228.55,678.15 226.68,675.56 224.74,678.15 223.71,678.15 226.25,674.9 223.57,671.26 224.53,671.26 226.68,674.3 228.88,671.26 229.92,671.26 227.1,674.9 229.5,678.15 "
         id="polygon52515" /><path
         style="fill:#000000;stroke-width:0"
         inkscape:connector-curvature="0"
         d="m 232.62,672.74 -0.05,0.02 -0.04,0.02 -0.04,0.01 -0.05,0.02 -0.04,0.01 -0.04,0.01 -0.04,0.02 -0.04,0.01 -0.03,0.01 -0.04,0.01 -0.04,0.01 -0.04,0.01 -0.03,0 -0.04,0.01 -0.03,0.01 -0.03,0 -0.04,0.01 -0.03,0 -0.03,0.01 -0.03,0 -0.06,0.01 -0.06,0 -0.05,0 -0.06,0.01 -0.05,0 -0.05,0 c -0.17,0 -1.22,0 -1.22,-0.93 0,-0.32 0.18,-0.51 0.27,-0.59 0.24,-0.24 0.54,-0.3 0.9,-0.37 0.33,-0.06 0.71,-0.13 0.71,-0.46 0,-0.44 -0.58,-0.44 -0.68,-0.44 -0.44,0 -0.86,0.16 -1.14,0.35 l -0.1,-0.52 c 0.24,-0.12 0.67,-0.3 1.24,-0.3 0.32,0 0.62,0.04 0.88,0.23 0.26,0.2 0.34,0.5 0.34,0.74 0,0.12 -0.01,0.4 -0.31,0.66 -0.25,0.23 -0.5,0.28 -0.84,0.34 -0.41,0.08 -0.73,0.14 -0.73,0.44 0,0.4 0.51,0.4 0.61,0.4 0.4,0 0.71,-0.08 1.05,-0.26 z"
         id="path52517" /><path
         style="fill:#000000;stroke-width:0"
         inkscape:connector-curvature="0"
         d="m 243.01,674.51 0.03,0 0.03,0 0.03,0 0.02,0 0.01,0 0.02,0 0.01,0 0.01,0.01 0.02,0 0.01,0 0.01,0 0.02,0.01 0.01,0 0.01,0.01 0.01,0 0.01,0.01 0.02,0.01 0.01,0 0,0.01 0.01,0.01 0.01,0.01 0,0.01 0.01,0 0,0.01 0,0 0.01,0.01 0,0.01 0,0 0,0.01 0.01,0.01 0,0.01 0,0 0,0.01 0,0.01 0,0.01 0,0.01 0,0.01 c 0,0.2 -0.19,0.2 -0.33,0.2 h -5.95 c -0.14,0 -0.33,0 -0.33,-0.2 0,-0.2 0.19,-0.2 0.33,-0.2 z"
         id="path52519" /><path
         style="fill:#000000;stroke-width:0"
         inkscape:connector-curvature="0"
         d="m 243.02,672.58 0.02,0 0.01,0 0.03,0 0.03,0 0.01,0 0.01,0 0.02,0.01 0.01,0 0.02,0 0.01,0 0.01,0 0.02,0.01 0.01,0 0.01,0.01 0.01,0 0.01,0.01 0.02,0 0.01,0.01 0.01,0.01 0,0.01 0.01,0 0.01,0.01 0,0 0,0.01 0.01,0.01 0,0 0,0.01 0.01,0 0,0.01 0,0.01 0,0 0.01,0.01 0,0.01 0,0.01 0,0 0,0.01 0,0.01 0,0.01 0,0.01 c 0,0.2 -0.19,0.2 -0.34,0.2 h -5.94 c -0.14,0 -0.33,0 -0.33,-0.2 0,-0.2 0.19,-0.2 0.33,-0.2 z"
         id="path52521" /><path
         style="fill:#000000;stroke-width:0"
         inkscape:connector-curvature="0"
         d="m 251.24,674.5 0,0.15 0,0.15 0,0.15 -0.01,0.16 -0.01,0.16 -0.01,0.16 -0.02,0.16 -0.02,0.16 -0.03,0.16 -0.03,0.16 -0.03,0.16 -0.05,0.16 -0.05,0.16 -0.03,0.08 -0.03,0.08 -0.03,0.07 -0.03,0.08 -0.04,0.08 -0.03,0.07 c -0.41,0.75 -1.1,0.98 -1.61,0.98 -0.58,0 -1.28,-0.26 -1.69,-1.15 -0.33,-0.72 -0.38,-1.55 -0.38,-2.34 0,-0.79 0.04,-1.51 0.34,-2.24 0.4,-0.95 1.16,-1.22 1.72,-1.22 l 0.01,0.61 c -0.51,0 -0.92,0.38 -1.12,1.09 -0.16,0.57 -0.17,1.1 -0.17,1.88 0,0.62 0,1.22 0.17,1.77 0.06,0.19 0.31,1 1.11,1 0.78,0 1.04,-0.76 1.11,-0.93 0.19,-0.56 0.19,-1.23 0.19,-1.84 0,-0.66 0,-1.28 -0.18,-1.91 -0.26,-0.9 -0.79,-1.06 -1.11,-1.06 h 0 l -0.01,-0.61 c 0.73,0 1.36,0.41 1.68,1.09 0.29,0.65 0.39,1.3 0.39,2.37 z"
         id="path52523" /><path
         style="fill:#000000;stroke-width:0"
         inkscape:connector-curvature="0"
         d="m 253.59,671.79 0,0.02 -0.01,0.03 0,0.03 0,0.02 -0.01,0.03 -0.01,0.02 -0.01,0.03 0,0.02 -0.02,0.02 -0.01,0.03 -0.01,0.02 -0.01,0.02 -0.02,0.02 -0.01,0.02 -0.02,0.02 -0.02,0.02 -0.02,0.02 -0.02,0.01 -0.02,0.02 -0.02,0.01 -0.02,0.02 -0.02,0.01 -0.02,0.01 -0.03,0.01 -0.02,0.01 -0.02,0.01 -0.03,0.01 -0.02,0 -0.03,0.01 -0.03,0 -0.02,0 -0.03,0 c -0.29,0 -0.53,-0.23 -0.53,-0.52 0,-0.29 0.24,-0.53 0.53,-0.53 0.29,0 0.53,0.24 0.53,0.53 z"
         id="path52525" /><path
         style="fill:#000000;stroke-width:0"
         inkscape:connector-curvature="0"
         d="m 257.42,677.99 h -0.2 c -0.59,-0.6 -1.41,-0.63 -1.89,-0.65 v -0.58 c 0.33,0.01 0.81,0.03 1.3,0.24 v -5.16 h -1.24 v -0.58 h 3.27 v 0.58 h -1.24 z"
         id="path52527" /><path
         style="fill:#000000;stroke-width:0"
         inkscape:connector-curvature="0"
         d="m 260.95,677.14 h 2.62 v 0.64 h -3.34 v -3.67 h 0.66 c 0.17,0.4 0.54,0.79 1.11,0.79 0.47,0 1.01,-0.41 1.01,-1.6 0,-1.65 -1.22,-1.65 -1.31,-1.65 -0.66,0 -1.27,0.38 -1.56,0.92 l -0.33,-0.55 c 0.41,-0.57 1.1,-0.98 1.9,-0.98 1.19,0 2.18,0.99 2.18,2.24 0,1.24 -0.85,2.22 -1.88,2.22 -0.4,0 -0.77,-0.15 -1.06,-0.41 z"
         id="path52529" /><path
         style="fill:#000000;stroke-width:0"
         inkscape:connector-curvature="0"
         d="m 266,671.72 0.1,0.5 c -0.1,0.15 -0.1,0.17 -0.1,0.35 v 2 c 0.24,0.35 0.63,0.57 1.05,0.57 0.76,0 1.36,-0.75 1.36,-1.67 0,-1.02 -0.71,-1.71 -1.46,-1.71 -0.38,0 -0.65,0.2 -0.85,0.46 l -0.1,-0.5 c 0.31,-0.29 0.75,-0.57 1.34,-0.57 0.97,0 1.84,0.97 1.84,2.32 0,1.2 -0.62,2.31 -1.58,2.31 -0.6,0 -1.17,-0.21 -1.63,-0.6 v 0.49 h -0.75 v -6.34 H 266 z"
         id="path52531" /><path
         style="fill:#000000;stroke-width:0"
         inkscape:connector-curvature="0"
         d="m 271.46,671.79 0,0.02 0,0.03 0,0.03 -0.01,0.02 0,0.03 -0.01,0.02 -0.01,0.03 -0.01,0.02 -0.01,0.02 -0.01,0.03 -0.01,0.02 -0.02,0.02 -0.01,0.02 -0.02,0.02 -0.01,0.02 -0.02,0.02 -0.02,0.02 -0.02,0.01 -0.02,0.02 -0.02,0.01 -0.02,0.02 -0.02,0.01 -0.02,0.01 -0.03,0.01 -0.02,0.01 -0.03,0.01 -0.02,0.01 -0.03,0 -0.02,0.01 -0.03,0 -0.03,0 -0.02,0 c -0.29,0 -0.53,-0.23 -0.53,-0.52 0,-0.29 0.24,-0.53 0.53,-0.53 0.29,0 0.52,0.24 0.52,0.53 z"
         id="path52533" /><path
         style="fill:#000000;stroke-width:0"
         inkscape:connector-curvature="0"
         d="m 276.65,675.67 h -0.78 v -2.88 c 0,-0.75 -0.55,-1.09 -1.19,-1.09 -0.71,0 -0.78,0.26 -0.78,0.68 v 3.29 h -0.77 v -3.33 c 0,-0.71 0.23,-1.19 1.05,-1.19 0.53,0 1.24,0.16 1.72,0.59 v -0.48 h 0.75 z"
         id="path52535" /><path
         style="fill:#000000;stroke-width:0"
         inkscape:connector-curvature="0"
         d="m 279.38,671.79 0,0.02 0,0.03 -0.01,0.03 0,0.02 -0.01,0.03 0,0.02 -0.01,0.03 -0.01,0.02 -0.01,0.02 -0.02,0.03 -0.01,0.02 -0.01,0.02 -0.02,0.02 -0.01,0.02 -0.02,0.02 -0.02,0.02 -0.01,0.02 -0.02,0.01 -0.02,0.02 -0.02,0.01 -0.03,0.02 -0.02,0.01 -0.02,0.01 -0.02,0.01 -0.03,0.01 -0.02,0.01 -0.03,0.01 -0.02,0 -0.03,0.01 -0.02,0 -0.03,0 -0.03,0 c -0.29,0 -0.52,-0.23 -0.52,-0.52 0,-0.29 0.23,-0.53 0.52,-0.53 0.29,0 0.53,0.24 0.53,0.53 z"
         id="path52537" /></g>    <path
       inkscape:connector-curvature="0"
       id="path70904-5-5-7-8-3"
       style="fill:none;stroke:#000000;stroke-width:1;stroke-linecap:round;stroke-linejoin:miter;stroke-miterlimit:6;stroke-opacity:1;stroke-dasharray:none;display:inline"
       d="m 443.10905,245.68056 c 5.52061,0 10.0023,-4.47722 10.0023,-9.99942 0,-5.52221 -4.48169,-10.00058 -10.0023,-10.00058 -5.52062,0 -9.9977,4.47837 -9.9977,10.00058 0,5.5222 4.47708,9.99942 9.9977,9.99942" />
    <path
       style="fill:none;stroke:#000000;stroke-width:1px;stroke-linecap:butt;stroke-linejoin:miter;stroke-opacity:1"
       d="m 433.11135,235.68056 -5,0"
       id="path15311-4-1-1-5-32"
       inkscape:connector-curvature="0" />
    <text
       xml:space="preserve"
       style="font-size:12.40966606px;font-style:normal;font-variant:normal;font-weight:normal;font-stretch:normal;text-align:center;line-height:125%;letter-spacing:0px;word-spacing:0px;text-anchor:middle;fill:#000000;fill-opacity:1;stroke:none;font-family:Courier;-inkscape-font-specification:Courier"
       x="443.12653"
       y="240.12204"
       id="text6484-41"
       sodipodi:linespacing="125%"><tspan
         sodipodi:role="line"
         id="tspan6486-6"
         x="443.12653"
         y="240.12204"
         style="font-style:normal;font-variant:normal;font-weight:normal;font-stretch:normal;font-family:Arial;-inkscape-font-specification:Arial">B</tspan></text>
    <text
       xml:space="preserve"
       style="font-size:8px;font-style:normal;font-variant:normal;font-weight:normal;font-stretch:normal;text-align:center;line-height:125%;letter-spacing:0px;word-spacing:0px;text-anchor:middle;fill:#000000;fill-opacity:1;stroke:none;font-family:Courier;-inkscape-font-specification:Courier"
       x="400.68378"
       y="223.55417"
       id="text6969"
       sodipodi:linespacing="125%"><tspan
         sodipodi:role="line"
         id="tspan6971"
         x="400.68378"
         y="223.55417"
         style="font-style:normal;font-variant:normal;font-weight:normal;font-stretch:normal;font-family:Arial;-inkscape-font-specification:Arial">B</tspan></text>
    <text
       xml:space="preserve"
       style="font-size:8px;font-style:normal;font-variant:normal;font-weight:normal;font-stretch:normal;text-align:center;line-height:125%;letter-spacing:0px;word-spacing:0px;text-anchor:middle;fill:#000000;fill-opacity:1;stroke:none;font-family:Courier;-inkscape-font-specification:Courier"
       x="350.44211"
       y="224.21501"
       id="text6969-4"
       sodipodi:linespacing="125%"><tspan
         sodipodi:role="line"
         id="tspan6971-9"
         x="350.44211"
         y="224.21501"
         style="font-style:normal;font-variant:normal;font-weight:normal;font-stretch:normal;font-family:Arial;-inkscape-font-specification:Arial">A</tspan></text>
    <text
       xml:space="preserve"
       style="font-size:8px;font-style:normal;font-variant:normal;font-weight:normal;font-stretch:normal;text-align:center;line-height:125%;letter-spacing:0px;word-spacing:0px;text-anchor:middle;fill:#000000;fill-opacity:1;stroke:none;font-family:Courier;-inkscape-font-specification:Courier"
       x="116.60714"
       y="115.21194"
       id="text6994"
       sodipodi:linespacing="125%"
       transform="translate(306.57663,191.19937)"><tspan
         sodipodi:role="line"
         id="tspan6996"
         x="116.60714"
         y="115.21194" /></text>
    <text
       xml:space="preserve"
       x="548.91754"
       y="269.60678"
       id="text6969-0"
       style="font-size:4.76190472px"><tspan
         sodipodi:role="line"
         id="tspan6971-7"
         x="548.91754"
         y="269.60678"
         style="font-size:4px;font-style:normal;font-variant:normal;font-weight:normal;font-stretch:normal;baseline-shift:baseline;font-family:Arial;-inkscape-font-specification:Arial">¿V<tspan
   style="font-size:4px;baseline-shift:sub"
   id="tspan7021">B</tspan> en el arranque?</tspan></text>
    <text
       xml:space="preserve"
       x="549.37421"
       y="277.87158"
       id="text6969-0-0"
       style="font-size:4.76190472px"><tspan
         sodipodi:role="line"
         id="tspan6971-7-4"
         x="549.37421"
         y="277.87158"
         style="font-size:4px;font-style:normal;font-variant:normal;font-weight:normal;font-stretch:normal;baseline-shift:baseline;font-family:Arial;-inkscape-font-specification:Arial">¿p<tspan
   style="font-size:65.00091553%;baseline-shift:sub"
   id="tspan7048">m</tspan> en el punto de funcionamiento?</tspan></text>
    <text
       xml:space="preserve"
       x="362.00146"
       y="266.45673"
       id="text6969-0-0-0"
       style="font-size:4.76190472px"><tspan
         sodipodi:role="line"
         id="tspan6971-7-4-6"
         x="362.00146"
         y="266.45673"
         style="font-size:4px;font-style:normal;font-variant:normal;font-weight:normal;font-stretch:normal;baseline-shift:baseline;font-family:Arial;-inkscape-font-specification:Arial">Cobre</tspan></text>
    <g
       style="font-style:normal;font-variant:normal;font-weight:normal;font-stretch:normal;letter-spacing:normal;word-spacing:normal;text-anchor:start;fill:none;stroke:#000000;stroke-width:2.36246395;stroke-linecap:butt;stroke-linejoin:miter;stroke-miterlimit:10.43299961;stroke-opacity:1;stroke-dasharray:none;stroke-dashoffset:0;display:inline"
       ns0:preamble="/home/jmmauricio-s/preamble_beamer.tex"
       ns0:text="\\sf\nL\\\'inea $\\sf L_1$ :\\\\\n  $ \\sf 3 \\times 50  mm^2$ \\\\\n  $ \\sf l_1 = 20 m $  \\\\\n  $ \\sf X_{1} = 0{,}08 \\Omega/km $ \\\\\n"
       word-spacing="normal"
       letter-spacing="normal"
       font-size-adjust="none"
       font-stretch="normal"
       font-weight="normal"
       font-variant="normal"
       font-style="normal"
       stroke-miterlimit="10.433"
       xml:space="preserve"
       transform="matrix(0.47619772,0,0,-0.47619772,255.80655,580.52321)"
       id="g7573"><path
         style="fill:#000000;stroke-width:0"
         inkscape:connector-curvature="0"
         id="path7575"
         d="m 225.25,714.02 h -0.88 v -6.9 h 4.03 v 0.66 c -0.89,-0.01 -1.77,-0.02 -2.66,-0.02 h -0.49 z" /><polygon
         style="fill:#000000;stroke-width:0"
         id="polygon7577"
         points="229.56,712.36 230.17,712.36 231.66,714.02 230.89,714.02 " /><polygon
         style="fill:#000000;stroke-width:0"
         id="polygon7579"
         points="229.63,707.12 230.38,707.12 230.38,711.54 229.63,711.54 " /><path
         style="fill:#000000;stroke-width:0"
         inkscape:connector-curvature="0"
         id="path7581"
         d="m 235.54,710.09 0,0.06 0,0.06 -0.01,0.07 0,0.06 -0.01,0.07 0,0.06 -0.01,0.07 -0.02,0.07 -0.01,0.06 -0.01,0.07 -0.02,0.06 -0.02,0.07 -0.03,0.06 -0.03,0.06 -0.03,0.06 -0.03,0.06 -0.04,0.06 -0.04,0.05 -0.04,0.05 -0.05,0.05 -0.05,0.05 -0.06,0.05 -0.06,0.04 -0.07,0.03 -0.04,0.02 -0.03,0.02 -0.04,0.01 -0.04,0.02 -0.04,0.01 -0.04,0.01 -0.04,0.01 -0.05,0.01 -0.04,0.01 -0.05,0.01 -0.05,0.01 -0.05,0 -0.05,0.01 -0.06,0 -0.05,0 -0.06,0.01 c -0.89,0 -1.38,-0.68 -1.44,-0.76 v 0.7 h -0.72 v -4.47 h 0.78 v 2.44 c 0,0.65 0.25,1.48 1.01,1.48 0.95,0 0.96,-0.71 0.96,-1.02 v -2.9 h 0.78 z" /><path
         style="fill:#000000;stroke-width:0"
         inkscape:connector-curvature="0"
         id="path7583"
         d="m 240.48,709.3 -0.01,0.03 0,0.04 0,0.04 0,0.03 0,0.05 0,0.04 0,0.04 0,0.05 -0.01,0.05 0,0.05 0,0.05 -0.01,0.05 0,0.06 -0.01,0.05 -0.01,0.06 -0.01,0.05 -0.01,0.06 -0.01,0.06 -0.01,0.06 -0.02,0.05 -0.01,0.06 -0.02,0.06 -0.02,0.06 -0.02,0.06 -0.02,0.06 -0.02,0.06 -0.03,0.06 -0.02,0.06 -0.03,0.06 -0.03,0.06 -0.04,0.05 -0.03,0.06 c -0.41,0.61 -1.02,0.73 -1.38,0.73 -1.1,0 -1.99,-1.06 -1.99,-2.34 0,-1.31 0.95,-2.35 2.14,-2.35 0.63,0 1.2,0.23 1.59,0.51 l -0.06,0.65 c -0.63,-0.52 -1.29,-0.56 -1.52,-0.56 -0.79,0 -1.43,0.71 -1.46,1.68 l 0.05,0.55 c 0.16,0.75 0.69,1.25 1.25,1.25 0.52,0 1.08,-0.34 1.21,-1.25 h -2.46 l -0.05,-0.55 z" /><path
         style="fill:#000000;stroke-width:0"
         inkscape:connector-curvature="0"
         id="path7585"
         d="m 244.75,710 0,0.09 0,0.09 -0.01,0.09 -0.02,0.09 -0.02,0.09 -0.02,0.08 -0.02,0.08 -0.03,0.08 -0.04,0.08 -0.03,0.07 -0.04,0.07 -0.04,0.07 -0.05,0.07 -0.05,0.06 -0.05,0.06 -0.05,0.06 -0.06,0.06 -0.06,0.05 -0.06,0.05 -0.07,0.04 -0.06,0.04 -0.07,0.04 -0.07,0.04 -0.08,0.03 -0.07,0.03 -0.08,0.02 -0.07,0.03 -0.08,0.01 -0.09,0.02 -0.08,0.01 -0.08,0 -0.09,0.01 c -0.65,0 -1.09,-0.16 -1.56,-0.43 l 0.06,-0.66 c 0.52,0.37 1.01,0.5 1.5,0.5 0.47,0 0.87,-0.4 0.87,-1.13 v -0.43 c -1.49,-0.02 -2.76,-0.44 -2.76,-1.31 0,-0.43 0.27,-1.23 1.14,-1.23 0.13,0 1.07,0.02 1.65,0.46 l -0.37,0.33 c -0.29,-0.18 -0.67,-0.19 -0.78,-0.19 -0.47,0 -0.92,0.23 -0.92,0.65 0,0.69 1.61,0.76 2.04,0.78 v -0.61 c 0,-0.19 0,-0.44 -0.34,-0.63 l 0.37,-0.33 v -0.36 h 0.74 z" /><path
         style="fill:#000000;stroke-width:0"
         inkscape:connector-curvature="0"
         id="path7587"
         d="m 250.71,714.02 h -0.89 v -6.9 h 4.03 v 0.66 c -0.88,-0.01 -1.77,-0.02 -2.65,-0.02 h -0.49 z" /><path
         style="fill:#000000;stroke-width:0"
         inkscape:connector-curvature="0"
         id="path7589"
         d="m 256.52,710.34 h -0.15 c -0.45,-0.42 -1.02,-0.45 -1.44,-0.46 v -0.44 c 0.27,0.01 0.62,0.02 0.97,0.16 v -3.53 h -0.93 v -0.44 h 2.48 v 0.44 h -0.93 z" /><polygon
         style="fill:#000000;stroke-width:0"
         id="polygon7591"
         points="262.78,710.71 263.6,710.71 263.6,711.54 262.78,711.54 " /><polygon
         style="fill:#000000;stroke-width:0"
         id="polygon7593"
         points="263.6,707.12 263.6,707.95 262.78,707.95 262.78,707.12 " /><path
         style="fill:#000000;stroke-width:0"
         inkscape:connector-curvature="0"
         id="path7595"
         d="m 224.35,700.28 0.03,0.06 0.03,0.06 0.03,0.06 0.03,0.06 0.04,0.06 0.03,0.05 0.04,0.05 0.04,0.05 0.05,0.05 0.04,0.05 0.05,0.04 0.04,0.04 0.05,0.04 0.05,0.04 0.05,0.04 0.05,0.03 0.05,0.04 0.05,0.03 0.06,0.02 0.05,0.03 0.06,0.02 0.05,0.02 0.06,0.02 0.05,0.02 0.06,0.02 0.06,0.01 0.05,0.01 0.06,0.01 0.06,0.01 0.05,0 0.06,0.01 0.06,0 c 0.52,0 1,-0.3 1,-0.93 0,-0.61 -0.4,-1.2 -1.01,-1.34 -0.06,-0.01 -0.08,-0.01 -0.79,-0.07 v -0.6 h 0.71 c 1.07,0 1.29,-0.92 1.29,-1.42 0,-0.78 -0.45,-1.41 -1.22,-1.41 -0.69,0 -1.47,0.35 -1.91,1.02 l -0.11,-0.6 c 0.73,-0.93 1.64,-1.03 2.04,-1.03 1.21,0 2.09,0.96 2.09,2.01 0,0.9 -0.7,1.52 -1.37,1.73 0.75,0.4 1.1,1.08 1.1,1.71 0,0.85 -0.83,1.51 -1.81,1.51 -0.77,0 -1.49,-0.4 -1.91,-1.1 z" /><path
         style="fill:#000000;stroke-width:0"
         inkscape:connector-curvature="0"
         id="path7597"
         d="m 234.5,697.93 -1.99,1.98 c -0.12,0.12 -0.14,0.14 -0.22,0.14 -0.1,0 -0.2,-0.09 -0.2,-0.2 0,-0.07 0.02,-0.09 0.13,-0.2 l 1.99,-2 -1.99,-1.99 c -0.11,-0.11 -0.13,-0.13 -0.13,-0.2 0,-0.11 0.1,-0.2 0.2,-0.2 0.08,0 0.1,0.02 0.22,0.14 l 1.98,1.98 2.06,-2.06 c 0.02,-0.01 0.09,-0.06 0.15,-0.06 0.12,0 0.2,0.09 0.2,0.2 0,0.02 0,0.06 -0.03,0.11 -0.02,0.02 -1.6,1.58 -2.09,2.08 l 1.82,1.82 c 0.05,0.06 0.2,0.19 0.25,0.25 0,0.02 0.05,0.06 0.05,0.13 0,0.11 -0.08,0.2 -0.2,0.2 -0.08,0 -0.12,-0.04 -0.23,-0.15 z" /><path
         style="fill:#000000;stroke-width:0"
         inkscape:connector-curvature="0"
         id="path7599"
         d="m 242.11,701.05 h 2.62 v 0.64 h -3.33 v -3.67 h 0.65 c 0.17,0.4 0.54,0.79 1.12,0.79 0.46,0 1,-0.41 1,-1.6 0,-1.65 -1.21,-1.65 -1.3,-1.65 -0.67,0 -1.27,0.39 -1.56,0.92 l -0.33,-0.56 c 0.41,-0.56 1.09,-0.97 1.9,-0.97 1.18,0 2.18,0.98 2.18,2.24 0,1.24 -0.86,2.22 -1.88,2.22 -0.4,0 -0.78,-0.15 -1.07,-0.41 z" /><path
         style="fill:#000000;stroke-width:0"
         inkscape:connector-curvature="0"
         id="path7601"
         d="m 250.12,698.41 0,0.15 0,0.15 -0.01,0.15 0,0.16 -0.01,0.16 -0.02,0.16 -0.01,0.16 -0.02,0.16 -0.03,0.16 -0.03,0.16 -0.04,0.16 -0.04,0.16 -0.05,0.16 -0.03,0.08 -0.03,0.08 -0.03,0.07 -0.04,0.08 -0.03,0.08 -0.04,0.07 c -0.41,0.75 -1.09,0.99 -1.6,0.99 l -0.01,-0.61 c 0.77,0 1.03,-0.76 1.1,-0.94 0.19,-0.55 0.19,-1.22 0.19,-1.83 0,-0.66 0,-1.28 -0.18,-1.91 -0.26,-0.9 -0.78,-1.06 -1.1,-1.06 h 0 c -0.52,0 -0.93,0.37 -1.13,1.09 -0.16,0.57 -0.17,1.1 -0.17,1.88 0,0.62 0,1.22 0.17,1.77 0.06,0.18 0.31,1 1.12,1 l 0.01,0.61 c -0.59,0 -1.29,-0.27 -1.69,-1.16 -0.33,-0.72 -0.38,-1.55 -0.38,-2.34 0,-0.79 0.04,-1.51 0.34,-2.24 0.4,-0.95 1.15,-1.22 1.72,-1.22 0.72,0 1.35,0.41 1.67,1.09 0.3,0.65 0.4,1.3 0.4,2.37 z" /><path
         style="fill:#000000;stroke-width:0"
         inkscape:connector-curvature="0"
         id="path7603"
         d="m 257.65,698.13 0,0.06 -0.01,0.07 0,0.06 0,0.07 -0.01,0.06 -0.01,0.07 -0.01,0.07 -0.01,0.06 -0.01,0.07 -0.02,0.07 -0.02,0.06 -0.02,0.07 -0.02,0.06 -0.03,0.06 -0.03,0.06 -0.03,0.06 -0.04,0.06 -0.04,0.05 -0.05,0.05 -0.05,0.05 -0.05,0.05 -0.06,0.04 -0.06,0.04 -0.07,0.04 -0.03,0.02 -0.04,0.01 -0.04,0.02 -0.03,0.01 -0.04,0.02 -0.05,0.01 -0.04,0.01 -0.04,0.01 -0.05,0.01 -0.05,0.01 -0.04,0 -0.05,0.01 -0.05,0 -0.06,0.01 -0.05,0 -0.06,0 c -0.59,0 -1.11,-0.28 -1.48,-0.81 -0.26,0.75 -0.95,0.81 -1.27,0.81 -0.72,0 -1.19,-0.41 -1.46,-0.77 v 0.72 h -0.71 v -4.47 h 0.77 v 2.43 c 0,0.68 0.27,1.48 1.01,1.48 0.93,0 0.97,-0.64 0.97,-1.02 v -2.89 h 0.78 v 2.43 c 0,0.68 0.27,1.48 1.01,1.48 0.92,0 0.97,-0.64 0.97,-1.02 v -2.89 h 0.78 z" /><path
         style="fill:#000000;stroke-width:0"
         inkscape:connector-curvature="0"
         id="path7605"
         d="m 265.56,698.13 0,0.06 0,0.07 0,0.06 -0.01,0.07 0,0.06 -0.01,0.07 -0.01,0.07 -0.01,0.06 -0.02,0.07 -0.01,0.07 -0.02,0.06 -0.02,0.07 -0.03,0.06 -0.02,0.06 -0.04,0.06 -0.03,0.06 -0.04,0.06 -0.04,0.05 -0.04,0.05 -0.05,0.05 -0.06,0.05 -0.05,0.04 -0.06,0.04 -0.07,0.04 -0.04,0.02 -0.03,0.01 -0.04,0.02 -0.04,0.01 -0.04,0.02 -0.04,0.01 -0.04,0.01 -0.05,0.01 -0.04,0.01 -0.05,0.01 -0.05,0 -0.05,0.01 -0.05,0 -0.05,0.01 -0.06,0 -0.05,0 c -0.6,0 -1.12,-0.28 -1.49,-0.81 -0.25,0.75 -0.95,0.81 -1.27,0.81 -0.71,0 -1.18,-0.41 -1.45,-0.77 v 0.72 h -0.72 v -4.47 h 0.78 v 2.43 c 0,0.68 0.27,1.48 1,1.48 0.93,0 0.98,-0.64 0.98,-1.02 v -2.89 h 0.77 v 2.43 c 0,0.68 0.27,1.48 1.01,1.48 0.92,0 0.98,-0.64 0.98,-1.02 v -2.89 h 0.77 z" /><path
         style="fill:#000000;stroke-width:0"
         inkscape:connector-curvature="0"
         id="path7607"
         d="m 268.35,699.32 -0.03,0 -0.03,0 -0.03,0 -0.03,0 -0.03,0 -0.04,-0.01 -0.03,0 -0.03,0 h -0.79 l 1.08,0.96 c 0.12,0.11 0.46,0.37 0.6,0.48 0.3,0.27 0.71,0.64 0.71,1.24 0,0.79 -0.58,1.5 -1.58,1.5 -0.73,0 -1.2,-0.39 -1.43,-1.1 l 0.33,-0.41 c 0.16,0.58 0.4,1.03 1.01,1.03 0.58,0 1.03,-0.41 1.03,-1.03 0,-0.58 -0.35,-0.91 -0.76,-1.3 -0.14,-0.14 -0.52,-0.46 -0.66,-0.59 -0.21,-0.19 -0.69,-0.65 -0.89,-0.82 v -0.49 h 2.95 v 0.54 z" /><polygon
         style="fill:#000000;stroke-width:0"
         id="polygon7609"
         points="224.24,683.22 224.98,683.22 224.98,690.11 224.24,690.11 " /><path
         style="fill:#000000;stroke-width:0"
         inkscape:connector-curvature="0"
         id="path7611"
         d="m 228.05,686.43 h -0.16 c -0.45,-0.42 -1.02,-0.45 -1.44,-0.46 v -0.44 c 0.27,0.01 0.62,0.02 0.97,0.16 v -3.53 h -0.93 v -0.44 h 2.48 v 0.44 h -0.92 z" /><path
         style="fill:#000000;stroke-width:0"
         inkscape:connector-curvature="0"
         id="path7613"
         d="m 239.62,686.46 0.03,0 0.02,0 0.03,0 0.02,0.01 0.01,0 0.02,0 0.01,0 0.02,0 0.01,0 0.01,0.01 0.02,0 0.01,0 0.01,0.01 0.01,0 0.02,0.01 0.01,0 0.01,0.01 0.01,0.01 0.01,0.01 0.01,0.01 0,0.01 0.01,0 0,0.01 0,0 0.01,0.01 0,0.01 0,0 0,0.01 0.01,0.01 0,0 0,0.01 0,0.01 0,0.01 0,0.01 0,0 0,0.01 0.01,0.01 c 0,0.2 -0.19,0.2 -0.33,0.2 h -5.96 c -0.14,0 -0.33,0 -0.33,-0.2 0,-0.2 0.19,-0.2 0.34,-0.2 z" /><path
         style="fill:#000000;stroke-width:0"
         inkscape:connector-curvature="0"
         id="path7615"
         d="m 239.63,684.54 0.01,0 0.01,0 0.03,0 0.03,0 0.01,0 0.02,0 0.01,0 0.01,0 0.02,0 0.01,0.01 0.02,0 0.01,0 0.01,0.01 0.01,0 0.02,0.01 0.01,0 0.01,0.01 0.01,0 0.01,0.01 0.01,0.01 0.01,0.01 0,0 0,0.01 0.01,0.01 0,0 0,0.01 0.01,0 0,0.01 0,0.01 0,0 0.01,0.01 0,0.01 0,0 0,0.01 0,0.01 0,0.01 0,0.01 0,0.01 0.01,0 c 0,0.2 -0.19,0.2 -0.34,0.2 h -5.94 c -0.15,0 -0.34,0 -0.34,-0.2 0,-0.19 0.19,-0.19 0.33,-0.19 z" /><path
         style="fill:#000000;stroke-width:0"
         inkscape:connector-curvature="0"
         id="path7617"
         d="m 245.03,685.08 -1.23,-1.23 v -0.63 h 3.97 v 0.7 h -1.81 c -0.12,0 -0.24,-0.01 -0.36,-0.01 h -1.09 c 0.32,0.28 1.08,1.02 1.39,1.31 0.19,0.18 0.69,0.6 0.88,0.78 0.45,0.44 0.99,0.97 0.99,1.81 0,1.15 -0.81,2.14 -2.12,2.14 -1.14,0 -1.69,-0.78 -1.93,-1.63 0.12,-0.17 0.17,-0.23 0.19,-0.26 0.02,-0.02 0.11,-0.15 0.21,-0.28 0.2,0.76 0.48,1.53 1.39,1.53 0.93,0 1.44,-0.74 1.44,-1.52 0,-0.84 -0.57,-1.41 -1.15,-2 z" /><path
         style="fill:#000000;stroke-width:0"
         inkscape:connector-curvature="0"
         id="path7619"
         d="m 252.83,686.45 0,0.15 -0.01,0.15 0,0.16 -0.01,0.15 -0.01,0.16 -0.01,0.16 -0.01,0.16 -0.03,0.16 -0.02,0.16 -0.03,0.16 -0.04,0.17 -0.04,0.15 -0.05,0.16 -0.03,0.08 -0.03,0.08 -0.03,0.08 -0.04,0.07 -0.03,0.08 -0.04,0.08 c -0.41,0.74 -1.1,0.98 -1.6,0.98 l -0.01,-0.61 c 0.77,0 1.03,-0.75 1.1,-0.93 0.19,-0.56 0.19,-1.22 0.19,-1.84 0,-0.65 0,-1.28 -0.18,-1.91 -0.26,-0.9 -0.78,-1.06 -1.1,-1.06 h 0 c -0.52,0 -0.93,0.38 -1.13,1.1 -0.16,0.56 -0.17,1.1 -0.17,1.87 0,0.63 0,1.22 0.17,1.77 0.06,0.19 0.31,1 1.12,1 l 0.01,0.61 c -0.59,0 -1.29,-0.27 -1.69,-1.15 -0.33,-0.73 -0.38,-1.55 -0.38,-2.35 0,-0.78 0.04,-1.51 0.34,-2.23 0.39,-0.95 1.15,-1.22 1.72,-1.22 0.72,0 1.35,0.4 1.67,1.09 0.3,0.64 0.4,1.3 0.4,2.36 z" /><path
         style="fill:#000000;stroke-width:0"
         inkscape:connector-curvature="0"
         id="path7621"
         d="m 260.36,686.17 -0.01,0.07 0,0.06 0,0.07 0,0.06 -0.01,0.07 -0.01,0.07 -0.01,0.06 -0.01,0.07 -0.01,0.07 -0.02,0.06 -0.02,0.07 -0.02,0.06 -0.02,0.06 -0.03,0.07 -0.03,0.06 -0.03,0.05 -0.04,0.06 -0.04,0.06 -0.05,0.05 -0.05,0.05 -0.05,0.04 -0.06,0.05 -0.06,0.04 -0.07,0.03 -0.03,0.02 -0.04,0.02 -0.04,0.01 -0.04,0.02 -0.04,0.01 -0.04,0.01 -0.04,0.02 -0.04,0.01 -0.05,0 -0.05,0.01 -0.04,0.01 -0.05,0 -0.06,0.01 -0.05,0 -0.05,0 -0.06,0 c -0.6,0 -1.11,-0.27 -1.48,-0.81 -0.26,0.75 -0.96,0.81 -1.27,0.81 -0.72,0 -1.19,-0.4 -1.46,-0.76 v 0.71 h -0.71 v -4.46 h 0.77 v 2.43 c 0,0.67 0.27,1.48 1.01,1.48 0.92,0 0.97,-0.65 0.97,-1.02 v -2.89 h 0.78 v 2.43 c 0,0.67 0.27,1.48 1,1.48 0.93,0 0.98,-0.65 0.98,-1.02 v -2.89 h 0.78 z" /><polygon
         style="fill:#000000;stroke-width:0"
         id="polygon7623"
         points="226.25,674.9 223.57,671.26 224.53,671.26 226.68,674.3 228.88,671.26 229.92,671.26 227.1,674.9 229.5,678.15 228.55,678.15 226.68,675.56 224.74,678.15 223.71,678.15 " /><path
         style="fill:#000000;stroke-width:0"
         inkscape:connector-curvature="0"
         id="path7625"
         d="m 232.31,674.47 h -0.15 c -0.46,-0.42 -1.03,-0.44 -1.45,-0.46 v -0.43 c 0.28,0 0.63,0.02 0.97,0.15 v -3.53 h -0.92 v -0.43 h 2.48 v 0.43 h -0.93 z" /><path
         style="fill:#000000;stroke-width:0"
         inkscape:connector-curvature="0"
         id="path7627"
         d="m 243.88,674.51 0.03,0 0.03,0 0.03,0 0.01,0 0.01,0 0.02,0 0.01,0 0.02,0.01 0.01,0 0.02,0 0.01,0 0.01,0.01 0.01,0 0.02,0.01 0.01,0 0.01,0.01 0.01,0.01 0.01,0 0.01,0.01 0.01,0.01 0.01,0.01 0,0.01 0,0 0.01,0.01 0,0 0,0.01 0,0.01 0.01,0 0,0.01 0,0.01 0,0.01 0,0 0,0.01 0.01,0.01 0,0.01 0,0.01 0,0.01 c 0,0.2 -0.19,0.2 -0.33,0.2 h -5.96 c -0.14,0 -0.33,0 -0.33,-0.2 0,-0.2 0.19,-0.2 0.34,-0.2 z" /><path
         style="fill:#000000;stroke-width:0"
         inkscape:connector-curvature="0"
         id="path7629"
         d="m 243.89,672.58 0.01,0 0.02,0 0.02,0 0.03,0 0.01,0 0.02,0 0.01,0.01 0.02,0 0.01,0 0.01,0 0.02,0 0.01,0.01 0.01,0 0.02,0.01 0.01,0 0.01,0.01 0.01,0 0.01,0.01 0.01,0.01 0.01,0.01 0.01,0 0,0.01 0.01,0 0,0.01 0,0.01 0.01,0 0,0.01 0,0 0,0.01 0.01,0.01 0,0 0,0.01 0,0.01 0,0.01 0,0 0.01,0.01 0,0.01 0,0.01 0,0.01 c 0,0.2 -0.19,0.2 -0.34,0.2 h -5.94 c -0.15,0 -0.34,0 -0.34,-0.2 0,-0.2 0.19,-0.2 0.33,-0.2 z" /><path
         style="fill:#000000;stroke-width:0"
         inkscape:connector-curvature="0"
         id="path7631"
         d="m 252.11,674.5 0,0.15 -0.01,0.15 0,0.15 -0.01,0.16 -0.01,0.16 -0.01,0.16 -0.01,0.16 -0.03,0.16 -0.02,0.16 -0.03,0.16 -0.04,0.16 -0.04,0.16 -0.05,0.16 -0.03,0.08 -0.03,0.08 -0.03,0.07 -0.04,0.08 -0.03,0.08 -0.04,0.07 c -0.41,0.75 -1.1,0.98 -1.6,0.98 -0.59,0 -1.29,-0.26 -1.69,-1.15 -0.33,-0.72 -0.38,-1.55 -0.38,-2.34 0,-0.79 0.04,-1.51 0.34,-2.24 0.39,-0.95 1.15,-1.22 1.72,-1.22 l 0.01,0.61 c -0.52,0 -0.93,0.38 -1.13,1.09 -0.16,0.57 -0.17,1.1 -0.17,1.88 0,0.62 0,1.22 0.17,1.77 0.06,0.19 0.31,1 1.12,1 0.77,0 1.03,-0.76 1.1,-0.93 0.19,-0.56 0.19,-1.23 0.19,-1.84 0,-0.66 0,-1.28 -0.18,-1.91 -0.26,-0.9 -0.78,-1.06 -1.1,-1.06 h 0 l -0.01,-0.61 c 0.72,0 1.35,0.41 1.67,1.09 0.3,0.65 0.4,1.3 0.4,2.37 z" /><path
         style="fill:#000000;stroke-width:0"
         inkscape:connector-curvature="0"
         id="path7633"
         d="m 254.56,671.27 0,0.06 0,0.06 0,0.06 -0.01,0.05 -0.01,0.06 0,0.05 -0.01,0.05 -0.01,0.05 -0.01,0.05 -0.02,0.04 -0.01,0.05 -0.02,0.04 -0.01,0.04 -0.02,0.04 -0.02,0.03 -0.02,0.04 -0.02,0.03 -0.02,0.03 -0.03,0.03 -0.02,0.03 -0.03,0.02 -0.03,0.02 -0.02,0.02 -0.03,0.02 -0.03,0.02 -0.03,0.01 -0.03,0.02 -0.04,0.01 -0.03,0 -0.03,0.01 -0.04,0 -0.03,0 c -0.33,0 -0.53,-0.24 -0.53,-0.52 0,-0.27 0.2,-0.53 0.53,-0.53 0.11,0 0.24,0.04 0.34,0.13 0.03,0.02 0.04,0.03 0.05,0.03 0.01,0 0.02,-0.01 0.02,-0.15 0,-0.74 -0.35,-1.33 -0.67,-1.66 -0.11,-0.11 -0.11,-0.13 -0.11,-0.16 0,-0.07 0.05,-0.11 0.1,-0.11 0.11,0 0.9,0.77 0.9,1.93 z" /><path
         style="fill:#000000;stroke-width:0"
         inkscape:connector-curvature="0"
         id="path7635"
         d="m 259.86,674.5 0,0.15 -0.01,0.15 0,0.15 -0.01,0.16 -0.01,0.16 -0.01,0.16 -0.02,0.16 -0.02,0.16 -0.02,0.16 -0.03,0.16 -0.04,0.16 -0.04,0.16 -0.05,0.16 -0.03,0.08 -0.03,0.08 -0.03,0.07 -0.04,0.08 -0.03,0.08 -0.04,0.07 c -0.41,0.75 -1.1,0.98 -1.6,0.98 -0.59,0 -1.29,-0.26 -1.69,-1.15 -0.33,-0.72 -0.38,-1.55 -0.38,-2.34 0,-0.79 0.04,-1.51 0.34,-2.24 0.39,-0.95 1.15,-1.22 1.72,-1.22 l 0.01,0.61 c -0.52,0 -0.93,0.38 -1.13,1.09 -0.16,0.57 -0.17,1.1 -0.17,1.88 0,0.62 0,1.22 0.17,1.77 0.06,0.19 0.31,1 1.12,1 0.77,0 1.03,-0.76 1.1,-0.93 0.19,-0.56 0.19,-1.23 0.19,-1.84 0,-0.66 0,-1.28 -0.18,-1.91 -0.26,-0.9 -0.79,-1.06 -1.1,-1.06 h 0 l -0.01,-0.61 c 0.72,0 1.35,0.41 1.67,1.09 0.3,0.65 0.4,1.3 0.4,2.37 z" /><path
         style="fill:#000000;stroke-width:0"
         inkscape:connector-curvature="0"
         id="path7637"
         d="m 263.47,674.79 0.09,0.02 0.07,0.03 0.08,0.04 0.07,0.03 0.07,0.04 0.07,0.03 0.06,0.04 0.06,0.04 0.06,0.05 0.05,0.04 0.05,0.04 0.05,0.05 0.05,0.05 0.04,0.04 0.04,0.05 0.04,0.05 0.03,0.05 0.04,0.05 0.03,0.05 0.02,0.06 0.03,0.05 0.02,0.05 0.02,0.05 0.02,0.06 0.02,0.05 0.01,0.05 0.01,0.05 0.01,0.05 0.01,0.06 0,0.05 0.01,0.05 0,0.05 c 0,0.93 -0.85,1.73 -1.92,1.73 l -0.01,-0.57 c 0.78,0 1.23,-0.52 1.23,-1.16 0,-0.72 -0.51,-1.18 -1.22,-1.18 l -0.01,-0.6 c 0.58,0 1.26,-0.4 1.26,-1.42 0,-0.97 -0.62,-1.41 -1.25,-1.41 h 0 c -0.69,0 -1.27,0.47 -1.27,1.41 0,1.04 0.72,1.42 1.26,1.42 l 0.01,0.6 h 0 c -0.77,0 -1.24,0.49 -1.24,1.18 0,0.68 0.49,1.16 1.23,1.16 l 0.01,0.57 c -1.12,0 -1.93,-0.82 -1.93,-1.73 0,-0.53 0.34,-1.18 1.22,-1.47 -0.71,-0.25 -1.36,-0.88 -1.36,-1.74 0,-1.08 0.91,-2.01 2.06,-2.01 1.18,0 2.07,0.95 2.07,2.01 0,0.9 -0.7,1.51 -1.37,1.74 z" /><path
         style="fill:#000000;stroke-width:0"
         inkscape:connector-curvature="0"
         id="path7639"
         d="m 272.01,671.97 h -0.85 c -0.12,0 -0.24,-0.01 -0.36,-0.01 h -0.52 c 0.14,0.55 0.41,1.03 0.77,1.63 0.41,0.69 0.84,1.43 0.84,2.26 0,1.39 -1.34,2.52 -3.03,2.52 -1.72,0 -3.03,-1.15 -3.03,-2.52 0,-0.83 0.41,-1.54 0.92,-2.42 0.37,-0.62 0.58,-1.03 0.69,-1.47 h -0.53 c -0.12,0 -0.24,0.01 -0.36,0.01 h -0.84 v -0.71 h 2.44 c -0.01,0.5 -0.09,1.02 -0.64,2.15 -0.4,0.8 -0.8,1.61 -0.8,2.43 0,1.13 0.96,1.93 2.14,1.93 1.23,0 2.15,-0.82 2.15,-1.93 0,-0.77 -0.35,-1.52 -0.72,-2.31 -0.42,-0.86 -0.7,-1.48 -0.71,-2.27 h 2.44 z" /><path
         style="fill:#000000;stroke-width:0"
         inkscape:connector-curvature="0"
         id="path7641"
         d="m 276.83,678.33 0.01,0.01 0,0 0,0.01 0,0.01 0.01,0 0,0.01 0,0.01 0,0.01 0.01,0.01 0,0.01 0,0 0.01,0.01 0,0.01 0,0.01 0,0 0,0.01 0.01,0.01 0,0 0,0.01 0,0 0,0.01 0,0 0,0 0,0.01 0,0 0,0.01 0,0 0,0 0,0 0,0 0,0.01 0,0 0,0 0,0 0,0 c 0,0.11 -0.08,0.2 -0.2,0.2 -0.06,0 -0.13,-0.03 -0.16,-0.09 l -3.46,-9.47 c -0.05,-0.12 -0.05,-0.17 -0.05,-0.18 0,-0.1 0.09,-0.19 0.2,-0.19 0.13,0 0.16,0.07 0.22,0.24 z" /><polygon
         style="fill:#000000;stroke-width:0"
         id="polygon7643"
         points="278.28,671.26 278.97,671.26 278.97,672.66 279.77,673.48 281.32,671.26 282.13,671.26 280.24,673.96 281.92,675.67 281.02,675.67 279,673.6 279,678.15 278.28,678.15 " /><path
         style="fill:#000000;stroke-width:0"
         inkscape:connector-curvature="0"
         id="path7645"
         d="m 289.41,674.22 0,0.06 0,0.07 0,0.06 -0.01,0.07 0,0.06 -0.01,0.07 -0.01,0.07 -0.01,0.06 -0.01,0.07 -0.02,0.07 -0.02,0.06 -0.02,0.07 -0.03,0.06 -0.02,0.06 -0.03,0.06 -0.04,0.06 -0.04,0.06 -0.04,0.05 -0.04,0.05 -0.05,0.05 -0.05,0.05 -0.06,0.04 -0.06,0.04 -0.07,0.04 -0.04,0.02 -0.03,0.01 -0.04,0.02 -0.04,0.01 -0.04,0.02 -0.04,0.01 -0.04,0.01 -0.05,0.01 -0.04,0.01 -0.05,0.01 -0.05,0 -0.05,0.01 -0.05,0 -0.05,0.01 -0.06,0 -0.05,0 c -0.6,0 -1.12,-0.28 -1.48,-0.81 -0.26,0.75 -0.96,0.81 -1.28,0.81 -0.71,0 -1.18,-0.41 -1.45,-0.76 v 0.71 h -0.72 v -4.47 h 0.78 v 2.43 c 0,0.68 0.27,1.48 1,1.48 0.93,0 0.98,-0.64 0.98,-1.02 v -2.89 h 0.78 v 2.43 c 0,0.68 0.26,1.48 1,1.48 0.93,0 0.98,-0.64 0.98,-1.02 v -2.89 h 0.77 z" /></g>    <g
       style="font-style:normal;font-variant:normal;font-weight:normal;font-stretch:normal;letter-spacing:normal;word-spacing:normal;text-anchor:start;fill:none;stroke:#000000;stroke-width:2.36246395;stroke-linecap:butt;stroke-linejoin:miter;stroke-miterlimit:10.43299961;stroke-opacity:1;stroke-dasharray:none;stroke-dashoffset:0;display:inline"
       ns0:preamble="/home/jmmauricio-s/preamble_beamer.tex"
       ns0:text="\\sf\nBomba: \\\\\nPar: $ \\sf \\tau_b = A\\omega^2 + B $ \\\\\n\\\\\n$ \\sf A = 0.0197 \\,  \\frac{Ns^2}{m} $ \\\\\n$ \\sf B = 86.0 \\, Nm $"
       word-spacing="normal"
       letter-spacing="normal"
       font-size-adjust="none"
       font-stretch="normal"
       font-weight="normal"
       font-variant="normal"
       font-style="normal"
       stroke-miterlimit="10.433"
       xml:space="preserve"
       transform="matrix(0.47619772,0,0,-0.47619772,328.02772,587.19611)"
       id="content"><path
         id="path7276"
         d="m 224.4,714.02 v -6.9 h 2.62 c 1.44,0 2.48,0.9 2.48,1.87 0,0.87 -0.87,1.57 -1.92,1.74 0.91,0.23 1.65,0.81 1.65,1.56 0,0.92 -1.06,1.73 -2.47,1.73 l -0.28,-0.56 c 1.1,0 1.98,-0.52 1.98,-1.18 0,-0.6 -0.71,-1.27 -2.08,-1.27 h -1.16 v -0.61 h 1.44 c 1.06,0 2.04,-0.6 2.04,-1.4 0,-0.74 -0.88,-1.32 -1.96,-1.32 h -1.52 v 2.72 0.61 2.45 h 1.26 l 0.28,0.56 z"
         inkscape:connector-curvature="0"
         style="fill:#000000;stroke-width:0" /><path
         id="path7278"
         d="m 234.74,709.31 0,0.12 -0.01,0.13 -0.02,0.12 -0.02,0.12 -0.02,0.11 -0.03,0.12 -0.03,0.11 -0.04,0.11 -0.05,0.1 -0.05,0.11 -0.05,0.1 -0.06,0.09 -0.06,0.1 -0.06,0.09 -0.07,0.08 -0.08,0.09 -0.07,0.08 -0.08,0.07 -0.08,0.07 -0.09,0.07 -0.09,0.06 -0.09,0.06 -0.09,0.05 -0.1,0.05 -0.1,0.04 -0.1,0.04 -0.1,0.03 -0.11,0.03 -0.1,0.02 -0.11,0.01 -0.11,0.01 -0.11,0.01 -0.01,-0.61 c 0.7,0 1.41,-0.52 1.41,-1.69 0,-1.17 -0.67,-1.76 -1.41,-1.76 h 0 c -0.68,0 -1.4,0.56 -1.4,1.76 0,1.2 0.75,1.69 1.4,1.69 l 0.01,0.61 c -1.22,0 -2.19,-1.1 -2.19,-2.4 0,-1.31 1.02,-2.29 2.18,-2.29 1.19,0 2.19,1 2.19,2.29 z"
         inkscape:connector-curvature="0"
         style="fill:#000000;stroke-width:0" /><path
         id="path7280"
         d="m 242.15,710.09 0,0.06 0,0.06 -0.01,0.07 0,0.06 -0.01,0.07 0,0.07 -0.01,0.06 -0.01,0.07 -0.02,0.07 -0.01,0.06 -0.02,0.07 -0.02,0.06 -0.03,0.06 -0.03,0.07 -0.03,0.06 -0.03,0.05 -0.04,0.06 -0.04,0.06 -0.04,0.05 -0.05,0.05 -0.06,0.04 -0.05,0.05 -0.07,0.04 -0.06,0.03 -0.04,0.02 -0.03,0.02 -0.04,0.01 -0.04,0.02 -0.04,0.01 -0.04,0.01 -0.05,0.02 -0.04,0.01 -0.05,0 -0.04,0.01 -0.05,0.01 -0.05,0 -0.05,0.01 -0.05,0 -0.06,0 -0.05,0.01 c -0.6,0 -1.12,-0.28 -1.49,-0.82 -0.26,0.76 -0.95,0.82 -1.27,0.82 -0.72,0 -1.18,-0.41 -1.45,-0.77 v 0.71 h -0.72 v -4.47 h 0.78 v 2.44 c 0,0.67 0.27,1.48 1,1.48 0.93,0 0.98,-0.65 0.98,-1.02 v -2.9 h 0.77 v 2.44 c 0,0.67 0.27,1.48 1.01,1.48 0.92,0 0.97,-0.65 0.97,-1.02 v -2.9 h 0.78 z"
         inkscape:connector-curvature="0"
         style="fill:#000000;stroke-width:0" /><path
         id="path7282"
         d="m 244.53,714.02 h -0.74 v -6.9 h 0.77 v 0.46 c 0.24,-0.22 0.67,-0.56 1.34,-0.56 0.99,0 1.84,0.99 1.84,2.32 0,1.23 -0.67,2.31 -1.61,2.31 -0.39,0 -1,-0.1 -1.6,-0.59 l 0.03,-0.61 c 0.16,0.24 0.52,0.59 1.07,0.59 0.58,0 1.34,-0.43 1.34,-1.7 0,-1.29 -0.84,-1.72 -1.44,-1.72 -0.39,0 -0.72,0.18 -0.97,0.64 v 2.19 l -0.03,0.61 z"
         inkscape:connector-curvature="0"
         style="fill:#000000;stroke-width:0" /><path
         id="path7284"
         d="m 252.09,710 -0.01,0.09 0,0.09 -0.01,0.09 -0.02,0.09 -0.01,0.09 -0.03,0.08 -0.02,0.08 -0.03,0.08 -0.03,0.08 -0.04,0.07 -0.04,0.07 -0.04,0.07 -0.05,0.07 -0.04,0.06 -0.06,0.06 -0.05,0.06 -0.06,0.06 -0.06,0.05 -0.06,0.05 -0.06,0.04 -0.07,0.04 -0.07,0.04 -0.07,0.04 -0.07,0.03 -0.08,0.03 -0.07,0.02 -0.08,0.03 -0.08,0.01 -0.08,0.02 -0.09,0.01 -0.08,0 -0.08,0.01 c -0.65,0 -1.1,-0.16 -1.57,-0.43 l 0.06,-0.66 c 0.52,0.37 1.02,0.5 1.51,0.5 0.46,0 0.86,-0.4 0.86,-1.13 v -0.43 c -1.49,-0.02 -2.76,-0.44 -2.76,-1.31 0,-0.43 0.27,-1.23 1.14,-1.23 0.14,0 1.07,0.02 1.65,0.46 l -0.37,0.33 c -0.29,-0.18 -0.66,-0.19 -0.77,-0.19 -0.48,0 -0.93,0.23 -0.93,0.65 0,0.69 1.61,0.76 2.04,0.78 v -0.61 c 0,-0.19 0,-0.44 -0.34,-0.63 l 0.37,-0.33 v -0.36 h 0.75 z"
         inkscape:connector-curvature="0"
         style="fill:#000000;stroke-width:0" /><polygon
         id="polygon7286"
         points="254.7,710.71 254.7,711.54 253.87,711.54 253.87,710.71 "
         style="fill:#000000;stroke-width:0" /><polygon
         id="polygon7288"
         points="254.7,707.95 253.87,707.95 253.87,707.12 254.7,707.12 "
         style="fill:#000000;stroke-width:0" /><path
         id="path7290"
         d="m 226.93,698.04 0.12,0 0.11,0.01 0.12,0.01 0.11,0.02 0.11,0.02 0.1,0.03 0.11,0.03 0.1,0.04 0.1,0.04 0.1,0.04 0.1,0.05 0.09,0.06 0.09,0.05 0.09,0.06 0.08,0.07 0.08,0.06 0.08,0.07 0.07,0.08 0.07,0.07 0.06,0.08 0.06,0.08 0.06,0.09 0.05,0.08 0.05,0.09 0.04,0.09 0.04,0.1 0.03,0.09 0.02,0.1 0.02,0.1 0.02,0.1 0.01,0.1 0,0.11 c 0,1.06 -0.98,2 -2.36,2 h -2.47 v -6.89 h 0.88 v 2.87 l -0.03,0.58 v 2.89 h 1.41 c 1.09,0 1.77,-0.61 1.77,-1.45 0,-0.79 -0.63,-1.44 -1.77,-1.44 h -1.41 l 0.03,-0.58 z"
         inkscape:connector-curvature="0"
         style="fill:#000000;stroke-width:0" /><path
         id="path7292"
         d="m 233.49,698.04 0,0.1 -0.01,0.09 -0.01,0.09 -0.01,0.09 -0.02,0.08 -0.03,0.08 -0.02,0.09 -0.03,0.08 -0.03,0.07 -0.04,0.08 -0.04,0.07 -0.04,0.07 -0.05,0.06 -0.04,0.07 -0.06,0.06 -0.05,0.06 -0.06,0.05 -0.06,0.05 -0.06,0.05 -0.06,0.05 -0.07,0.04 -0.07,0.04 -0.07,0.03 -0.07,0.04 -0.08,0.02 -0.07,0.03 -0.08,0.02 -0.08,0.02 -0.08,0.01 -0.08,0.01 -0.09,0.01 -0.08,0 c -0.65,0 -1.1,-0.16 -1.57,-0.43 l 0.06,-0.65 c 0.52,0.36 1.02,0.49 1.51,0.49 0.46,0 0.86,-0.39 0.86,-1.13 v -0.43 c -1.49,-0.02 -2.75,-0.43 -2.75,-1.31 0,-0.43 0.27,-1.23 1.13,-1.23 0.14,0 1.07,0.02 1.65,0.47 l -0.37,0.32 c -0.28,-0.17 -0.66,-0.18 -0.77,-0.18 -0.48,0 -0.93,0.23 -0.93,0.64 0,0.7 1.61,0.77 2.04,0.79 v -0.62 c 0,-0.19 0,-0.44 -0.34,-0.63 l 0.37,-0.32 v -0.36 h 0.75 z"
         inkscape:connector-curvature="0"
         style="fill:#000000;stroke-width:0" /><path
         id="path7294"
         d="m 235.59,697.3 0,0.09 0.01,0.09 0.01,0.09 0.01,0.08 0.02,0.09 0.02,0.08 0.03,0.08 0.03,0.08 0.03,0.08 0.04,0.07 0.03,0.07 0.05,0.07 0.04,0.07 0.05,0.06 0.05,0.07 0.06,0.05 0.06,0.06 0.06,0.05 0.06,0.05 0.07,0.05 0.07,0.04 0.07,0.04 0.07,0.04 0.08,0.04 0.07,0.03 0.08,0.02 0.08,0.03 0.09,0.01 0.08,0.02 0.09,0.01 0.09,0.01 0.09,0 v 0.67 c -0.88,-0.01 -1.43,-0.5 -1.74,-0.95 v 0.9 h -0.7 v -4.47 h 0.75 z"
         inkscape:connector-curvature="0"
         style="fill:#000000;stroke-width:0" /><polygon
         id="polygon7296"
         points="239.22,698.76 239.22,699.58 238.4,699.58 238.4,698.76 "
         style="fill:#000000;stroke-width:0" /><polygon
         id="polygon7298"
         points="239.22,695.99 238.4,695.99 238.4,695.17 239.22,695.17 "
         style="fill:#000000;stroke-width:0" /><path
         id="path7300"
         d="m 247.55,698.88 h 1.68 c 0.13,0 0.48,0 0.48,0.33 0,0.24 -0.2,0.24 -0.39,0.24 h -2.79 c -0.2,0 -0.59,0 -1.02,-0.47 -0.33,-0.35 -0.61,-0.83 -0.61,-0.89 0,-0.01 0,-0.1 0.12,-0.1 0.08,0 0.1,0.04 0.16,0.12 0.48,0.77 1.05,0.77 1.26,0.77 h 0.83 l -0.98,-3.19 c -0.04,-0.12 -0.1,-0.33 -0.1,-0.37 0,-0.11 0.07,-0.27 0.29,-0.27 0.33,0 0.38,0.28 0.41,0.43 z"
         inkscape:connector-curvature="0"
         style="fill:#000000;stroke-width:0" /><path
         id="path7302"
         d="m 250.16,698.5 h -0.58 v -4.82 h 0.6 V 694 c 0.16,-0.13 0.49,-0.39 1,-0.39 0.76,0 1.37,0.71 1.37,1.62 0,0.84 -0.48,1.6 -1.17,1.6 -0.44,0 -0.87,-0.14 -1.22,-0.39 l 0.27,-0.22 c 0.1,0.06 0.29,0.15 0.53,0.15 0.46,0 0.99,-0.31 0.99,-1.14 0,-0.85 -0.58,-1.16 -1.07,-1.16 -0.26,0 -0.5,0.11 -0.7,0.43 v 1.37 c 0,0.11 0,0.19 0.25,0.35 l -0.27,0.22 z"
         inkscape:connector-curvature="0"
         style="fill:#000000;stroke-width:0" /><path
         id="path7304"
         d="m 262.91,698.42 0.03,0 0.03,0 0.03,0 0.01,0 0.02,0 0.01,0 0.02,0 0.01,0.01 0.01,0 0.02,0 0.01,0 0.01,0.01 0.02,0 0.01,0.01 0.01,0 0.01,0.01 0.01,0.01 0.01,0 0.01,0.01 0.01,0.01 0.01,0.01 0,0.01 0.01,0 0,0.01 0,0 0,0.01 0.01,0.01 0,0 0,0.01 0,0.01 0.01,0.01 0,0 0,0.01 0,0.01 0,0.01 0,0.01 0,0.01 c 0,0.2 -0.19,0.2 -0.33,0.2 h -5.96 c -0.14,0 -0.33,0 -0.33,-0.2 0,-0.2 0.19,-0.2 0.34,-0.2 z"
         inkscape:connector-curvature="0"
         style="fill:#000000;stroke-width:0" /><path
         id="path7306"
         d="m 262.92,696.49 0.02,0 0.01,0 0.03,0 0.02,0 0.02,0 0.01,0 0.02,0.01 0.01,0 0.01,0 0.02,0 0.01,0 0.01,0.01 0.02,0 0.01,0.01 0.01,0 0.01,0.01 0.01,0 0.01,0.01 0.01,0.01 0.01,0.01 0.01,0 0,0.01 0.01,0 0,0.01 0.01,0.01 0,0 0,0.01 0,0 0.01,0.01 0,0.01 0,0 0,0.01 0.01,0.01 0,0.01 0,0 0,0.01 0,0.01 0,0.01 0,0.01 c 0,0.2 -0.19,0.2 -0.34,0.2 h -5.94 c -0.15,0 -0.34,0 -0.34,-0.2 0,-0.2 0.19,-0.2 0.33,-0.2 z"
         inkscape:connector-curvature="0"
         style="fill:#000000;stroke-width:0" /><path
         id="path7308"
         d="m 270.34,702.06 h -0.87 l -2.6,-6.89 h 0.74 l 0.76,2.03 0.21,0.55 0.65,1.8 c 0.21,0.59 0.52,1.43 0.59,1.8 h 0.01 c 0.02,-0.14 0.09,-0.39 0.31,-1.04 l 0.91,-2.56 h -2.47 l -0.21,-0.55 h 2.9 l 0.75,-2.03 h 0.92 z"
         inkscape:connector-curvature="0"
         style="fill:#000000;stroke-width:0" /><path
         id="path7310"
         d="m 279.25,698.86 0,0.05 0,0.04 0,0.04 0,0.03 -0.01,0.04 0,0.04 -0.01,0.03 -0.01,0.03 -0.01,0.03 0,0.03 -0.01,0.03 -0.01,0.03 -0.02,0.03 -0.01,0.02 -0.01,0.03 -0.01,0.02 -0.02,0.02 -0.01,0.02 -0.02,0.02 -0.01,0.02 -0.02,0.01 -0.01,0.02 -0.02,0.01 -0.02,0.02 -0.02,0.01 -0.02,0.01 -0.01,0 -0.02,0.01 -0.02,0 -0.02,0.01 -0.02,0 -0.02,0 c -0.26,0 -0.53,-0.24 -0.53,-0.47 0,-0.1 0.05,-0.2 0.15,-0.29 0.17,-0.15 0.35,-0.42 0.35,-0.84 0,-0.4 -0.19,-0.96 -0.5,-1.42 -0.3,-0.43 -0.67,-0.76 -1.13,-0.76 -0.57,0 -0.88,0.35 -0.97,0.89 0.11,0.26 0.34,0.89 0.34,1.17 0,0.12 -0.05,0.22 -0.18,0.22 -0.08,0 -0.19,-0.02 -0.27,-0.17 -0.11,-0.2 -0.23,-0.84 -0.23,-1.2 -0.33,-0.47 -0.72,-0.91 -1.35,-0.91 -0.66,0 -0.87,0.58 -0.87,1.14 0,1.24 1.02,2.28 1.02,2.41 0,0.11 -0.08,0.19 -0.19,0.19 -0.13,0 -0.2,-0.13 -0.26,-0.22 -0.51,-0.73 -0.89,-1.91 -0.89,-2.82 0,-0.68 0.23,-1.42 1.05,-1.42 0.71,0 1.17,0.5 1.53,1.04 0.09,-0.57 0.48,-1.04 1.1,-1.04 0.77,0 1.25,0.61 1.61,1.35 0.24,0.49 0.61,1.84 0.61,2.45 z"
         inkscape:connector-curvature="0"
         style="fill:#000000;stroke-width:0" /><path
         id="path7312"
         d="m 281.77,699.32 -0.04,0 -0.03,0 -0.03,0 -0.03,0 -0.03,0 -0.03,-0.01 -0.03,0 -0.04,0 h -0.79 l 1.08,0.96 c 0.12,0.11 0.47,0.37 0.6,0.48 0.3,0.27 0.72,0.64 0.72,1.24 0,0.79 -0.59,1.5 -1.58,1.5 -0.74,0 -1.2,-0.39 -1.44,-1.1 l 0.33,-0.41 c 0.16,0.58 0.4,1.03 1.01,1.03 0.58,0 1.03,-0.41 1.03,-1.03 0,-0.58 -0.34,-0.91 -0.76,-1.3 -0.14,-0.14 -0.52,-0.46 -0.66,-0.59 -0.2,-0.19 -0.69,-0.65 -0.89,-0.82 v -0.49 h 2.96 v 0.54 z"
         inkscape:connector-curvature="0"
         style="fill:#000000;stroke-width:0" /><path
         id="path7314"
         d="m 290.28,697.46 h 2.78 c 0.14,0 0.32,0 0.32,0.19 0,0.2 -0.18,0.2 -0.32,0.2 h -2.78 v 2.78 c 0,0.14 0,0.33 -0.2,0.33 -0.2,0 -0.2,-0.19 -0.2,-0.33 v -2.78 h -2.78 c -0.14,0 -0.33,0 -0.33,-0.2 0,-0.19 0.19,-0.19 0.33,-0.19 h 2.78 v -2.79 c 0,-0.14 0,-0.33 0.2,-0.33 0.2,0 0.2,0.19 0.2,0.33 z"
         inkscape:connector-curvature="0"
         style="fill:#000000;stroke-width:0" /><path
         id="path7316"
         d="m 297.14,702.06 v -6.89 h 2.63 c 1.43,0 2.47,0.89 2.47,1.87 0,0.86 -0.86,1.57 -1.92,1.74 0.91,0.22 1.65,0.8 1.65,1.56 0,0.91 -1.06,1.72 -2.47,1.72 l -0.28,-0.55 c 1.1,0 1.98,-0.53 1.98,-1.18 0,-0.6 -0.71,-1.28 -2.08,-1.28 h -1.16 v -0.6 h 1.45 c 1.05,0 2.03,-0.61 2.03,-1.4 0,-0.75 -0.88,-1.32 -1.95,-1.32 h -1.53 v 2.72 0.6 2.46 h 1.26 l 0.28,0.55 z"
         inkscape:connector-curvature="0"
         style="fill:#000000;stroke-width:0" /><path
         id="path7318"
         d="m 227.18,678.15 h -0.87 l -2.6,-6.89 h 0.74 l 0.76,2.03 0.21,0.55 0.65,1.8 c 0.21,0.59 0.52,1.43 0.59,1.8 h 0 c 0.02,-0.14 0.1,-0.39 0.32,-1.04 l 0.91,-2.56 h -2.47 l -0.21,-0.55 h 2.9 l 0.75,-2.03 h 0.92 z"
         inkscape:connector-curvature="0"
         style="fill:#000000;stroke-width:0" /><path
         id="path7320"
         d="m 239.68,674.51 0.02,0 0.03,0 0.03,0 0.02,0 0.01,0 0.02,0 0.01,0 0.01,0.01 0.02,0 0.01,0 0.02,0 0.01,0.01 0.01,0 0.01,0.01 0.01,0 0.02,0.01 0.01,0.01 0.01,0 0.01,0.01 0,0.01 0.01,0.01 0.01,0.01 0,0 0,0.01 0.01,0 0,0.01 0,0.01 0,0 0.01,0.01 0,0.01 0,0.01 0,0 0,0.01 0,0.01 0,0.01 0,0.01 0,0.01 c 0,0.2 -0.19,0.2 -0.32,0.2 h -5.96 c -0.14,0 -0.33,0 -0.33,-0.2 0,-0.2 0.19,-0.2 0.34,-0.2 z"
         inkscape:connector-curvature="0"
         style="fill:#000000;stroke-width:0" /><path
         id="path7322"
         d="m 239.69,672.58 0.01,0 0.01,0 0.03,0 0.03,0 0.01,0 0.02,0 0.01,0.01 0.01,0 0.02,0 0.01,0 0.01,0 0.02,0.01 0.01,0 0.01,0.01 0.01,0 0.02,0.01 0.01,0 0.01,0.01 0.01,0.01 0.01,0.01 0,0 0.01,0.01 0,0 0.01,0.01 0,0.01 0,0 0.01,0.01 0,0 0,0.01 0,0.01 0.01,0 0,0.01 0,0.01 0,0.01 0,0 0,0.01 0,0.01 0,0.01 0,0.01 c 0,0.2 -0.19,0.2 -0.33,0.2 h -5.94 c -0.15,0 -0.34,0 -0.34,-0.2 0,-0.2 0.19,-0.2 0.33,-0.2 z"
         inkscape:connector-curvature="0"
         style="fill:#000000;stroke-width:0" /><path
         id="path7324"
         d="m 247.9,674.5 0,0.15 0,0.15 0,0.15 -0.01,0.16 -0.01,0.16 -0.01,0.16 -0.02,0.16 -0.02,0.16 -0.02,0.16 -0.04,0.16 -0.03,0.16 -0.05,0.16 -0.05,0.16 -0.02,0.08 -0.03,0.08 -0.04,0.07 -0.03,0.08 -0.04,0.08 -0.03,0.07 c -0.41,0.75 -1.1,0.98 -1.61,0.98 -0.58,0 -1.28,-0.26 -1.69,-1.15 -0.33,-0.72 -0.38,-1.55 -0.38,-2.34 0,-0.79 0.05,-1.51 0.34,-2.24 0.4,-0.95 1.16,-1.22 1.72,-1.22 l 0.01,0.61 c -0.51,0 -0.92,0.38 -1.12,1.09 -0.16,0.57 -0.17,1.1 -0.17,1.88 0,0.62 0,1.22 0.17,1.77 0.06,0.19 0.31,1 1.11,1 0.78,0 1.04,-0.76 1.11,-0.93 0.19,-0.56 0.19,-1.23 0.19,-1.84 0,-0.66 0,-1.28 -0.18,-1.91 -0.26,-0.9 -0.79,-1.06 -1.11,-1.06 h 0 l -0.01,-0.61 c 0.73,0 1.36,0.41 1.68,1.09 0.29,0.65 0.39,1.3 0.39,2.37 z"
         inkscape:connector-curvature="0"
         style="fill:#000000;stroke-width:0" /><path
         id="path7326"
         d="m 250.25,671.79 0,0.02 0,0.03 -0.01,0.03 0,0.02 -0.01,0.03 0,0.02 -0.01,0.03 -0.01,0.02 -0.01,0.02 -0.02,0.03 -0.01,0.02 -0.01,0.02 -0.02,0.02 -0.01,0.02 -0.02,0.02 -0.02,0.02 -0.01,0.02 -0.02,0.01 -0.02,0.02 -0.02,0.01 -0.03,0.02 -0.02,0.01 -0.02,0.01 -0.02,0.01 -0.03,0.01 -0.02,0.01 -0.03,0.01 -0.02,0 -0.03,0.01 -0.02,0 -0.03,0 -0.03,0 c -0.29,0 -0.52,-0.23 -0.52,-0.52 0,-0.29 0.23,-0.53 0.52,-0.53 0.29,0 0.53,0.24 0.53,0.53 z"
         inkscape:connector-curvature="0"
         style="fill:#000000;stroke-width:0" /><path
         id="path7328"
         d="m 255.65,674.5 0,0.15 0,0.15 0,0.15 -0.01,0.16 -0.01,0.16 -0.01,0.16 -0.02,0.16 -0.02,0.16 -0.03,0.16 -0.03,0.16 -0.03,0.16 -0.05,0.16 -0.05,0.16 -0.03,0.08 -0.03,0.08 -0.03,0.07 -0.03,0.08 -0.04,0.08 -0.03,0.07 c -0.41,0.75 -1.1,0.98 -1.61,0.98 -0.58,0 -1.28,-0.26 -1.69,-1.15 -0.33,-0.72 -0.38,-1.55 -0.38,-2.34 0,-0.79 0.04,-1.51 0.34,-2.24 0.4,-0.95 1.16,-1.22 1.72,-1.22 l 0.01,0.61 c -0.51,0 -0.92,0.38 -1.12,1.09 -0.16,0.57 -0.17,1.1 -0.17,1.88 0,0.62 0,1.22 0.17,1.77 0.06,0.19 0.31,1 1.11,1 0.78,0 1.04,-0.76 1.11,-0.93 0.19,-0.56 0.19,-1.23 0.19,-1.84 0,-0.66 0,-1.28 -0.18,-1.91 -0.26,-0.9 -0.79,-1.06 -1.11,-1.06 h 0 l -0.01,-0.61 c 0.73,0 1.36,0.41 1.68,1.09 0.29,0.65 0.39,1.3 0.39,2.37 z"
         inkscape:connector-curvature="0"
         style="fill:#000000;stroke-width:0" /><path
         id="path7330"
         d="m 259.06,677.99 h -0.2 c -0.58,-0.6 -1.41,-0.63 -1.89,-0.65 v -0.58 c 0.33,0.01 0.81,0.03 1.31,0.24 v -5.16 h -1.25 v -0.58 h 3.28 v 0.58 h -1.25 z"
         inkscape:connector-curvature="0"
         style="fill:#000000;stroke-width:0" /><path
         id="path7332"
         d="m 261.79,671.5 0.06,-0.05 0.06,-0.04 0.07,-0.05 0.07,-0.04 0.07,-0.04 0.07,-0.04 0.07,-0.03 0.04,-0.02 0.04,-0.01 0.04,-0.02 0.04,-0.01 0.04,-0.02 0.05,-0.01 0.04,-0.01 0.05,-0.01 0.04,-0.01 0.05,-0.01 0.05,-0.01 0.05,-0.01 0.05,0 0.05,-0.01 0.05,0 0.06,-0.01 0.05,0 0.06,0 c 1.3,0 2.5,1.38 2.5,3.55 0,2.78 -1.18,3.4 -2.02,3.4 v -0.57 c 0.97,0 1.14,-1.35 1.16,-1.84 h 0 c 0.01,-0.07 0.01,-0.17 0.01,-0.24 0,-0.81 -0.49,-1.55 -1.27,-1.55 -0.47,0 -0.75,0.23 -0.96,0.6 -0.22,0.39 -0.23,0.75 -0.23,1.18 0,0.44 0.01,0.85 0.29,1.28 0.2,0.29 0.48,0.57 1,0.57 v 0.57 c -0.7,0 -1.11,-0.29 -1.46,-0.66 -0.62,-0.68 -0.64,-1.33 -0.64,-1.76 0,-1.27 0.65,-2.38 1.61,-2.38 0.61,0 1.25,0.28 1.68,0.82 -0.11,-1.6 -0.88,-2.36 -1.66,-2.36 -0.34,0 -0.67,0.08 -1.03,0.38 z"
         inkscape:connector-curvature="0"
         style="fill:#000000;stroke-width:0" /><path
         id="path7334"
         d="m 268.36,677.07 0.04,0 0.05,0 0.04,0 0.05,0.01 0.04,0 0.05,0 0.04,0 0.05,0 h 1.2 c -1.47,-1.62 -2.36,-3.61 -2.36,-5.93 h 0.84 c 0,2.98 1.42,5.11 2.2,5.98 v 0.65 h -4.13 v -0.71 z"
         inkscape:connector-curvature="0"
         style="fill:#000000;stroke-width:0" /><polygon
         id="polygon7336"
         points="275.17,675.18 275.17,679.46 275.17,679.46 277.46,675.18 278.41,675.18 278.41,680.01 277.82,680.01 277.82,675.73 277.82,675.73 275.53,680.01 274.58,680.01 274.58,675.18 "
         style="fill:#000000;stroke-width:0" /><path
         id="path7338"
         d="m 281.66,678.16 -0.04,0.02 -0.05,0.01 -0.04,0.02 -0.04,0.01 -0.04,0.02 -0.04,0.01 -0.04,0.01 -0.04,0.01 -0.04,0.01 -0.04,0.01 -0.04,0.01 -0.03,0.01 -0.04,0.01 -0.03,0.01 -0.04,0 -0.03,0.01 -0.03,0 -0.04,0.01 -0.03,0 -0.03,0.01 -0.06,0 -0.06,0.01 -0.05,0 -0.05,0 -0.05,0 -0.05,0 c -0.18,0 -1.23,0 -1.23,-0.92 0,-0.33 0.18,-0.51 0.27,-0.59 0.25,-0.25 0.54,-0.3 0.91,-0.37 0.32,-0.06 0.7,-0.13 0.7,-0.47 0,-0.43 -0.58,-0.43 -0.67,-0.43 -0.45,0 -0.87,0.15 -1.15,0.35 l -0.09,-0.52 c 0.23,-0.12 0.66,-0.31 1.24,-0.31 0.31,0 0.62,0.05 0.87,0.24 0.26,0.19 0.35,0.5 0.35,0.74 0,0.12 -0.02,0.39 -0.31,0.66 -0.26,0.23 -0.51,0.28 -0.84,0.34 -0.41,0.07 -0.74,0.14 -0.74,0.44 0,0.4 0.51,0.4 0.62,0.4 0.39,0 0.7,-0.09 1.05,-0.27 z"
         inkscape:connector-curvature="0"
         style="fill:#000000;stroke-width:0" /><path
         id="path7340"
         d="m 283.37,678.57 -0.02,0 -0.01,0 -0.02,0 -0.02,0 -0.02,0 -0.03,0 -0.02,0 -0.02,0 -0.01,0 -0.01,0 h -0.57 l 0.77,0.68 c 0.09,0.08 0.33,0.26 0.43,0.34 0.22,0.2 0.51,0.46 0.51,0.89 0,0.56 -0.42,1.07 -1.13,1.07 -0.53,0 -0.85,-0.28 -1.02,-0.79 l 0.23,-0.29 c 0.11,0.42 0.29,0.74 0.72,0.74 0.42,0 0.74,-0.29 0.74,-0.74 0,-0.41 -0.25,-0.65 -0.54,-0.93 -0.1,-0.1 -0.37,-0.32 -0.48,-0.42 -0.14,-0.13 -0.48,-0.46 -0.63,-0.59 v -0.34 h 2.11 v 0.38 z"
         inkscape:connector-curvature="0"
         style="fill:#000000;stroke-width:0" /><line
         id="line7342"
         y2="673.75"
         x2="285.10001"
         y1="673.75"
         x1="273.89001"
         style="stroke-width:0.398" /><path
         id="path7344"
         d="m 281.85,669.88 0,0.05 -0.01,0.05 0,0.05 0,0.06 -0.01,0.05 0,0.05 -0.01,0.04 -0.01,0.05 -0.01,0.05 -0.02,0.05 -0.01,0.04 -0.02,0.05 -0.02,0.04 -0.02,0.04 -0.02,0.05 -0.03,0.04 -0.03,0.03 -0.03,0.04 -0.04,0.03 -0.03,0.04 -0.04,0.03 -0.05,0.03 -0.04,0.02 -0.05,0.03 -0.05,0.02 -0.06,0.02 -0.03,0 -0.03,0.01 -0.03,0.01 -0.03,0.01 -0.03,0 -0.04,0.01 -0.03,0 -0.04,0 -0.04,0.01 -0.03,0 -0.04,0 -0.04,0 c -0.59,0 -0.95,-0.34 -1.12,-0.56 -0.07,0.18 -0.24,0.56 -0.94,0.56 -0.39,0 -0.78,-0.16 -1.08,-0.53 v 0.51 h -0.56 v -3.14 h 0.61 v 1.69 c 0,0.46 0.19,1.01 0.73,1.01 0.72,0 0.72,-0.49 0.72,-0.69 v -2.01 h 0.6 v 1.69 c 0,0.46 0.2,1.01 0.73,1.01 0.72,0 0.72,-0.49 0.72,-0.69 v -2.01 h 0.61 z"
         inkscape:connector-curvature="0"
         style="fill:#000000;stroke-width:0" /><path
         id="path7346"
         d="m 224.4,666.2 v -6.9 h 2.62 c 1.44,0 2.48,0.9 2.48,1.87 0,0.87 -0.87,1.57 -1.92,1.74 0.91,0.23 1.65,0.81 1.65,1.56 0,0.91 -1.06,1.73 -2.47,1.73 l -0.28,-0.56 c 1.1,0 1.98,-0.53 1.98,-1.18 0,-0.6 -0.71,-1.27 -2.08,-1.27 h -1.16 v -0.61 h 1.44 c 1.06,0 2.04,-0.6 2.04,-1.4 0,-0.74 -0.88,-1.32 -1.96,-1.32 h -1.52 v 2.72 0.61 2.45 h 1.26 l 0.28,0.56 z"
         inkscape:connector-curvature="0"
         style="fill:#000000;stroke-width:0" /><path
         id="path7348"
         d="m 239.68,662.55 0.02,0 0.03,0 0.03,0 0.02,0 0.01,0.01 0.02,0 0.01,0 0.01,0 0.02,0 0.01,0.01 0.02,0 0.01,0 0.01,0.01 0.01,0 0.01,0.01 0.02,0 0.01,0.01 0.01,0.01 0.01,0.01 0,0.01 0.01,0.01 0.01,0 0,0.01 0,0 0.01,0.01 0,0.01 0,0 0,0.01 0.01,0.01 0,0 0,0.01 0,0.01 0,0.01 0,0 0,0.01 0,0.01 0,0.01 c 0,0.2 -0.19,0.2 -0.32,0.2 h -5.96 c -0.14,0 -0.33,0 -0.33,-0.2 0,-0.2 0.19,-0.2 0.34,-0.2 z"
         inkscape:connector-curvature="0"
         style="fill:#000000;stroke-width:0" /><path
         id="path7350"
         d="m 239.69,660.62 0.01,0.01 0.01,0 0.03,0 0.03,0 0.01,0 0.02,0 0.01,0 0.01,0 0.02,0 0.01,0.01 0.01,0 0.02,0 0.01,0.01 0.01,0 0.01,0 0.02,0.01 0.01,0.01 0.01,0 0.01,0.01 0.01,0.01 0,0.01 0.01,0 0,0.01 0.01,0 0,0.01 0,0.01 0.01,0 0,0.01 0,0 0,0.01 0.01,0.01 0,0.01 0,0 0,0.01 0,0.01 0,0.01 0,0.01 0,0 0,0.01 c 0,0.2 -0.19,0.2 -0.33,0.2 h -5.94 c -0.15,0 -0.34,0 -0.34,-0.2 0,-0.2 0.19,-0.2 0.33,-0.2 z"
         inkscape:connector-curvature="0"
         style="fill:#000000;stroke-width:0" /><path
         id="path7352"
         d="m 246.54,662.83 0.08,0.03 0.08,0.03 0.08,0.03 0.07,0.04 0.07,0.03 0.06,0.04 0.07,0.04 0.06,0.04 0.05,0.04 0.06,0.04 0.05,0.05 0.05,0.04 0.04,0.05 0.05,0.05 0.04,0.05 0.03,0.05 0.04,0.05 0.03,0.05 0.03,0.05 0.03,0.05 0.03,0.05 0.02,0.05 0.02,0.06 0.02,0.05 0.01,0.05 0.02,0.05 0.01,0.06 0.01,0.05 0.01,0.05 0,0.05 0,0.05 0,0.05 c 0,0.93 -0.84,1.74 -1.92,1.74 l -0.01,-0.58 c 0.79,0 1.24,-0.51 1.24,-1.16 0,-0.71 -0.51,-1.17 -1.23,-1.17 l -0.01,-0.61 c 0.58,0 1.27,-0.4 1.27,-1.42 0,-0.96 -0.62,-1.41 -1.26,-1.41 h 0 c -0.68,0 -1.26,0.48 -1.26,1.41 0,1.05 0.72,1.42 1.25,1.42 l 0.01,0.61 h 0 c -0.76,0 -1.23,0.48 -1.23,1.17 0,0.69 0.49,1.16 1.22,1.16 l 0.01,0.58 c -1.11,0 -1.93,-0.82 -1.93,-1.74 0,-0.53 0.34,-1.18 1.23,-1.47 -0.72,-0.25 -1.37,-0.87 -1.37,-1.74 0,-1.08 0.92,-2 2.06,-2 1.19,0 2.07,0.95 2.07,2 0,0.91 -0.69,1.51 -1.36,1.74 z"
         inkscape:connector-curvature="0"
         style="fill:#000000;stroke-width:0" /><path
         id="path7354"
         d="m 252.47,665.84 -0.05,0.02 -0.05,0.02 -0.04,0.01 -0.05,0.02 -0.04,0.01 -0.05,0.01 -0.04,0.01 -0.04,0.02 -0.04,0.01 -0.04,0 -0.04,0.01 -0.04,0.01 -0.04,0.01 -0.04,0 -0.03,0.01 -0.04,0 -0.03,0.01 -0.03,0 -0.04,0.01 -0.03,0 -0.03,0 -0.02,0 -0.03,0 -0.02,0.01 -0.03,0 -0.02,0 -0.02,0 -0.02,0 -0.02,0 -0.02,0 -0.01,0 -0.02,0 c -1.4,0 -2.65,-1.4 -2.65,-3.54 0,-2.81 1.23,-3.41 2.08,-3.41 v 0.6 c -1.06,0 -1.21,1.46 -1.24,1.79 h 0 c 0,0.14 0,0.16 0.01,0.28 0,0.73 0.45,1.53 1.27,1.53 0.48,0 0.76,-0.25 0.96,-0.62 0.21,-0.37 0.23,-0.71 0.23,-1.16 0,-0.34 0,-0.79 -0.24,-1.2 -0.17,-0.28 -0.43,-0.62 -0.99,-0.62 v -0.6 c 0.59,0 1.02,0.22 1.41,0.67 0.45,0.51 0.63,0.96 0.63,1.75 0,1.27 -0.65,2.38 -1.61,2.38 -0.31,0 -1.07,-0.08 -1.68,-0.82 0.13,1.6 0.92,2.39 1.83,2.39 0.38,0 0.7,-0.07 1.05,-0.21 z"
         inkscape:connector-curvature="0"
         style="fill:#000000;stroke-width:0" /><path
         id="path7356"
         d="m 255.23,659.83 0,0.03 0,0.02 -0.01,0.03 0,0.03 -0.01,0.02 0,0.03 -0.01,0.02 -0.01,0.02 -0.01,0.03 -0.01,0.02 -0.02,0.02 -0.01,0.02 -0.02,0.02 -0.01,0.02 -0.02,0.02 -0.02,0.02 -0.01,0.02 -0.02,0.02 -0.02,0.01 -0.02,0.02 -0.03,0.01 -0.02,0.01 -0.02,0.01 -0.02,0.02 -0.03,0 -0.02,0.01 -0.03,0.01 -0.02,0.01 -0.03,0 -0.02,0 -0.03,0.01 -0.03,0 c -0.29,0 -0.52,-0.24 -0.52,-0.53 0,-0.29 0.23,-0.53 0.52,-0.53 0.29,0 0.53,0.24 0.53,0.53 z"
         inkscape:connector-curvature="0"
         style="fill:#000000;stroke-width:0" /><path
         id="path7358"
         d="m 260.63,662.54 0,0.15 0,0.15 0,0.16 -0.01,0.15 -0.01,0.16 -0.01,0.16 -0.02,0.16 -0.02,0.16 -0.02,0.16 -0.04,0.16 -0.03,0.16 -0.05,0.16 -0.05,0.16 -0.02,0.08 -0.03,0.08 -0.04,0.08 -0.03,0.07 -0.04,0.08 -0.03,0.08 c -0.41,0.74 -1.1,0.98 -1.61,0.98 -0.58,0 -1.28,-0.27 -1.69,-1.15 -0.33,-0.73 -0.37,-1.55 -0.37,-2.35 0,-0.78 0.04,-1.51 0.33,-2.23 0.4,-0.96 1.16,-1.22 1.72,-1.22 l 0.01,0.6 c -0.51,0 -0.92,0.38 -1.12,1.09 -0.16,0.57 -0.17,1.11 -0.17,1.88 0,0.63 0,1.22 0.17,1.77 0.06,0.19 0.31,1 1.11,1 0.78,0 1.04,-0.75 1.11,-0.93 0.19,-0.56 0.19,-1.22 0.19,-1.84 0,-0.65 0,-1.28 -0.18,-1.91 -0.26,-0.9 -0.79,-1.06 -1.11,-1.06 h 0 l -0.01,-0.6 c 0.73,0 1.36,0.4 1.68,1.09 0.29,0.64 0.39,1.3 0.39,2.36 z"
         inkscape:connector-curvature="0"
         style="fill:#000000;stroke-width:0" /><path
         id="path7360"
         d="m 264.92,666.2 h -1.23 v -6.9 h 0.77 v 6.19 h 0.01 c 0.19,-0.4 0.61,-1.25 0.67,-1.36 l 2.44,-4.83 h 1.23 v 6.9 h -0.77 v -6.19 h -0.02 c -0.18,0.41 -0.6,1.25 -0.66,1.36 z"
         inkscape:connector-curvature="0"
         style="fill:#000000;stroke-width:0" /><path
         id="path7362"
         d="m 276.88,662.26 0,0.07 0,0.06 0,0.07 -0.01,0.06 0,0.07 -0.01,0.07 -0.01,0.06 -0.01,0.07 -0.02,0.07 -0.01,0.06 -0.02,0.07 -0.02,0.06 -0.03,0.06 -0.02,0.07 -0.03,0.06 -0.04,0.05 -0.04,0.06 -0.04,0.05 -0.04,0.06 -0.05,0.05 -0.05,0.04 -0.06,0.05 -0.06,0.04 -0.07,0.03 -0.04,0.02 -0.03,0.02 -0.04,0.01 -0.04,0.02 -0.04,0.01 -0.04,0.01 -0.04,0.01 -0.05,0.01 -0.04,0.01 -0.05,0.01 -0.05,0.01 -0.05,0 -0.05,0.01 -0.05,0 -0.06,0 -0.05,0 c -0.6,0 -1.12,-0.27 -1.48,-0.81 -0.26,0.75 -0.96,0.81 -1.28,0.81 -0.71,0 -1.18,-0.4 -1.45,-0.76 v 0.71 h -0.72 v -4.47 h 0.78 v 2.44 c 0,0.67 0.27,1.48 1.01,1.48 0.92,0 0.97,-0.65 0.97,-1.02 v -2.9 h 0.78 v 2.44 c 0,0.67 0.26,1.48 1,1.48 0.93,0 0.98,-0.65 0.98,-1.02 v -2.9 h 0.77 z"
         inkscape:connector-curvature="0"
         style="fill:#000000;stroke-width:0" /></g>  </g>
</svg>
