<?xml version="1.0" encoding="UTF-8" standalone="no"?>
<!-- Created with Inkscape (http://www.inkscape.org/) -->

<svg
   xmlns:ns0="http://www.iki.fi/pav/software/textext/"
   xmlns:dc="http://purl.org/dc/elements/1.1/"
   xmlns:cc="http://creativecommons.org/ns#"
   xmlns:rdf="http://www.w3.org/1999/02/22-rdf-syntax-ns#"
   xmlns:svg="http://www.w3.org/2000/svg"
   xmlns="http://www.w3.org/2000/svg"
   xmlns:sodipodi="http://sodipodi.sourceforge.net/DTD/sodipodi-0.dtd"
   xmlns:inkscape="http://www.inkscape.org/namespaces/inkscape"
   width="1003.1754"
   height="425.45837"
   id="svg8705"
   version="1.1"
   inkscape:version="0.48.5 r10040"
   sodipodi:docname="cuerpo_1.svg">
  <sodipodi:namedview
     id="base"
     pagecolor="#ffffff"
     bordercolor="#666666"
     borderopacity="1.0"
     inkscape:pageopacity="0.0"
     inkscape:pageshadow="2"
     inkscape:zoom="0.7"
     inkscape:cx="395.18382"
     inkscape:cy="182.82766"
     inkscape:document-units="px"
     inkscape:current-layer="layer1"
     showgrid="false"
     fit-margin-top="0"
     fit-margin-left="0"
     fit-margin-right="0"
     fit-margin-bottom="0"
     inkscape:window-width="1680"
     inkscape:window-height="1024"
     inkscape:window-x="1920"
     inkscape:window-y="0"
     inkscape:window-maximized="1"
     inkscape:snap-bbox="true"
     inkscape:object-nodes="true"
     showguides="true"
     inkscape:guide-bbox="true" />
  <defs
     id="defs8707">
    <marker
       style="overflow:visible"
       id="Arrow2Mstart"
       refX="0"
       refY="0"
       orient="auto"
       inkscape:stockid="Arrow2Mstart">
      <path
         inkscape:connector-curvature="0"
         transform="scale(0.6,0.6)"
         d="M 8.7185878,4.0337352 -2.2072895,0.01601326 8.7185884,-4.0017078 c -1.7454984,2.3720609 -1.7354408,5.6174519 -6e-7,8.035443 z"
         style="fill-rule:evenodd;stroke-width:0.625;stroke-linejoin:round"
         id="path26631" />
    </marker>
    <marker
       style="overflow:visible"
       id="marker8664"
       refX="0"
       refY="0"
       orient="auto"
       inkscape:stockid="Arrow2Mstart">
      <path
         inkscape:connector-curvature="0"
         transform="scale(0.6,0.6)"
         d="M 8.7185878,4.0337352 -2.2072895,0.01601326 8.7185884,-4.0017078 c -1.7454984,2.3720609 -1.7354408,5.6174519 -6e-7,8.035443 z"
         style="fill-rule:evenodd;stroke-width:0.625;stroke-linejoin:round"
         id="path8666" />
    </marker>
    <marker
       style="overflow:visible"
       id="marker8668"
       refX="0"
       refY="0"
       orient="auto"
       inkscape:stockid="Arrow2Mstart">
      <path
         inkscape:connector-curvature="0"
         transform="scale(0.6,0.6)"
         d="M 8.7185878,4.0337352 -2.2072895,0.01601326 8.7185884,-4.0017078 c -1.7454984,2.3720609 -1.7354408,5.6174519 -6e-7,8.035443 z"
         style="fill-rule:evenodd;stroke-width:0.625;stroke-linejoin:round"
         id="path8670" />
    </marker>
    <marker
       style="overflow:visible"
       id="marker8672"
       refX="0"
       refY="0"
       orient="auto"
       inkscape:stockid="Arrow2Mstart">
      <path
         inkscape:connector-curvature="0"
         transform="scale(0.6,0.6)"
         d="M 8.7185878,4.0337352 -2.2072895,0.01601326 8.7185884,-4.0017078 c -1.7454984,2.3720609 -1.7354408,5.6174519 -6e-7,8.035443 z"
         style="fill-rule:evenodd;stroke-width:0.625;stroke-linejoin:round"
         id="path8674" />
    </marker>
    <marker
       style="overflow:visible"
       id="Arrow2Mstart-2"
       refX="0"
       refY="0"
       orient="auto"
       inkscape:stockid="Arrow2Mstart">
      <path
         inkscape:connector-curvature="0"
         transform="scale(0.6,0.6)"
         d="M 8.7185878,4.0337352 -2.2072895,0.01601326 8.7185884,-4.0017078 c -1.7454984,2.3720609 -1.7354408,5.6174519 -6e-7,8.035443 z"
         style="fill-rule:evenodd;stroke-width:0.625;stroke-linejoin:round"
         id="path26631-9" />
    </marker>
    <marker
       style="overflow:visible"
       id="Arrow2MendV8"
       refX="0"
       refY="0"
       orient="auto"
       inkscape:stockid="Arrow2MendV8">
      <path
         transform="scale(-0.6,-0.6)"
         d="M 8.7185878,4.0337352 -2.2072895,0.01601326 8.7185884,-4.0017078 c -1.7454984,2.3720609 -1.7354408,5.6174519 -6e-7,8.035443 z"
         style="fill:#ff6600;fill-rule:evenodd;stroke:#ff6600;stroke-width:0.625;stroke-linejoin:round"
         id="path6947"
         inkscape:connector-curvature="0" />
    </marker>
    <marker
       style="overflow:visible"
       id="Arrow2MendV8-3"
       refX="0"
       refY="0"
       orient="auto"
       inkscape:stockid="Arrow2MendV8">
      <path
         transform="scale(-0.6,-0.6)"
         d="M 8.7185878,4.0337352 -2.2072895,0.01601326 8.7185884,-4.0017078 c -1.7454984,2.3720609 -1.7354408,5.6174519 -6e-7,8.035443 z"
         style="fill:#ff6600;fill-rule:evenodd;stroke:#ff6600;stroke-width:0.625;stroke-linejoin:round"
         id="path6947-3"
         inkscape:connector-curvature="0" />
    </marker>
    <marker
       style="overflow:visible"
       id="Arrow2MendV"
       refX="0"
       refY="0"
       orient="auto"
       inkscape:stockid="Arrow2MendV">
      <path
         transform="scale(-0.6,-0.6)"
         d="M 8.7185878,4.0337352 -2.2072895,0.01601326 8.7185884,-4.0017078 c -1.7454984,2.3720609 -1.7354408,5.6174519 -6e-7,8.035443 z"
         style="fill:#0000ff;fill-rule:evenodd;stroke:#0000ff;stroke-width:0.625;stroke-linejoin:round"
         id="path4926"
         inkscape:connector-curvature="0" />
    </marker>
    <marker
       style="overflow:visible"
       id="Arrow2MendV8-9"
       refX="0"
       refY="0"
       orient="auto"
       inkscape:stockid="Arrow2MendV8">
      <path
         transform="scale(-0.6,-0.6)"
         d="M 8.7185878,4.0337352 -2.2072895,0.01601326 8.7185884,-4.0017078 c -1.7454984,2.3720609 -1.7354408,5.6174519 -6e-7,8.035443 z"
         style="fill:#ff6600;fill-rule:evenodd;stroke:#ff6600;stroke-width:0.625;stroke-linejoin:round"
         id="path6947-9"
         inkscape:connector-curvature="0" />
    </marker>
    <marker
       style="overflow:visible"
       id="Arrow2MendV8-8"
       refX="0"
       refY="0"
       orient="auto"
       inkscape:stockid="Arrow2MendV8">
      <path
         transform="scale(-0.6,-0.6)"
         d="M 8.7185878,4.0337352 -2.2072895,0.01601326 8.7185884,-4.0017078 c -1.7454984,2.3720609 -1.7354408,5.6174519 -6e-7,8.035443 z"
         style="fill:#ff6600;fill-rule:evenodd;stroke:#ff6600;stroke-width:0.625;stroke-linejoin:round"
         id="path6947-0"
         inkscape:connector-curvature="0" />
    </marker>
    <marker
       style="overflow:visible"
       id="Arrow2MendV8-8f"
       refX="0"
       refY="0"
       orient="auto"
       inkscape:stockid="Arrow2MendV8-8f">
      <path
         transform="scale(-0.6,-0.6)"
         d="M 8.7185878,4.0337352 -2.2072895,0.01601326 8.7185884,-4.0017078 c -1.7454984,2.3720609 -1.7354408,5.6174519 -6e-7,8.035443 z"
         style="fill:#dc3912;fill-rule:evenodd;stroke:#dc3912;stroke-width:0.625;stroke-linejoin:round"
         id="path10265"
         inkscape:connector-curvature="0" />
    </marker>
    <marker
       style="overflow:visible"
       id="Arrow2MendV8-8f-4"
       refX="0"
       refY="0"
       orient="auto"
       inkscape:stockid="Arrow2MendV8-8f">
      <path
         transform="scale(-0.6,-0.6)"
         d="M 8.7185878,4.0337352 -2.2072895,0.01601326 8.7185884,-4.0017078 c -1.7454984,2.3720609 -1.7354408,5.6174519 -6e-7,8.035443 z"
         style="fill:#dc3912;fill-rule:evenodd;stroke:#dc3912;stroke-width:0.625;stroke-linejoin:round"
         id="path10265-3"
         inkscape:connector-curvature="0" />
    </marker>
    <marker
       style="overflow:visible"
       id="Arrow2MstartG"
       refX="0"
       refY="0"
       orient="auto"
       inkscape:stockid="Arrow2MstartG">
      <path
         inkscape:connector-curvature="0"
         transform="scale(0.6,0.6)"
         d="M 8.7185878,4.0337352 -2.2072895,0.01601326 8.7185884,-4.0017078 c -1.7454984,2.3720609 -1.7354408,5.6174519 -6e-7,8.035443 z"
         style="fill:#c8ab37;fill-rule:evenodd;stroke:#c8ab37;stroke-width:0.625;stroke-linejoin:round"
         id="path10629" />
    </marker>
    <marker
       style="overflow:visible"
       id="Arrow2MstartGR"
       refX="0"
       refY="0"
       orient="auto"
       inkscape:stockid="Arrow2MstartGR">
      <path
         inkscape:connector-curvature="0"
         transform="scale(0.6,0.6)"
         d="M 8.7185878,4.0337352 -2.2072895,0.01601326 8.7185884,-4.0017078 c -1.7454984,2.3720609 -1.7354408,5.6174519 -6e-7,8.035443 z"
         style="fill:#a0892c;fill-rule:evenodd;stroke:#a0892c;stroke-width:0.625;stroke-linejoin:round"
         id="path10772" />
    </marker>
    <marker
       style="overflow:visible"
       id="Arrow2MstartGR-4"
       refX="0"
       refY="0"
       orient="auto"
       inkscape:stockid="Arrow2MstartGR">
      <path
         inkscape:connector-curvature="0"
         transform="scale(0.6,0.6)"
         d="M 8.7185878,4.0337352 -2.2072895,0.01601326 8.7185884,-4.0017078 c -1.7454984,2.3720609 -1.7354408,5.6174519 -6e-7,8.035443 z"
         style="fill:#a0892c;fill-rule:evenodd;stroke:#a0892c;stroke-width:0.625;stroke-linejoin:round"
         id="path10772-1" />
    </marker>
    <marker
       style="overflow:visible"
       id="Arrow2MendV8-8f-0"
       refX="0"
       refY="0"
       orient="auto"
       inkscape:stockid="Arrow2MendV8-8f">
      <path
         transform="scale(-0.6,-0.6)"
         d="M 8.7185878,4.0337352 -2.2072895,0.01601326 8.7185884,-4.0017078 c -1.7454984,2.3720609 -1.7354408,5.6174519 -6e-7,8.035443 z"
         style="fill:#dc3912;fill-rule:evenodd;stroke:#dc3912;stroke-width:0.625;stroke-linejoin:round"
         id="path10265-5"
         inkscape:connector-curvature="0" />
    </marker>
    <marker
       style="overflow:visible"
       id="Arrow2MstartGR6"
       refX="0"
       refY="0"
       orient="auto"
       inkscape:stockid="Arrow2MstartGR6">
      <path
         inkscape:connector-curvature="0"
         transform="scale(0.6,0.6)"
         d="M 8.7185878,4.0337352 -2.2072895,0.01601326 8.7185884,-4.0017078 c -1.7454984,2.3720609 -1.7354408,5.6174519 -6e-7,8.035443 z"
         style="fill:#88aa00;fill-rule:evenodd;stroke:#88aa00;stroke-width:0.625;stroke-linejoin:round"
         id="path11633" />
    </marker>
    <marker
       style="overflow:visible"
       id="Arrow2MstartGR6-4"
       refX="0"
       refY="0"
       orient="auto"
       inkscape:stockid="Arrow2MstartGR6">
      <path
         inkscape:connector-curvature="0"
         transform="scale(0.6,0.6)"
         d="M 8.7185878,4.0337352 -2.2072895,0.01601326 8.7185884,-4.0017078 c -1.7454984,2.3720609 -1.7354408,5.6174519 -6e-7,8.035443 z"
         style="fill:#88aa00;fill-rule:evenodd;stroke:#88aa00;stroke-width:0.625;stroke-linejoin:round"
         id="path11633-2" />
    </marker>
    <marker
       style="overflow:visible"
       id="Arrow2MendV8-8f2"
       refX="0"
       refY="0"
       orient="auto"
       inkscape:stockid="Arrow2MendV8-8f2">
      <path
         transform="scale(-0.6,-0.6)"
         d="M 8.7185878,4.0337352 -2.2072895,0.01601326 8.7185884,-4.0017078 c -1.7454984,2.3720609 -1.7354408,5.6174519 -6e-7,8.035443 z"
         style="fill:#ffcc00;fill-rule:evenodd;stroke:#ffcc00;stroke-width:0.625;stroke-linejoin:round"
         id="path12069"
         inkscape:connector-curvature="0" />
    </marker>
    <marker
       style="overflow:visible"
       id="Arrow2MendV8-8f2l"
       refX="0"
       refY="0"
       orient="auto"
       inkscape:stockid="Arrow2MendV8-8f2l">
      <path
         transform="scale(-0.6,-0.6)"
         d="M 8.7185878,4.0337352 -2.2072895,0.01601326 8.7185884,-4.0017078 c -1.7454984,2.3720609 -1.7354408,5.6174519 -6e-7,8.035443 z"
         style="fill:#806600;fill-rule:evenodd;stroke:#806600;stroke-width:0.625;stroke-linejoin:round"
         id="path4781"
         inkscape:connector-curvature="0" />
    </marker>
  </defs>
  <metadata
     id="metadata8710">
    <rdf:RDF>
      <cc:Work
         rdf:about="">
        <dc:format>image/svg+xml</dc:format>
        <dc:type
           rdf:resource="http://purl.org/dc/dcmitype/StillImage" />
        <dc:title />
      </cc:Work>
    </rdf:RDF>
  </metadata>
  <g
     inkscape:label="Layer 1"
     inkscape:groupmode="layer"
     id="layer1"
     transform="translate(369.125,-133.97061)">
    <path
       style="fill:#6c5d53;stroke:none"
       d="m -286.97743,558.06718 921.02785,-246.78864 0,248.15044 z"
       id="path10971"
       inkscape:connector-curvature="0" />
    <path
       inkscape:connector-curvature="0"
       id="path25833-4-7"
       d="M 364.64314,350.95474 532.29642,306.03218"
       style="fill:#ffcc00;fill-opacity:1;stroke:#88aa00;stroke-width:6;stroke-linecap:butt;stroke-linejoin:miter;stroke-miterlimit:4;stroke-opacity:1;stroke-dasharray:none;marker-start:url(#Arrow2MstartGR6);display:inline" />
    <path
       inkscape:connector-curvature="0"
       id="path25833-4-7-4-1"
       d="M 595.02138,163.88434 335.2089,233.5009"
       style="color:#000000;fill:#ff6600;fill-opacity:1;fill-rule:nonzero;stroke:#dc3912;stroke-width:6;stroke-linecap:butt;stroke-linejoin:miter;stroke-miterlimit:4;stroke-opacity:1;stroke-dasharray:none;stroke-dashoffset:0;marker:none;marker-end:url(#Arrow2MendV8-8f);visibility:visible;display:inline;overflow:visible;enable-background:accumulate" />
    <g
       id="g5381"
       transform="matrix(6.8004668,0,0,-6.642008,-2260.6335,4877.6097)"
       xml:space="preserve"
       stroke-miterlimit="10.433"
       font-style="normal"
       font-variant="normal"
       font-weight="normal"
       font-stretch="normal"
       font-size-adjust="none"
       letter-spacing="normal"
       word-spacing="normal"
       ns0:text="$$\\sf f_d$$"
       ns0:preamble="/home/jmmauricio-s/preamble_beamer.tex"
       style="font-style:normal;font-variant:normal;font-weight:normal;font-stretch:normal;letter-spacing:normal;word-spacing:normal;text-anchor:start;fill:#dc3912;fill-opacity:1;stroke:#000000;stroke-width:0.5951699;stroke-linecap:butt;stroke-linejoin:miter;stroke-miterlimit:10.43299961;stroke-opacity:1;stroke-dasharray:none;stroke-dashoffset:0;display:inline"><path
         style="fill:#dc3912;fill-opacity:1;stroke-width:0"
         inkscape:connector-curvature="0"
         d="m 393.36,710.96 h 1.09 v 0.58 h -1.12 v 1.18 c 0,0.73 0.66,0.8 0.92,0.8 0.2,0 0.47,-0.02 0.81,-0.17 v 0.67 c -0.12,0.03 -0.43,0.11 -0.8,0.11 -0.93,0 -1.65,-0.71 -1.65,-1.7 v -0.89 h -0.74 v -0.58 h 0.74 v -3.84 h 0.75 z"
         id="path5383" /><path
         style="fill:#dc3912;fill-opacity:1;stroke-width:0"
         inkscape:connector-curvature="0"
         d="m 397.87,710.46 h -0.58 v -2.04 l -0.02,-0.45 v -1.48 c -0.18,-0.28 -0.44,-0.47 -0.78,-0.47 -0.48,0 -0.98,0.34 -0.98,1.15 0,0.87 0.59,1.16 1.06,1.16 0.28,0 0.52,-0.12 0.7,-0.36 l 0.02,0.45 c -0.45,0.33 -0.9,0.37 -1.1,0.37 -0.73,0 -1.29,-0.73 -1.29,-1.62 0,-0.88 0.55,-1.61 1.27,-1.61 0.43,0 0.83,0.2 1.1,0.43 v -0.36 h 0.6 z"
         id="path5385" /></g>    <rect
       ry="0.81966913"
       rx="0.81966913"
       y="65.041763"
       x="4.038044"
       height="10"
       width="10"
       id="rect2985-2"
       style="fill:#3366cc;fill-opacity:1;fill-rule:evenodd;stroke:none;display:inline" />
    <rect
       ry="0.81966913"
       rx="0.81966913"
       y="65.041763"
       x="14.678074"
       height="10"
       width="10"
       id="rect2985-7-6"
       style="fill:#dc3912;fill-opacity:1;fill-rule:evenodd;stroke:none;display:inline" />
    <rect
       ry="0.81966913"
       rx="0.81966913"
       y="65.041763"
       x="25.318108"
       height="10"
       width="10"
       id="rect2985-8"
       style="fill:#ff9900;fill-opacity:1;fill-rule:evenodd;stroke:none;display:inline" />
    <rect
       ry="0.81966913"
       rx="0.81966913"
       y="65.041763"
       x="35.958138"
       height="10"
       width="10"
       id="rect2985-6-2"
       style="fill:#109618;fill-opacity:1;fill-rule:evenodd;stroke:none;display:inline" />
    <rect
       ry="0.81966913"
       rx="0.81966913"
       y="65.041763"
       x="46.598164"
       height="10"
       width="10"
       id="rect2985-88"
       style="fill:#990099;fill-opacity:1;fill-rule:evenodd;stroke:none;display:inline" />
    <rect
       ry="0.81966913"
       rx="0.81966913"
       y="65.041763"
       x="57.238194"
       height="10"
       width="10"
       id="rect2985-4"
       style="fill:#0099c6;fill-opacity:1;fill-rule:evenodd;stroke:none;display:inline" />
    <g
       id="g8908"
       transform="matrix(6.8004668,0,0,-6.642008,-2825.3298,4948.5401)"
       xml:space="preserve"
       stroke-miterlimit="10.433"
       font-style="normal"
       font-variant="normal"
       font-weight="normal"
       font-stretch="normal"
       font-size-adjust="none"
       letter-spacing="normal"
       word-spacing="normal"
       ns0:text="$$\\sf f_w$$"
       ns0:preamble="/home/jmmauricio-s/preamble_beamer.tex"
       style="font-style:normal;font-variant:normal;font-weight:normal;font-stretch:normal;letter-spacing:normal;word-spacing:normal;text-anchor:start;fill:#ff6600;fill-opacity:1;fill-rule:evenodd;stroke:#109618;stroke-width:0.5951699;stroke-linecap:butt;stroke-linejoin:miter;stroke-miterlimit:10.43299961;stroke-opacity:1;stroke-dasharray:none;stroke-dashoffset:0;display:inline"><path
         style="fill:#ff6600;fill-opacity:1;stroke-width:0"
         inkscape:connector-curvature="0"
         d="m 392.69,710.96 h 1.09 v 0.58 h -1.12 v 1.18 c 0,0.73 0.66,0.8 0.92,0.8 0.2,0 0.47,-0.02 0.81,-0.17 v 0.67 c -0.12,0.03 -0.43,0.11 -0.8,0.11 -0.93,0 -1.65,-0.71 -1.65,-1.7 v -0.89 h -0.74 v -0.58 h 0.74 v -3.84 h 0.75 z"
         id="path8910" /><path
         style="fill:#ff6600;fill-opacity:1;stroke-width:0"
         inkscape:connector-curvature="0"
         d="m 398.92,708.72 h -0.54 c -0.06,-0.2 -0.45,-1.37 -0.67,-2.1 -0.05,-0.2 -0.12,-0.42 -0.14,-0.58 h -0.01 c -0.04,0.29 -0.29,1.04 -0.3,1.09 l -0.52,1.59 h -0.53 c -0.2,-0.6 -0.72,-2.16 -0.78,-2.67 h 0 c -0.06,0.5 -0.57,2.04 -0.69,2.37 -0.05,0.17 -0.05,0.18 -0.09,0.3 h -0.57 l 1.02,-3.09 h 0.58 c 0.01,0.03 0.2,0.58 0.44,1.35 0.11,0.34 0.32,1.01 0.35,1.31 l 0.01,0.01 c 0.01,-0.14 0.06,-0.3 0.1,-0.47 0.05,-0.18 0.1,-0.36 0.15,-0.52 l 0.54,-1.68 h 0.64 z"
         id="path8912" /></g>    <path
       sodipodi:nodetypes="cc"
       style="fill:#ff6600;stroke:#ff6600;stroke-width:6.00000048;stroke-linecap:butt;stroke-linejoin:miter;stroke-miterlimit:4;stroke-opacity:1;stroke-dasharray:none;marker-start:none;marker-end:url(#Arrow2MendV8);display:inline"
       d="M -368.35134,421.09506 -30.708398,332.15114"
       id="path25833-1-0-2"
       inkscape:connector-curvature="0" />
    <path
       sodipodi:nodetypes="cc"
       style="fill:#0000ff;stroke:#0000ff;stroke-width:6;stroke-linecap:butt;stroke-linejoin:miter;stroke-miterlimit:4;stroke-opacity:1;stroke-dasharray:none;marker-start:none;marker-end:url(#Arrow2MendV);display:inline"
       d="M 169.14902,336.45478 463.44018,260.6839"
       id="path25833-1-0"
       inkscape:connector-curvature="0" />
    <g
       style="font-style:normal;font-variant:normal;font-weight:normal;font-stretch:normal;letter-spacing:normal;word-spacing:normal;text-anchor:start;fill:#0000ff;stroke:#000000;stroke-linecap:butt;stroke-linejoin:miter;stroke-miterlimit:10.43299961;stroke-opacity:1;stroke-dasharray:none;stroke-dashoffset:0;display:inline"
       ns0:preamble="/home/jmmauricio-s/preamble_beamer.tex"
       ns0:text="$$ \\sf \\nu$$"
       word-spacing="normal"
       letter-spacing="normal"
       font-size-adjust="none"
       font-stretch="normal"
       font-weight="normal"
       font-variant="normal"
       font-style="normal"
       stroke-miterlimit="10.433"
       xml:space="preserve"
       transform="matrix(4.5,0,0,-4.5,-1374.6331,3444.8933)"
       id="g5216"><path
         id="path5218"
         d="m 394.74,711.41 0,0 0,0 0,0 0,0 0,0 0,0.01 0,0 0,0 0,0.01 0,0 0,0.01 -0.01,0 0,0.01 0,0 0,0 0,0.01 -0.01,0 0,0.01 0,0 -0.01,0.01 0,0 -0.01,0.01 0,0 0,0 0,0 -0.01,0 0,0.01 0,0 -0.01,0 0,0 0,0 -0.01,0.01 0,0 0,0 -0.01,0 0,0 -0.01,0 0,0 -0.01,0 0,0 -0.01,0 0,0.01 -0.01,0 0,0 -0.01,0 c -0.23,0 -0.96,-0.08 -1.22,-0.1 -0.07,-0.01 -0.18,-0.02 -0.18,-0.2 0,-0.12 0.09,-0.12 0.24,-0.12 0.47,0 0.49,-0.07 0.49,-0.17 0,-0.07 -0.12,-0.54 -0.19,-0.81 l -0.6,-2.43 c -0.04,-0.15 -0.11,-0.43 -0.11,-0.45 0,-0.1 0.1,-0.12 0.16,-0.12 h 0.14 c 0.69,0.12 1.78,0.51 2.8,1.47 1.31,1.22 1.58,2.57 1.58,2.66 0,0.17 -0.12,0.27 -0.29,0.27 -0.07,0 -0.3,-0.04 -0.38,-0.33 -0.64,-2.26 -2.15,-3.37 -3.29,-3.74 z"
         inkscape:connector-curvature="0"
         style="fill:#0000ff;stroke-width:0" /></g>    <path
       inkscape:connector-curvature="0"
       id="path25833-4-7-8-9"
       d="M 169.14902,336.45478 30.602534,369.9637"
       style="color:#000000;fill:#806600;fill-opacity:1;fill-rule:nonzero;stroke:#806600;stroke-width:5.99999952;stroke-linecap:butt;stroke-linejoin:miter;stroke-miterlimit:4;stroke-opacity:1;stroke-dasharray:none;stroke-dashoffset:0;marker:none;marker-end:url(#Arrow2MendV8-8f2l);visibility:visible;display:inline;overflow:visible;enable-background:accumulate" />
    <g
       id="g11077"
       transform="matrix(6.8004668,0,0,-6.642008,-2573.2989,5112.5209)"
       xml:space="preserve"
       stroke-miterlimit="10.433"
       font-style="normal"
       font-variant="normal"
       font-weight="normal"
       font-stretch="normal"
       font-size-adjust="none"
       letter-spacing="normal"
       word-spacing="normal"
       ns0:text="$$\\sf f_\\beta$$"
       ns0:preamble="/home/jmmauricio-s/preamble_beamer.tex"
       style="font-style:normal;font-variant:normal;font-weight:normal;font-stretch:normal;letter-spacing:normal;word-spacing:normal;text-anchor:start;fill:#806600;fill-opacity:1;fill-rule:evenodd;stroke:#806600;stroke-width:0.5951699;stroke-linecap:butt;stroke-linejoin:miter;stroke-miterlimit:10.43299961;stroke-opacity:1;stroke-dasharray:none;stroke-dashoffset:0;display:inline"><path
         inkscape:connector-curvature="0"
         style="fill:#806600;stroke:#806600;stroke-width:0"
         d="m 392.83,710.96 h 1.09 v 0.58 h -1.12 v 1.18 c 0,0.73 0.67,0.8 0.93,0.8 0.19,0 0.46,-0.02 0.8,-0.17 v 0.67 c -0.12,0.03 -0.43,0.11 -0.8,0.11 -0.93,0 -1.65,-0.71 -1.65,-1.7 v -0.89 h -0.73 v -0.58 h 0.73 v -3.84 h 0.75 z"
         id="path11079" /><path
         inkscape:connector-curvature="0"
         style="fill:#806600;stroke:#806600;stroke-width:0"
         d="m 398.53,709.57 0,0.05 -0.01,0.06 0,0.05 -0.01,0.05 -0.02,0.05 -0.01,0.05 -0.02,0.05 -0.02,0.05 -0.02,0.04 -0.03,0.04 -0.03,0.04 -0.03,0.04 -0.03,0.04 -0.04,0.03 -0.03,0.04 -0.04,0.03 -0.04,0.03 -0.04,0.03 -0.05,0.02 -0.04,0.03 -0.05,0.02 -0.04,0.02 -0.05,0.02 -0.05,0.02 -0.06,0.01 -0.05,0.02 -0.05,0.01 -0.06,0.01 -0.05,0 -0.06,0.01 -0.05,0 -0.06,0 -0.01,-0.19 c 0.41,0 0.69,-0.22 0.69,-0.65 h 0 c 0,-0.37 -0.18,-0.91 -0.61,-1.15 -0.13,0.04 -0.27,0.09 -0.66,0.09 -0.24,0 -0.59,-0.02 -0.59,-0.27 0,-0.17 0.22,-0.2 0.57,-0.2 l 0.02,0.19 c -0.11,0 -0.28,0.01 -0.33,0.04 0.07,0.04 0.26,0.04 0.33,0.04 0.1,0 0.25,0 0.35,-0.03 h 0 c -0.1,-0.02 -0.15,-0.05 -0.35,-0.05 l -0.02,-0.19 c 0.24,0 0.45,0.04 0.67,0.1 0.2,-0.15 0.32,-0.43 0.32,-0.74 0,-1.01 -0.69,-1.76 -1.54,-1.76 -0.54,0 -0.92,0.33 -0.92,0.88 0,0.07 0,0.14 0.02,0.2 l 0.46,1.85 c 0.16,0.66 0.78,1.65 1.59,1.65 l 0.01,0.19 c -0.96,0 -1.66,-1.08 -1.83,-1.78 l -1.1,-4.39 c -0.01,-0.04 0.06,-0.08 0.1,-0.08 0.06,0 0.12,0.01 0.13,0.05 l 0.47,1.86 c 0.15,-0.32 0.48,-0.62 1.04,-0.62 0.98,0 2.08,0.7 2.08,1.77 0,0.4 -0.19,0.82 -0.54,1.05 0.34,0.22 0.79,0.61 0.79,1.18 z"
         id="path11081" /></g>    <rect
       style="color:#000000;fill:none;stroke:#000000;stroke-width:8.00000191;stroke-linecap:butt;stroke-linejoin:miter;stroke-miterlimit:4;stroke-opacity:1;stroke-dasharray:none;stroke-dashoffset:0;marker:none;visibility:visible;display:inline;overflow:visible;enable-background:accumulate"
       id="rect3855"
       width="350.20312"
       height="175.37468"
       x="-99.051025"
       y="287.24991"
       transform="matrix(0.96580919,-0.25925396,0.25838476,0.96604209,0,0)"
       rx="11.617352"
       ry="11.617352" />
    <g
       style="font-style:normal;font-variant:normal;font-weight:normal;font-stretch:normal;letter-spacing:normal;word-spacing:normal;text-anchor:start;fill:#88aa00;fill-opacity:1;fill-rule:evenodd;stroke:#88aa00;stroke-width:0.5951699;stroke-linecap:butt;stroke-linejoin:miter;stroke-miterlimit:10.43299961;stroke-opacity:1;stroke-dasharray:none;stroke-dashoffset:0;display:inline"
       ns0:preamble="/home/jmmauricio-s/preamble_beamer.tex"
       ns0:text="$$\\sf f_r$$"
       word-spacing="normal"
       letter-spacing="normal"
       font-size-adjust="none"
       font-stretch="normal"
       font-weight="normal"
       font-variant="normal"
       font-style="normal"
       stroke-miterlimit="10.433"
       xml:space="preserve"
       transform="matrix(6.8004668,0,0,-6.642008,-2157.3885,4967.8641)"
       id="g5006"><path
         id="path5008"
         d="m 393.95,710.96 h 1.1 v 0.58 h -1.13 v 1.18 c 0,0.73 0.67,0.8 0.93,0.8 0.2,0 0.46,-0.02 0.8,-0.17 v 0.67 c -0.12,0.03 -0.42,0.11 -0.79,0.11 -0.94,0 -1.66,-0.71 -1.66,-1.7 v -0.89 h -0.73 v -0.58 h 0.73 v -3.84 h 0.75 z"
         inkscape:connector-curvature="0"
         style="fill:#88aa00;fill-opacity:1;stroke-width:0" /><path
         id="path5010"
         d="m 396.42,707.11 0,0.07 0.01,0.07 0.01,0.06 0.01,0.07 0.01,0.06 0.02,0.06 0.02,0.05 0.03,0.06 0.03,0.05 0.03,0.05 0.03,0.05 0.03,0.05 0.04,0.04 0.04,0.04 0.04,0.04 0.04,0.04 0.05,0.04 0.04,0.03 0.05,0.03 0.05,0.03 0.05,0.03 0.05,0.02 0.05,0.02 0.06,0.02 0.05,0.02 0.06,0.02 0.06,0.01 0.05,0.01 0.06,0.01 0.06,0.01 0.05,0 0.06,0 v 0.52 c -0.58,-0.01 -1.01,-0.29 -1.29,-0.66 v 0.64 h -0.53 v -3.14 h 0.58 z"
         inkscape:connector-curvature="0"
         style="fill:#88aa00;fill-opacity:1;stroke-width:0" /></g>    <text
       xml:space="preserve"
       style="font-size:24px;font-style:normal;font-variant:normal;font-weight:normal;font-stretch:normal;line-height:125%;letter-spacing:0px;word-spacing:0px;fill:#000000;fill-opacity:1;stroke:none;font-family:Arial;-inkscape-font-specification:Arial"
       x="104.26228"
       y="434.07239"
       id="text5099"
       sodipodi:linespacing="125%"
       transform="matrix(0.96592583,-0.25881905,0.25881905,0.96592583,0,0)"><tspan
         sodipodi:role="line"
         id="tspan5101"
         x="104.26228"
         y="434.07239"
         style="font-size:60px">M</tspan></text>
  </g>
</svg>
