<?xml version="1.0" encoding="UTF-8" standalone="no"?>
<!-- Created with Inkscape (http://www.inkscape.org/) -->

<svg
   xmlns:ns0="http://www.iki.fi/pav/software/textext/"
   xmlns:dc="http://purl.org/dc/elements/1.1/"
   xmlns:cc="http://creativecommons.org/ns#"
   xmlns:rdf="http://www.w3.org/1999/02/22-rdf-syntax-ns#"
   xmlns:svg="http://www.w3.org/2000/svg"
   xmlns="http://www.w3.org/2000/svg"
   xmlns:sodipodi="http://sodipodi.sourceforge.net/DTD/sodipodi-0.dtd"
   xmlns:inkscape="http://www.inkscape.org/namespaces/inkscape"
   sodipodi:docname="im_bomba.svg"
   inkscape:version="0.48.5 r10040"
   version="1.1"
   id="svg6226"
   height="131.36023"
   width="169.52191">
  <sodipodi:namedview
     id="base"
     pagecolor="#ffffff"
     bordercolor="#666666"
     borderopacity="1.0"
     inkscape:pageopacity="0.0"
     inkscape:pageshadow="2"
     inkscape:zoom="3.959798"
     inkscape:cx="135.68645"
     inkscape:cy="51.4249"
     inkscape:document-units="px"
     inkscape:current-layer="layer1"
     showgrid="false"
     fit-margin-top="0"
     fit-margin-left="0"
     fit-margin-right="0"
     fit-margin-bottom="0"
     inkscape:window-width="1920"
     inkscape:window-height="1029"
     inkscape:window-x="0"
     inkscape:window-y="0"
     inkscape:window-maximized="1"
     showguides="true"
     inkscape:guide-bbox="true" />
  <defs
     id="defs6228" />
  <metadata
     id="metadata6231">
    <rdf:RDF>
      <cc:Work
         rdf:about="">
        <dc:format>image/svg+xml</dc:format>
        <dc:type
           rdf:resource="http://purl.org/dc/dcmitype/StillImage" />
        <dc:title />
      </cc:Work>
    </rdf:RDF>
  </metadata>
  <g
     transform="translate(-368.29059,-148.21738)"
     id="layer1"
     inkscape:groupmode="layer"
     inkscape:label="Layer 1">
    <path
       inkscape:connector-curvature="0"
       id="path2989"
       d="m 488.94156,148.21738 0,35 -84.6367,88.21429"
       style="fill:none;stroke:#000000;stroke-width:1px;stroke-linecap:butt;stroke-linejoin:miter;stroke-opacity:1"
       sodipodi:nodetypes="ccc" />
    <path
       inkscape:connector-curvature="0"
       id="path2987"
       d="m 537.30363,148.21738 0,45 -48.36207,0 -69.45812,72.14286"
       style="fill:none;stroke:#000000;stroke-width:1px;stroke-linecap:butt;stroke-linejoin:miter;stroke-opacity:1"
       sodipodi:nodetypes="cccc" />
    <path
       inkscape:connector-curvature="0"
       id="path2995"
       d="m 426.71378,257.02357 62.1798,-64.61526 24.02864,-0.0121 24.02863,-0.0121 0,-17.67857 0,-17.67857 -23.77463,0 -23.77463,0 -0.006,13.30357 -0.006,13.30357 -62.57994,64.96667 -14.90139,14.43096 0,4.05119 c 0,2.22815 0.0686,4.04419 0.15241,4.03565 0.0838,-0.009 -19.54526,21.44331 14.65363,-14.09509 l 0,0 z"
       style="color:#000000;fill:#00ffff;fill-opacity:1;fill-rule:evenodd;stroke:none;stroke-width:2;marker:none;visibility:visible;display:inline;overflow:visible;enable-background:accumulate"
       sodipodi:nodetypes="ccccccccccccscccc" />
    <path
       inkscape:connector-curvature="0"
       id="path4612-5-5-6-5-6-2"
       d="m 385.92727,225.7943 0,20"
       style="fill:none;stroke:#000000;stroke-width:2;stroke-linecap:butt;stroke-linejoin:miter;stroke-opacity:1" />
    <g
       id="g4601-3-4"
       transform="matrix(-1,0,0,-1,448.07013,403.1565)">
      <g
         id="g16145-1-5-7-4"
         transform="matrix(0,1,-1,0,422.36218,122.36218)">
        <g
           id="g15315-0-9-4-6"
           transform="translate(-35,2.6171874e-6)">
          <path
             d="m 70,392.35988 c 0,5.52061 4.477217,10.0023 9.999424,10.0023 5.522209,0 10.000576,-4.48169 10.000576,-10.0023 0,-5.52062 -4.478367,-9.9977 -10.000576,-9.9977 -5.522207,0 -9.999424,4.47708 -9.999424,9.9977"
             style="fill:none;stroke:#000000;stroke-width:1;stroke-linecap:round;stroke-linejoin:miter;stroke-miterlimit:6;stroke-opacity:1;stroke-dasharray:none;display:inline"
             id="path70904-5-5-7-8"
             inkscape:connector-curvature="0" />
          <path
             inkscape:connector-curvature="0"
             id="path15311-4-1-1-5"
             d="m 80,382.36218 0,-22.14286"
             style="fill:none;stroke:#000000;stroke-width:1px;stroke-linecap:butt;stroke-linejoin:miter;stroke-opacity:1"
             sodipodi:nodetypes="cc" />
          <g
             id="g70398-5-5-9-9"
             transform="matrix(1.1522065,0,0,1.25,67.784307,75.27218)" />
        </g>
      </g>
    </g>
    <path
       inkscape:connector-curvature="0"
       id="path8638-4-7-4"
       d="m 405.57013,235.7943 0,0"
       style="fill:none;stroke:#000000;stroke-width:1px;stroke-linecap:butt;stroke-linejoin:miter;stroke-opacity:1" />
    <text
       sodipodi:linespacing="125%"
       id="text6484"
       y="240.23582"
       x="418.0853"
       style="font-size:12.40966606px;font-style:normal;font-variant:normal;font-weight:normal;font-stretch:normal;text-align:center;line-height:125%;letter-spacing:0px;word-spacing:0px;text-anchor:middle;fill:#000000;fill-opacity:1;stroke:none;font-family:Courier;-inkscape-font-specification:Courier"
       xml:space="preserve"><tspan
         style="font-style:normal;font-variant:normal;font-weight:normal;font-stretch:normal;font-family:Arial;-inkscape-font-specification:Arial"
         y="240.23582"
         x="418.0853"
         id="tspan6486"
         sodipodi:role="line">M</tspan></text>
    <path
       inkscape:connector-curvature="0"
       id="path70904-5-5-7-8-3"
       style="fill:#ffffff;stroke:#000000;stroke-width:1;stroke-linecap:round;stroke-linejoin:miter;stroke-miterlimit:6;stroke-opacity:1;stroke-dasharray:none;display:inline"
       d="m 443.10905,245.68056 c 5.52061,0 10.0023,-4.47722 10.0023,-9.99942 0,-5.52221 -4.48169,-10.00058 -10.0023,-10.00058 -5.52062,0 -9.9977,4.47837 -9.9977,10.00058 0,5.5222 4.47708,9.99942 9.9977,9.99942" />
    <path
       style="fill:none;stroke:#000000;stroke-width:1px;stroke-linecap:butt;stroke-linejoin:miter;stroke-opacity:1"
       d="m 433.11135,235.68056 -5,0"
       id="path15311-4-1-1-5-32"
       inkscape:connector-curvature="0" />
    <text
       xml:space="preserve"
       style="font-size:12.40966606px;font-style:normal;font-variant:normal;font-weight:normal;font-stretch:normal;text-align:center;line-height:125%;letter-spacing:0px;word-spacing:0px;text-anchor:middle;fill:#000000;fill-opacity:1;stroke:none;font-family:Courier;-inkscape-font-specification:Courier"
       x="443.12653"
       y="240.12204"
       id="text6484-41"
       sodipodi:linespacing="125%"><tspan
         sodipodi:role="line"
         id="tspan6486-6"
         x="443.12653"
         y="240.12204"
         style="font-style:normal;font-variant:normal;font-weight:normal;font-stretch:normal;font-family:Arial;-inkscape-font-specification:Arial">B</tspan></text>
    <text
       xml:space="preserve"
       style="font-size:8px;font-style:normal;font-variant:normal;font-weight:normal;font-stretch:normal;text-align:center;line-height:125%;letter-spacing:0px;word-spacing:0px;text-anchor:middle;fill:#000000;fill-opacity:1;stroke:none;font-family:Courier;-inkscape-font-specification:Courier"
       x="116.60714"
       y="115.21194"
       id="text6994"
       sodipodi:linespacing="125%"
       transform="translate(306.57663,191.19937)"><tspan
         sodipodi:role="line"
         id="tspan6996"
         x="116.60714"
         y="115.21194" /></text>
    <text
       xml:space="preserve"
       x="602.66754"
       y="251.03535"
       id="text6969-0"
       style="font-size:4.76190472px"><tspan
         sodipodi:role="line"
         id="tspan6971-7"
         x="602.66754"
         y="251.03535"
         style="font-size:4px;font-style:normal;font-variant:normal;font-weight:normal;font-stretch:normal;baseline-shift:baseline;font-family:Arial;-inkscape-font-specification:Arial">¿V<tspan
   style="font-size:4px;baseline-shift:sub"
   id="tspan7021">B</tspan> en el arranque?</tspan></text>
    <text
       xml:space="preserve"
       x="603.12421"
       y="259.30014"
       id="text6969-0-0"
       style="font-size:4.76190472px"><tspan
         sodipodi:role="line"
         id="tspan6971-7-4"
         x="603.12421"
         y="259.30014"
         style="font-size:4px;font-style:normal;font-variant:normal;font-weight:normal;font-stretch:normal;baseline-shift:baseline;font-family:Arial;-inkscape-font-specification:Arial">¿p<tspan
   style="font-size:65.00091553%;baseline-shift:sub"
   id="tspan7048">m</tspan> en el punto de funcionamiento?</tspan></text>
    <path
       sodipodi:nodetypes="cc"
       inkscape:connector-curvature="0"
       id="path6830"
       d="m 461.26973,221.97349 -7.90956,-2.04715"
       style="fill:none;stroke:#000000;stroke-width:1px;stroke-linecap:butt;stroke-linejoin:miter;stroke-opacity:1" />
    <path
       sodipodi:nodetypes="cc"
       inkscape:connector-curvature="0"
       id="path6832"
       d="m 458.13005,225.8706 -1.15778,-9.26959"
       style="fill:none;stroke:#000000;stroke-width:1px;stroke-linecap:butt;stroke-linejoin:miter;stroke-opacity:1" />
    <path
       inkscape:connector-curvature="0"
       id="path6834"
       d="m 455.08241,217.84866 -2.25423,-2.99867"
       style="fill:none;stroke:#000000;stroke-width:1px;stroke-linecap:butt;stroke-linejoin:miter;stroke-opacity:1" />
    <path
       inkscape:connector-curvature="0"
       id="path6836"
       d="m 454.76264,212.72923 -4.08109,4.28458"
       style="fill:none;stroke:#000000;stroke-width:1px;stroke-linecap:butt;stroke-linejoin:miter;stroke-opacity:1" />
    <path
       inkscape:connector-curvature="0"
       id="path6838"
       d="m 461.16107,222.17266 -3.30335,3.37971"
       style="fill:none;stroke:#000000;stroke-width:1px;stroke-linecap:butt;stroke-linejoin:miter;stroke-opacity:1" />
    <path
       sodipodi:nodetypes="cc"
       inkscape:connector-curvature="0"
       id="path6840"
       d="m 456.87306,216.46172 -3.4137,3.60389"
       style="fill:none;stroke:#000000;stroke-width:1px;stroke-linecap:butt;stroke-linejoin:miter;stroke-opacity:1" />
    <path
       style="fill:none;stroke:#000000;stroke-width:1px;stroke-linecap:butt;stroke-linejoin:miter;stroke-opacity:1"
       d="m 119.64286,40.53936 0,20.714286 -45.000002,0 0,-23.214286"
       id="path3235"
       inkscape:connector-curvature="0"
       transform="translate(306.57663,217.82761)" />
    <rect
       style="opacity:0.98999999;color:#000000;fill:#00ffff;fill-opacity:1;fill-rule:evenodd;stroke:none;stroke-width:2;marker:none;visibility:visible;display:inline;overflow:visible;enable-background:accumulate"
       id="rect3237"
       width="43.75"
       height="22.857143"
       x="75.35714"
       y="38.396503"
       transform="translate(306.57663,217.82761)" />
    <g
       id="g3838"
       transform="matrix(0.54014637,0,0,-0.58714269,248.75727,630.55833)"
       xml:space="preserve"
       stroke-miterlimit="10.433"
       font-style="normal"
       font-variant="normal"
       font-weight="normal"
       font-stretch="normal"
       font-size-adjust="none"
       letter-spacing="normal"
       word-spacing="normal"
       ns0:text="\\sf Red El\\\'ectrica\\\n$ \\sf 420\\, V$  \\\\\n\n"
       ns0:preamble="/home/jmmauricio/Documents/public/jmmauricio6/quilombo/svg/serif_inkscape_template.tex"
       style="font-style:normal;font-variant:normal;font-weight:normal;font-stretch:normal;letter-spacing:normal;word-spacing:normal;text-anchor:start;fill:none;stroke:#000000;stroke-width:1.99767554;stroke-linecap:butt;stroke-linejoin:miter;stroke-miterlimit:10.43299961;stroke-opacity:1;stroke-dasharray:none;stroke-dashoffset:0;display:inline"><path
         style="fill:#000000;stroke-width:0"
         inkscape:connector-curvature="0"
         d="m 227.6,710.36 0.1,0.03 0.09,0.03 0.09,0.04 0.09,0.03 0.08,0.04 0.09,0.04 0.08,0.04 0.08,0.05 0.07,0.04 0.08,0.05 0.07,0.05 0.07,0.05 0.06,0.06 0.06,0.05 0.06,0.06 0.06,0.06 0.05,0.06 0.06,0.06 0.04,0.06 0.05,0.06 0.04,0.07 0.04,0.07 0.03,0.06 0.03,0.07 0.03,0.07 0.02,0.07 0.02,0.07 0.02,0.07 0.01,0.08 0.01,0.07 0.01,0.08 0,0.07 c 0,0.99 -1.08,1.85 -2.5,1.85 l -0.11,-0.56 c 1.15,0 1.81,-0.58 1.81,-1.29 0,-0.7 -0.64,-1.29 -1.81,-1.29 h -1.44 v 2.58 h 1.44 l 0.11,0.56 h -2.4 v -6.9 h 0.85 v 3.15 h 1.58 l 1.86,-3.15 h 0.89 z"
         id="path3840" /><path
         style="fill:#000000;stroke-width:0"
         inkscape:connector-curvature="0"
         d="m 233.99,709.3 -0.01,0.03 0,0.04 0,0.04 0,0.03 0,0.05 0,0.04 0,0.04 0,0.05 -0.01,0.05 0,0.05 0,0.05 -0.01,0.05 0,0.06 -0.01,0.05 -0.01,0.06 -0.01,0.05 -0.01,0.06 -0.01,0.06 -0.01,0.06 -0.02,0.05 -0.01,0.06 -0.02,0.06 -0.02,0.06 -0.02,0.06 -0.02,0.06 -0.02,0.06 -0.03,0.06 -0.02,0.06 -0.03,0.06 -0.03,0.06 -0.04,0.05 -0.03,0.06 c -0.41,0.61 -1.02,0.73 -1.38,0.73 -1.1,0 -2,-1.06 -2,-2.34 0,-1.31 0.96,-2.35 2.15,-2.35 0.63,0 1.2,0.23 1.59,0.51 l -0.07,0.65 c -0.62,-0.52 -1.28,-0.56 -1.51,-0.56 -0.79,0 -1.43,0.71 -1.46,1.68 l 0.05,0.55 c 0.16,0.75 0.69,1.25 1.25,1.25 0.52,0 1.08,-0.34 1.21,-1.25 h -2.46 l -0.05,-0.55 z"
         id="path3842" /><path
         style="fill:#000000;stroke-width:0"
         inkscape:connector-curvature="0"
         d="m 238.61,714.02 h -0.74 v -2.92 c -0.53,0.44 -1.09,0.55 -1.46,0.55 -0.98,0 -1.76,-1.04 -1.76,-2.32 0,-1.3 0.77,-2.31 1.71,-2.31 0.33,0 0.92,0.08 1.48,0.62 l -0.33,0.26 c -0.23,-0.2 -0.48,-0.28 -0.74,-0.28 -0.62,0 -1.34,0.47 -1.34,1.7 0,1.31 0.85,1.72 1.44,1.72 0.45,0 0.75,-0.23 0.97,-0.55 v -1.98 c 0,-0.14 -0.02,-0.32 -0.33,-0.61 l 0.33,-0.26 v -0.52 h 0.77 z"
         id="path3844" /><path
         style="fill:#000000;stroke-width:0"
         inkscape:connector-curvature="0"
         d="M 247.86,710.39 V 711 h -3.28 v 2.35 h 1.37 c 0.12,0 0.24,-0.01 0.36,-0.01 h 1.82 v 0.65 h -4.44 v -6.87 h 4.58 v 0.71 h -1.25 c -0.12,0 -0.24,-0.01 -0.36,-0.01 h -2.08 v 2.57 z"
         id="path3846" /><polygon
         style="fill:#000000;stroke-width:0"
         points="249.51,714.02 249.51,707.12 250.26,707.12 250.26,714.02 "
         id="polygon3848" /><polygon
         style="fill:#000000;stroke-width:0"
         points="254.18,714.02 252.86,712.36 253.47,712.36 254.96,714.02 "
         id="polygon3850" /><path
         style="fill:#000000;stroke-width:0"
         inkscape:connector-curvature="0"
         d="m 255.21,709.3 0,0.03 0,0.04 0,0.04 0,0.03 -0.01,0.05 0,0.04 0,0.04 0,0.05 0,0.05 -0.01,0.05 0,0.05 -0.01,0.05 0,0.06 -0.01,0.05 -0.01,0.06 -0.01,0.05 -0.01,0.06 -0.01,0.06 -0.01,0.06 -0.01,0.05 -0.02,0.06 -0.02,0.06 -0.02,0.06 -0.02,0.06 -0.02,0.06 -0.02,0.06 -0.03,0.06 -0.02,0.06 -0.03,0.06 -0.03,0.06 -0.04,0.05 -0.03,0.06 c -0.41,0.61 -1.02,0.73 -1.37,0.73 -1.11,0 -2,-1.06 -2,-2.34 0,-1.31 0.95,-2.35 2.15,-2.35 0.62,0 1.19,0.23 1.58,0.51 l -0.06,0.65 c -0.63,-0.52 -1.29,-0.56 -1.51,-0.56 -0.8,0 -1.44,0.71 -1.47,1.68 l 0.05,0.55 c 0.16,0.75 0.69,1.25 1.26,1.25 0.51,0 1.07,-0.34 1.2,-1.25 h -2.46 l -0.05,-0.55 z"
         id="path3852" /><path
         style="fill:#000000;stroke-width:0"
         inkscape:connector-curvature="0"
         d="m 259.6,711.28 -0.06,0.03 -0.05,0.03 -0.05,0.03 -0.05,0.02 -0.05,0.03 -0.05,0.02 -0.05,0.02 -0.05,0.03 -0.04,0.02 -0.05,0.02 -0.04,0.01 -0.05,0.02 -0.09,0.03 -0.08,0.03 -0.09,0.02 -0.09,0.02 -0.09,0.01 -0.09,0.02 -0.05,0 -0.05,0 -0.05,0.01 -0.05,0 -0.05,0 -0.06,0 -0.05,0 -0.06,0.01 c -1.38,0 -2.19,-1.21 -2.19,-2.38 0,-1.23 0.91,-2.31 2.15,-2.31 0.54,0 1.09,0.14 1.62,0.5 l -0.06,0.67 c -0.5,-0.4 -1.04,-0.54 -1.55,-0.54 -0.82,0 -1.38,0.72 -1.38,1.69 0,0.77 0.37,1.73 1.42,1.73 0.52,0 0.86,-0.08 1.41,-0.44 z"
         id="path3854" /><path
         style="fill:#000000;stroke-width:0"
         inkscape:connector-curvature="0"
         d="m 261.68,710.96 h 1.41 v 0.58 h -1.41 v 1.26 H 261 v -1.26 h -0.87 v -0.58 h 0.84 v -2.65 c 0,-0.6 0.14,-1.29 0.82,-1.29 0.7,0 1.21,0.24 1.46,0.37 l -0.16,0.59 c -0.26,-0.21 -0.58,-0.33 -0.9,-0.33 -0.37,0 -0.51,0.3 -0.51,0.83 z"
         id="path3856" /><path
         style="fill:#000000;stroke-width:0"
         inkscape:connector-curvature="0"
         d="m 265.11,709.25 0,0.09 0.01,0.09 0.01,0.09 0.01,0.09 0.02,0.08 0.02,0.09 0.03,0.08 0.03,0.08 0.03,0.07 0.04,0.08 0.04,0.07 0.04,0.07 0.05,0.07 0.05,0.06 0.05,0.06 0.05,0.06 0.06,0.06 0.06,0.05 0.06,0.05 0.07,0.05 0.07,0.04 0.07,0.04 0.07,0.04 0.08,0.03 0.08,0.03 0.08,0.03 0.08,0.02 0.08,0.02 0.09,0.02 0.08,0.01 0.09,0.01 0.09,0 v 0.67 c -0.88,-0.01 -1.43,-0.5 -1.74,-0.96 v 0.9 h -0.69 v -4.47 h 0.74 z"
         id="path3858" /><polygon
         style="fill:#000000;stroke-width:0"
         points="267.68,713.88 267.68,713 268.57,713 268.57,713.88 "
         id="polygon3860" /><polygon
         style="fill:#000000;stroke-width:0"
         points="267.75,711.54 267.75,707.12 268.5,707.12 268.5,711.54 "
         id="polygon3862" /><path
         style="fill:#000000;stroke-width:0"
         inkscape:connector-curvature="0"
         d="m 273.4,711.28 -0.05,0.03 -0.05,0.03 -0.05,0.03 -0.06,0.02 -0.04,0.03 -0.05,0.02 -0.05,0.02 -0.05,0.03 -0.04,0.02 -0.05,0.02 -0.04,0.01 -0.05,0.02 -0.09,0.03 -0.08,0.03 -0.09,0.02 -0.09,0.02 -0.09,0.01 -0.1,0.02 -0.04,0 -0.05,0 -0.05,0.01 -0.05,0 -0.05,0 -0.06,0 -0.05,0 -0.06,0.01 c -1.38,0 -2.19,-1.21 -2.19,-2.38 0,-1.23 0.91,-2.31 2.15,-2.31 0.54,0 1.09,0.14 1.62,0.5 l -0.06,0.67 c -0.5,-0.4 -1.04,-0.54 -1.55,-0.54 -0.82,0 -1.38,0.72 -1.38,1.69 0,0.77 0.37,1.73 1.42,1.73 0.52,0 0.86,-0.08 1.4,-0.44 z"
         id="path3864" /><path
         style="fill:#000000;stroke-width:0"
         inkscape:connector-curvature="0"
         d="m 277.73,710 0,0.09 -0.01,0.09 -0.01,0.09 -0.01,0.09 -0.02,0.09 -0.02,0.08 -0.03,0.08 -0.03,0.08 -0.03,0.08 -0.03,0.07 -0.04,0.07 -0.05,0.07 -0.04,0.07 -0.05,0.06 -0.05,0.06 -0.06,0.06 -0.05,0.06 -0.06,0.05 -0.06,0.05 -0.07,0.04 -0.06,0.04 -0.07,0.04 -0.07,0.04 -0.08,0.03 -0.07,0.03 -0.08,0.02 -0.08,0.03 -0.08,0.01 -0.08,0.02 -0.08,0.01 -0.08,0 -0.09,0.01 c -0.65,0 -1.09,-0.16 -1.56,-0.43 l 0.06,-0.66 c 0.52,0.37 1.01,0.5 1.5,0.5 0.47,0 0.87,-0.4 0.87,-1.13 v -0.43 c -1.5,-0.02 -2.76,-0.44 -2.76,-1.31 0,-0.43 0.27,-1.23 1.13,-1.23 0.14,0 1.08,0.02 1.66,0.46 l -0.37,0.33 c -0.29,-0.18 -0.67,-0.19 -0.78,-0.19 -0.48,0 -0.92,0.23 -0.92,0.65 0,0.69 1.61,0.76 2.04,0.78 v -0.61 c 0,-0.19 0,-0.44 -0.34,-0.63 l 0.37,-0.33 v -0.36 h 0.74 z"
         id="path3866" /><path
         style="fill:#000000;stroke-width:0"
         inkscape:connector-curvature="0"
         d="m 285.57,708.82 h 0.98 v 0.61 h -0.98 v 4.21 h -0.91 l 0.18,-0.43 v -3.78 h -1.92 c 0.52,0.85 1.92,3.21 1.92,3.78 l -0.18,0.43 -2.51,-4.21 v -0.61 h 2.63 v -1.7 h 0.79 z"
         id="path3868" /><path
         style="fill:#000000;stroke-width:0"
         inkscape:connector-curvature="0"
         d="m 288.58,708.99 -1.23,-1.23 v -0.64 h 3.97 v 0.71 h -1.81 c -0.12,0 -0.24,-0.01 -0.36,-0.01 h -1.09 c 0.32,0.28 1.08,1.02 1.39,1.31 0.19,0.18 0.69,0.6 0.88,0.78 0.45,0.44 0.99,0.97 0.99,1.81 0,1.15 -0.81,2.14 -2.12,2.14 -1.14,0 -1.69,-0.77 -1.93,-1.63 0.12,-0.17 0.17,-0.23 0.19,-0.26 0.02,-0.02 0.12,-0.15 0.21,-0.29 0.2,0.77 0.48,1.54 1.39,1.54 0.93,0 1.44,-0.74 1.44,-1.51 0,-0.85 -0.57,-1.42 -1.15,-2.01 z"
         id="path3870" /><path
         style="fill:#000000;stroke-width:0"
         inkscape:connector-curvature="0"
         d="m 296.38,710.36 0,0.15 -0.01,0.15 0,0.16 -0.01,0.15 -0.01,0.16 -0.01,0.16 -0.01,0.16 -0.03,0.16 -0.02,0.16 -0.03,0.16 -0.04,0.17 -0.04,0.15 -0.05,0.16 -0.03,0.08 -0.03,0.08 -0.03,0.08 -0.04,0.07 -0.03,0.08 -0.04,0.08 c -0.41,0.74 -1.09,0.98 -1.6,0.98 l -0.01,-0.61 c 0.77,0 1.03,-0.75 1.1,-0.93 0.19,-0.56 0.19,-1.22 0.19,-1.84 0,-0.65 0,-1.28 -0.18,-1.9 -0.26,-0.91 -0.78,-1.07 -1.1,-1.07 h 0 c -0.52,0 -0.93,0.38 -1.13,1.09 -0.16,0.57 -0.17,1.11 -0.17,1.88 0,0.63 0,1.23 0.17,1.77 0.06,0.19 0.31,1 1.12,1 l 0.01,0.61 c -0.59,0 -1.29,-0.27 -1.69,-1.15 -0.33,-0.73 -0.38,-1.55 -0.38,-2.35 0,-0.78 0.04,-1.51 0.34,-2.23 0.39,-0.96 1.15,-1.22 1.72,-1.22 0.72,0 1.35,0.4 1.67,1.09 0.3,0.65 0.4,1.3 0.4,2.36 z"
         id="path3872" /><path
         style="fill:#000000;stroke-width:0"
         inkscape:connector-curvature="0"
         d="m 304.95,714.02 h -0.77 l -1.33,-3.4 c -0.16,-0.41 -0.9,-2.32 -0.99,-2.78 h -0.01 c -0.08,0.4 -0.51,1.49 -0.6,1.73 l -1.72,4.45 h -0.93 l 2.72,-6.9 h 0.92 z"
         id="path3874" /></g>    <path
       sodipodi:nodetypes="cc"
       inkscape:connector-curvature="0"
       id="path6830-2"
       d="m 429.30095,254.82734 -7.90956,-2.04715"
       style="fill:none;stroke:#000000;stroke-width:1px;stroke-linecap:butt;stroke-linejoin:miter;stroke-opacity:1" />
    <path
       sodipodi:nodetypes="cc"
       inkscape:connector-curvature="0"
       id="path6832-4"
       d="m 426.16127,258.72445 -1.15778,-9.26959"
       style="fill:none;stroke:#000000;stroke-width:1px;stroke-linecap:butt;stroke-linejoin:miter;stroke-opacity:1" />
    <path
       inkscape:connector-curvature="0"
       id="path6834-2"
       d="m 423.11363,250.70251 -2.25423,-2.99867"
       style="fill:none;stroke:#000000;stroke-width:1px;stroke-linecap:butt;stroke-linejoin:miter;stroke-opacity:1" />
    <path
       inkscape:connector-curvature="0"
       id="path6836-7"
       d="m 422.79386,245.58308 -4.08109,4.28458"
       style="fill:none;stroke:#000000;stroke-width:1px;stroke-linecap:butt;stroke-linejoin:miter;stroke-opacity:1" />
    <path
       inkscape:connector-curvature="0"
       id="path6838-6"
       d="m 429.19229,255.02651 -3.30335,3.37971"
       style="fill:none;stroke:#000000;stroke-width:1px;stroke-linecap:butt;stroke-linejoin:miter;stroke-opacity:1" />
    <path
       sodipodi:nodetypes="cc"
       inkscape:connector-curvature="0"
       id="path6840-2"
       d="m 424.90428,249.31557 -3.4137,3.60389"
       style="fill:none;stroke:#000000;stroke-width:1px;stroke-linecap:butt;stroke-linejoin:miter;stroke-opacity:1" />
    <g
       style="font-style:normal;font-variant:normal;font-weight:normal;font-stretch:normal;letter-spacing:normal;word-spacing:normal;text-anchor:start;fill:none;stroke:#000000;stroke-width:1.96829283;stroke-linecap:butt;stroke-linejoin:miter;stroke-miterlimit:10.43299961;stroke-opacity:1;stroke-dasharray:none;stroke-dashoffset:0;display:inline"
       ns0:preamble=""
       ns0:text="\\sf\nBomba: \\\\\nPar: $ \\sf M_b = A\\omega^2 + B $ \\\\\n\\\\\n$ \\sf A = 0.0197 \\,  \\frac{Ns^2}{m} $ \\\\\n$ \\sf B = 86.0 \\, Nm $"
       word-spacing="normal"
       letter-spacing="normal"
       font-size-adjust="none"
       font-stretch="normal"
       font-weight="normal"
       font-variant="normal"
       font-style="normal"
       stroke-miterlimit="10.433"
       xml:space="preserve"
       transform="matrix(0.57084434,0,0,-0.57227913,332.25721,650.34004)"
       id="content"><path
         id="path4073"
         d="m 224.4,714.02 v -6.9 h 2.62 c 1.44,0 2.48,0.9 2.48,1.87 0,0.87 -0.87,1.57 -1.92,1.74 0.91,0.23 1.65,0.81 1.65,1.56 0,0.92 -1.06,1.73 -2.47,1.73 l -0.28,-0.56 c 1.1,0 1.98,-0.52 1.98,-1.18 0,-0.6 -0.71,-1.27 -2.08,-1.27 h -1.16 v -0.61 h 1.44 c 1.06,0 2.04,-0.6 2.04,-1.4 0,-0.74 -0.88,-1.32 -1.96,-1.32 h -1.52 v 2.72 0.61 2.45 h 1.26 l 0.28,0.56 z"
         inkscape:connector-curvature="0"
         style="fill:#000000;stroke-width:0" /><path
         id="path4075"
         d="m 234.74,709.31 0,0.12 -0.01,0.13 -0.02,0.12 -0.02,0.12 -0.02,0.11 -0.03,0.12 -0.03,0.11 -0.04,0.11 -0.05,0.1 -0.05,0.11 -0.05,0.1 -0.06,0.09 -0.06,0.1 -0.06,0.09 -0.07,0.08 -0.08,0.09 -0.07,0.08 -0.08,0.07 -0.08,0.07 -0.09,0.07 -0.09,0.06 -0.09,0.06 -0.09,0.05 -0.1,0.05 -0.1,0.04 -0.1,0.04 -0.1,0.03 -0.11,0.03 -0.1,0.02 -0.11,0.01 -0.11,0.01 -0.11,0.01 -0.01,-0.61 c 0.7,0 1.41,-0.52 1.41,-1.69 0,-1.17 -0.67,-1.76 -1.41,-1.76 h 0 c -0.68,0 -1.4,0.56 -1.4,1.76 0,1.2 0.75,1.69 1.4,1.69 l 0.01,0.61 c -1.22,0 -2.19,-1.1 -2.19,-2.4 0,-1.31 1.02,-2.29 2.18,-2.29 1.19,0 2.19,1 2.19,2.29 z"
         inkscape:connector-curvature="0"
         style="fill:#000000;stroke-width:0" /><path
         id="path4077"
         d="m 242.15,710.09 0,0.06 0,0.06 -0.01,0.07 0,0.06 -0.01,0.07 0,0.07 -0.01,0.06 -0.01,0.07 -0.02,0.07 -0.01,0.06 -0.02,0.07 -0.02,0.06 -0.03,0.06 -0.03,0.07 -0.03,0.06 -0.03,0.05 -0.04,0.06 -0.04,0.06 -0.04,0.05 -0.05,0.05 -0.06,0.04 -0.05,0.05 -0.07,0.04 -0.06,0.03 -0.04,0.02 -0.03,0.02 -0.04,0.01 -0.04,0.02 -0.04,0.01 -0.04,0.01 -0.05,0.02 -0.04,0.01 -0.05,0 -0.04,0.01 -0.05,0.01 -0.05,0 -0.05,0.01 -0.05,0 -0.06,0 -0.05,0.01 c -0.6,0 -1.12,-0.28 -1.49,-0.82 -0.26,0.76 -0.95,0.82 -1.27,0.82 -0.72,0 -1.18,-0.41 -1.45,-0.77 v 0.71 h -0.72 v -4.47 h 0.78 v 2.44 c 0,0.67 0.27,1.48 1,1.48 0.93,0 0.98,-0.65 0.98,-1.02 v -2.9 h 0.77 v 2.44 c 0,0.67 0.27,1.48 1.01,1.48 0.92,0 0.97,-0.65 0.97,-1.02 v -2.9 h 0.78 z"
         inkscape:connector-curvature="0"
         style="fill:#000000;stroke-width:0" /><path
         id="path4079"
         d="m 244.53,714.02 h -0.74 v -6.9 h 0.77 v 0.46 c 0.24,-0.22 0.67,-0.56 1.34,-0.56 0.99,0 1.84,0.99 1.84,2.32 0,1.23 -0.67,2.31 -1.61,2.31 -0.39,0 -1,-0.1 -1.6,-0.59 l 0.03,-0.61 c 0.16,0.24 0.52,0.59 1.07,0.59 0.58,0 1.34,-0.43 1.34,-1.7 0,-1.29 -0.84,-1.72 -1.44,-1.72 -0.39,0 -0.72,0.18 -0.97,0.64 v 2.19 l -0.03,0.61 z"
         inkscape:connector-curvature="0"
         style="fill:#000000;stroke-width:0" /><path
         id="path4081"
         d="m 252.09,710 -0.01,0.09 0,0.09 -0.01,0.09 -0.02,0.09 -0.01,0.09 -0.03,0.08 -0.02,0.08 -0.03,0.08 -0.03,0.08 -0.04,0.07 -0.04,0.07 -0.04,0.07 -0.05,0.07 -0.04,0.06 -0.06,0.06 -0.05,0.06 -0.06,0.06 -0.06,0.05 -0.06,0.05 -0.06,0.04 -0.07,0.04 -0.07,0.04 -0.07,0.04 -0.07,0.03 -0.08,0.03 -0.07,0.02 -0.08,0.03 -0.08,0.01 -0.08,0.02 -0.09,0.01 -0.08,0 -0.08,0.01 c -0.65,0 -1.1,-0.16 -1.57,-0.43 l 0.06,-0.66 c 0.52,0.37 1.02,0.5 1.51,0.5 0.46,0 0.86,-0.4 0.86,-1.13 v -0.43 c -1.49,-0.02 -2.76,-0.44 -2.76,-1.31 0,-0.43 0.27,-1.23 1.14,-1.23 0.14,0 1.07,0.02 1.65,0.46 l -0.37,0.33 c -0.29,-0.18 -0.66,-0.19 -0.77,-0.19 -0.48,0 -0.93,0.23 -0.93,0.65 0,0.69 1.61,0.76 2.04,0.78 v -0.61 c 0,-0.19 0,-0.44 -0.34,-0.63 l 0.37,-0.33 v -0.36 h 0.75 z"
         inkscape:connector-curvature="0"
         style="fill:#000000;stroke-width:0" /><polygon
         id="polygon4083"
         points="254.7,710.71 254.7,711.54 253.87,711.54 253.87,710.71 "
         style="fill:#000000;stroke-width:0" /><polygon
         id="polygon4085"
         points="254.7,707.95 253.87,707.95 253.87,707.12 254.7,707.12 "
         style="fill:#000000;stroke-width:0" /><path
         id="path4087"
         d="m 226.93,698.04 0.12,0 0.11,0.01 0.12,0.01 0.11,0.02 0.11,0.02 0.1,0.03 0.11,0.03 0.1,0.04 0.1,0.04 0.1,0.04 0.1,0.05 0.09,0.06 0.09,0.05 0.09,0.06 0.08,0.07 0.08,0.06 0.08,0.07 0.07,0.08 0.07,0.07 0.06,0.08 0.06,0.08 0.06,0.09 0.05,0.08 0.05,0.09 0.04,0.09 0.04,0.1 0.03,0.09 0.02,0.1 0.02,0.1 0.02,0.1 0.01,0.1 0,0.11 c 0,1.06 -0.98,2 -2.36,2 h -2.47 v -6.89 h 0.88 v 2.87 l -0.03,0.58 v 2.89 h 1.41 c 1.09,0 1.77,-0.61 1.77,-1.45 0,-0.79 -0.63,-1.44 -1.77,-1.44 h -1.41 l 0.03,-0.58 z"
         inkscape:connector-curvature="0"
         style="fill:#000000;stroke-width:0" /><path
         id="path4089"
         d="m 233.49,698.04 0,0.1 -0.01,0.09 -0.01,0.09 -0.01,0.09 -0.02,0.08 -0.03,0.08 -0.02,0.09 -0.03,0.08 -0.03,0.07 -0.04,0.08 -0.04,0.07 -0.04,0.07 -0.05,0.06 -0.04,0.07 -0.06,0.06 -0.05,0.06 -0.06,0.05 -0.06,0.05 -0.06,0.05 -0.06,0.05 -0.07,0.04 -0.07,0.04 -0.07,0.03 -0.07,0.04 -0.08,0.02 -0.07,0.03 -0.08,0.02 -0.08,0.02 -0.08,0.01 -0.08,0.01 -0.09,0.01 -0.08,0 c -0.65,0 -1.1,-0.16 -1.57,-0.43 l 0.06,-0.65 c 0.52,0.36 1.02,0.49 1.51,0.49 0.46,0 0.86,-0.39 0.86,-1.13 v -0.43 c -1.49,-0.02 -2.75,-0.43 -2.75,-1.31 0,-0.43 0.27,-1.23 1.13,-1.23 0.14,0 1.07,0.02 1.65,0.47 l -0.37,0.32 c -0.28,-0.17 -0.66,-0.18 -0.77,-0.18 -0.48,0 -0.93,0.23 -0.93,0.64 0,0.7 1.61,0.77 2.04,0.79 v -0.62 c 0,-0.19 0,-0.44 -0.34,-0.63 l 0.37,-0.32 v -0.36 h 0.75 z"
         inkscape:connector-curvature="0"
         style="fill:#000000;stroke-width:0" /><path
         id="path4091"
         d="m 235.59,697.3 0,0.09 0.01,0.09 0.01,0.09 0.01,0.08 0.02,0.09 0.02,0.08 0.03,0.08 0.03,0.08 0.03,0.08 0.04,0.07 0.03,0.07 0.05,0.07 0.04,0.07 0.05,0.06 0.05,0.07 0.06,0.05 0.06,0.06 0.06,0.05 0.06,0.05 0.07,0.05 0.07,0.04 0.07,0.04 0.07,0.04 0.08,0.04 0.07,0.03 0.08,0.02 0.08,0.03 0.09,0.01 0.08,0.02 0.09,0.01 0.09,0.01 0.09,0 v 0.67 c -0.88,-0.01 -1.43,-0.5 -1.74,-0.95 v 0.9 h -0.7 v -4.47 h 0.75 z"
         inkscape:connector-curvature="0"
         style="fill:#000000;stroke-width:0" /><polygon
         id="polygon4093"
         points="239.22,698.76 239.22,699.58 238.4,699.58 238.4,698.76 "
         style="fill:#000000;stroke-width:0" /><polygon
         id="polygon4095"
         points="239.22,695.99 238.4,695.99 238.4,695.17 239.22,695.17 "
         style="fill:#000000;stroke-width:0" /><path
         id="path4097"
         d="m 249.9,698.7 -0.06,-0.18 -0.07,-0.18 -0.07,-0.18 -0.07,-0.19 -0.07,-0.18 -0.07,-0.19 -0.07,-0.19 -0.07,-0.18 -0.06,-0.18 -0.03,-0.08 -0.03,-0.09 -0.03,-0.08 -0.03,-0.08 -0.02,-0.07 -0.03,-0.08 -0.02,-0.07 -0.02,-0.07 -0.02,-0.07 -0.02,-0.06 -0.02,-0.06 -0.02,-0.05 -0.01,-0.05 -0.01,-0.05 h -0.01 c -0.05,0.21 -0.17,0.58 -0.32,1 l -1.56,4.11 -0.34,0.86 h -1.12 v -6.89 h 0.77 v 6.16 h 0.01 c 0.06,-0.32 0.46,-1.4 0.72,-2.08 l 1.47,-3.86 h 0.73 l 1.32,3.46 c 0.32,0.81 0.41,1.06 0.48,1.26 0.1,0.29 0.37,1 0.42,1.23 l 0.01,-0.01 v -6.16 h 0.77 v 6.89 h -1.13 z"
         inkscape:connector-curvature="0"
         style="fill:#000000;stroke-width:0" /><path
         id="path4099"
         d="m 254.52,698.5 h -0.58 v -4.82 h 0.61 V 694 c 0.15,-0.13 0.48,-0.39 0.99,-0.39 0.76,0 1.37,0.71 1.37,1.62 0,0.84 -0.48,1.6 -1.17,1.6 -0.44,0 -0.87,-0.14 -1.22,-0.39 l 0.27,-0.22 c 0.1,0.06 0.29,0.15 0.53,0.15 0.47,0 0.99,-0.31 0.99,-1.14 0,-0.85 -0.58,-1.16 -1.07,-1.16 -0.25,0 -0.5,0.11 -0.69,0.43 v 1.37 c 0,0.11 0,0.19 0.24,0.35 l -0.27,0.22 z"
         inkscape:connector-curvature="0"
         style="fill:#000000;stroke-width:0" /><path
         id="path4101"
         d="m 267.27,698.42 0.03,0 0.03,0 0.03,0 0.02,0 0.01,0 0.01,0 0.02,0 0.01,0.01 0.02,0 0.01,0 0.01,0 0.02,0.01 0.01,0 0.01,0.01 0.01,0 0.01,0.01 0.01,0.01 0.01,0 0.01,0.01 0.01,0.01 0.01,0.01 0,0.01 0.01,0 0,0.01 0,0 0.01,0.01 0,0.01 0,0 0,0.01 0.01,0.01 0,0.01 0,0 0,0.01 0,0.01 0,0.01 0,0.01 0,0.01 c 0,0.2 -0.19,0.2 -0.33,0.2 h -5.96 c -0.14,0 -0.32,0 -0.32,-0.2 0,-0.2 0.18,-0.2 0.33,-0.2 z"
         inkscape:connector-curvature="0"
         style="fill:#000000;stroke-width:0" /><path
         id="path4103"
         d="m 267.28,696.49 0.02,0 0.01,0 0.03,0 0.03,0 0.01,0 0.01,0 0.02,0.01 0.01,0 0.02,0 0.01,0 0.01,0 0.02,0.01 0.01,0 0.01,0.01 0.01,0 0.01,0.01 0.01,0 0.01,0.01 0.01,0.01 0.01,0.01 0.01,0 0.01,0.01 0,0 0,0.01 0.01,0.01 0,0 0,0.01 0.01,0 0,0.01 0,0.01 0,0 0.01,0.01 0,0.01 0,0.01 0,0 0,0.01 0,0.01 0,0.01 0,0.01 c 0,0.2 -0.19,0.2 -0.34,0.2 h -5.94 c -0.15,0 -0.33,0 -0.33,-0.2 0,-0.2 0.18,-0.2 0.32,-0.2 z"
         inkscape:connector-curvature="0"
         style="fill:#000000;stroke-width:0" /><path
         id="path4105"
         d="m 274.71,702.06 h -0.88 l -2.6,-6.89 h 0.74 l 0.77,2.03 0.21,0.55 0.64,1.8 c 0.21,0.59 0.52,1.43 0.59,1.8 h 0.01 c 0.02,-0.14 0.09,-0.39 0.32,-1.04 l 0.9,-2.56 h -2.46 l -0.21,-0.55 h 2.89 l 0.76,-2.03 h 0.91 z"
         inkscape:connector-curvature="0"
         style="fill:#000000;stroke-width:0" /><path
         id="path4107"
         d="m 283.62,698.86 0,0.05 -0.01,0.04 0,0.04 0,0.03 -0.01,0.04 0,0.04 -0.01,0.03 -0.01,0.03 0,0.03 -0.01,0.03 -0.01,0.03 -0.01,0.03 -0.01,0.03 -0.02,0.02 -0.01,0.03 -0.01,0.02 -0.01,0.02 -0.02,0.02 -0.01,0.02 -0.02,0.02 -0.02,0.01 -0.01,0.02 -0.02,0.01 -0.02,0.02 -0.02,0.01 -0.01,0.01 -0.02,0 -0.02,0.01 -0.02,0 -0.02,0.01 -0.02,0 -0.02,0 c -0.26,0 -0.53,-0.24 -0.53,-0.47 0,-0.1 0.05,-0.2 0.15,-0.29 0.17,-0.15 0.35,-0.42 0.35,-0.84 0,-0.4 -0.19,-0.96 -0.5,-1.42 -0.3,-0.43 -0.67,-0.76 -1.13,-0.76 -0.57,0 -0.88,0.35 -0.97,0.89 0.11,0.26 0.34,0.89 0.34,1.17 0,0.12 -0.05,0.22 -0.18,0.22 -0.08,0 -0.19,-0.02 -0.27,-0.17 -0.11,-0.2 -0.23,-0.84 -0.23,-1.2 -0.33,-0.47 -0.72,-0.91 -1.35,-0.91 -0.66,0 -0.86,0.58 -0.86,1.14 0,1.24 1.01,2.28 1.01,2.41 0,0.11 -0.08,0.19 -0.19,0.19 -0.13,0 -0.2,-0.13 -0.26,-0.22 -0.51,-0.73 -0.88,-1.91 -0.88,-2.82 0,-0.68 0.23,-1.42 1.04,-1.42 0.71,0 1.17,0.5 1.53,1.04 0.09,-0.57 0.48,-1.04 1.1,-1.04 0.77,0 1.25,0.61 1.61,1.35 0.24,0.49 0.62,1.84 0.62,2.45 z"
         inkscape:connector-curvature="0"
         style="fill:#000000;stroke-width:0" /><path
         id="path4109"
         d="m 286.13,699.32 -0.03,0 -0.04,0 -0.03,0 -0.03,0 -0.03,0 -0.03,-0.01 -0.03,0 -0.03,0 h -0.8 l 1.08,0.96 c 0.13,0.11 0.47,0.37 0.6,0.48 0.31,0.27 0.72,0.64 0.72,1.24 0,0.79 -0.59,1.5 -1.58,1.5 -0.74,0 -1.2,-0.39 -1.44,-1.1 l 0.33,-0.41 c 0.16,0.58 0.4,1.03 1.01,1.03 0.59,0 1.03,-0.41 1.03,-1.03 0,-0.58 -0.34,-0.91 -0.76,-1.3 -0.14,-0.14 -0.51,-0.46 -0.66,-0.59 -0.2,-0.19 -0.68,-0.65 -0.89,-0.82 v -0.49 h 2.96 v 0.54 z"
         inkscape:connector-curvature="0"
         style="fill:#000000;stroke-width:0" /><path
         id="path4111"
         d="m 294.64,697.46 h 2.78 c 0.14,0 0.33,0 0.33,0.19 0,0.2 -0.19,0.2 -0.33,0.2 h -2.78 v 2.78 c 0,0.14 0,0.33 -0.2,0.33 -0.2,0 -0.2,-0.19 -0.2,-0.33 v -2.78 h -2.78 c -0.14,0 -0.33,0 -0.33,-0.2 0,-0.19 0.19,-0.19 0.33,-0.19 h 2.78 v -2.79 c 0,-0.14 0,-0.33 0.2,-0.33 0.2,0 0.2,0.19 0.2,0.33 z"
         inkscape:connector-curvature="0"
         style="fill:#000000;stroke-width:0" /><path
         id="path4113"
         d="m 301.5,702.06 v -6.89 h 2.63 c 1.43,0 2.47,0.89 2.47,1.87 0,0.86 -0.86,1.57 -1.92,1.74 0.91,0.22 1.65,0.8 1.65,1.56 0,0.91 -1.06,1.72 -2.47,1.72 l -0.28,-0.55 c 1.1,0 1.98,-0.53 1.98,-1.18 0,-0.6 -0.71,-1.28 -2.08,-1.28 h -1.15 v -0.6 h 1.44 c 1.05,0 2.03,-0.61 2.03,-1.4 0,-0.75 -0.88,-1.32 -1.95,-1.32 h -1.52 v 2.72 0.6 2.46 h 1.25 l 0.28,0.55 z"
         inkscape:connector-curvature="0"
         style="fill:#000000;stroke-width:0" /><path
         id="path4115"
         d="m 227.18,678.15 h -0.87 l -2.6,-6.89 h 0.74 l 0.76,2.03 0.21,0.55 0.65,1.8 c 0.21,0.59 0.52,1.43 0.59,1.8 h 0 c 0.02,-0.14 0.1,-0.39 0.32,-1.04 l 0.91,-2.56 h -2.47 l -0.21,-0.55 h 2.9 l 0.75,-2.03 h 0.92 z"
         inkscape:connector-curvature="0"
         style="fill:#000000;stroke-width:0" /><path
         id="path4117"
         d="m 239.68,674.51 0.02,0 0.03,0 0.03,0 0.02,0 0.01,0 0.02,0 0.01,0 0.01,0.01 0.02,0 0.01,0 0.02,0 0.01,0.01 0.01,0 0.01,0.01 0.01,0 0.02,0.01 0.01,0.01 0.01,0 0.01,0.01 0,0.01 0.01,0.01 0.01,0.01 0,0 0,0.01 0.01,0 0,0.01 0,0.01 0,0 0.01,0.01 0,0.01 0,0.01 0,0 0,0.01 0,0.01 0,0.01 0,0.01 0,0.01 c 0,0.2 -0.19,0.2 -0.32,0.2 h -5.96 c -0.14,0 -0.33,0 -0.33,-0.2 0,-0.2 0.19,-0.2 0.34,-0.2 z"
         inkscape:connector-curvature="0"
         style="fill:#000000;stroke-width:0" /><path
         id="path4119"
         d="m 239.69,672.58 0.01,0 0.01,0 0.03,0 0.03,0 0.01,0 0.02,0 0.01,0.01 0.01,0 0.02,0 0.01,0 0.01,0 0.02,0.01 0.01,0 0.01,0.01 0.01,0 0.02,0.01 0.01,0 0.01,0.01 0.01,0.01 0.01,0.01 0,0 0.01,0.01 0,0 0.01,0.01 0,0.01 0,0 0.01,0.01 0,0 0,0.01 0,0.01 0.01,0 0,0.01 0,0.01 0,0.01 0,0 0,0.01 0,0.01 0,0.01 0,0.01 c 0,0.2 -0.19,0.2 -0.33,0.2 h -5.94 c -0.15,0 -0.34,0 -0.34,-0.2 0,-0.2 0.19,-0.2 0.33,-0.2 z"
         inkscape:connector-curvature="0"
         style="fill:#000000;stroke-width:0" /><path
         id="path4121"
         d="m 247.9,674.5 0,0.15 0,0.15 0,0.15 -0.01,0.16 -0.01,0.16 -0.01,0.16 -0.02,0.16 -0.02,0.16 -0.02,0.16 -0.04,0.16 -0.03,0.16 -0.05,0.16 -0.05,0.16 -0.02,0.08 -0.03,0.08 -0.04,0.07 -0.03,0.08 -0.04,0.08 -0.03,0.07 c -0.41,0.75 -1.1,0.98 -1.61,0.98 -0.58,0 -1.28,-0.26 -1.69,-1.15 -0.33,-0.72 -0.38,-1.55 -0.38,-2.34 0,-0.79 0.05,-1.51 0.34,-2.24 0.4,-0.95 1.16,-1.22 1.72,-1.22 l 0.01,0.61 c -0.51,0 -0.92,0.38 -1.12,1.09 -0.16,0.57 -0.17,1.1 -0.17,1.88 0,0.62 0,1.22 0.17,1.77 0.06,0.19 0.31,1 1.11,1 0.78,0 1.04,-0.76 1.11,-0.93 0.19,-0.56 0.19,-1.23 0.19,-1.84 0,-0.66 0,-1.28 -0.18,-1.91 -0.26,-0.9 -0.79,-1.06 -1.11,-1.06 h 0 l -0.01,-0.61 c 0.73,0 1.36,0.41 1.68,1.09 0.29,0.65 0.39,1.3 0.39,2.37 z"
         inkscape:connector-curvature="0"
         style="fill:#000000;stroke-width:0" /><path
         id="path4123"
         d="m 250.25,671.79 0,0.02 0,0.03 -0.01,0.03 0,0.02 -0.01,0.03 0,0.02 -0.01,0.03 -0.01,0.02 -0.01,0.02 -0.02,0.03 -0.01,0.02 -0.01,0.02 -0.02,0.02 -0.01,0.02 -0.02,0.02 -0.02,0.02 -0.01,0.02 -0.02,0.01 -0.02,0.02 -0.02,0.01 -0.03,0.02 -0.02,0.01 -0.02,0.01 -0.02,0.01 -0.03,0.01 -0.02,0.01 -0.03,0.01 -0.02,0 -0.03,0.01 -0.02,0 -0.03,0 -0.03,0 c -0.29,0 -0.52,-0.23 -0.52,-0.52 0,-0.29 0.23,-0.53 0.52,-0.53 0.29,0 0.53,0.24 0.53,0.53 z"
         inkscape:connector-curvature="0"
         style="fill:#000000;stroke-width:0" /><path
         id="path4125"
         d="m 255.65,674.5 0,0.15 0,0.15 0,0.15 -0.01,0.16 -0.01,0.16 -0.01,0.16 -0.02,0.16 -0.02,0.16 -0.03,0.16 -0.03,0.16 -0.03,0.16 -0.05,0.16 -0.05,0.16 -0.03,0.08 -0.03,0.08 -0.03,0.07 -0.03,0.08 -0.04,0.08 -0.03,0.07 c -0.41,0.75 -1.1,0.98 -1.61,0.98 -0.58,0 -1.28,-0.26 -1.69,-1.15 -0.33,-0.72 -0.38,-1.55 -0.38,-2.34 0,-0.79 0.04,-1.51 0.34,-2.24 0.4,-0.95 1.16,-1.22 1.72,-1.22 l 0.01,0.61 c -0.51,0 -0.92,0.38 -1.12,1.09 -0.16,0.57 -0.17,1.1 -0.17,1.88 0,0.62 0,1.22 0.17,1.77 0.06,0.19 0.31,1 1.11,1 0.78,0 1.04,-0.76 1.11,-0.93 0.19,-0.56 0.19,-1.23 0.19,-1.84 0,-0.66 0,-1.28 -0.18,-1.91 -0.26,-0.9 -0.79,-1.06 -1.11,-1.06 h 0 l -0.01,-0.61 c 0.73,0 1.36,0.41 1.68,1.09 0.29,0.65 0.39,1.3 0.39,2.37 z"
         inkscape:connector-curvature="0"
         style="fill:#000000;stroke-width:0" /><path
         id="path4127"
         d="m 259.06,677.99 h -0.2 c -0.58,-0.6 -1.41,-0.63 -1.89,-0.65 v -0.58 c 0.33,0.01 0.81,0.03 1.31,0.24 v -5.16 h -1.25 v -0.58 h 3.28 v 0.58 h -1.25 z"
         inkscape:connector-curvature="0"
         style="fill:#000000;stroke-width:0" /><path
         id="path4129"
         d="m 261.79,671.5 0.06,-0.05 0.06,-0.04 0.07,-0.05 0.07,-0.04 0.07,-0.04 0.07,-0.04 0.07,-0.03 0.04,-0.02 0.04,-0.01 0.04,-0.02 0.04,-0.01 0.04,-0.02 0.05,-0.01 0.04,-0.01 0.05,-0.01 0.04,-0.01 0.05,-0.01 0.05,-0.01 0.05,-0.01 0.05,0 0.05,-0.01 0.05,0 0.06,-0.01 0.05,0 0.06,0 c 1.3,0 2.5,1.38 2.5,3.55 0,2.78 -1.18,3.4 -2.02,3.4 v -0.57 c 0.97,0 1.14,-1.35 1.16,-1.84 h 0 c 0.01,-0.07 0.01,-0.17 0.01,-0.24 0,-0.81 -0.49,-1.55 -1.27,-1.55 -0.47,0 -0.75,0.23 -0.96,0.6 -0.22,0.39 -0.23,0.75 -0.23,1.18 0,0.44 0.01,0.85 0.29,1.28 0.2,0.29 0.48,0.57 1,0.57 v 0.57 c -0.7,0 -1.11,-0.29 -1.46,-0.66 -0.62,-0.68 -0.64,-1.33 -0.64,-1.76 0,-1.27 0.65,-2.38 1.61,-2.38 0.61,0 1.25,0.28 1.68,0.82 -0.11,-1.6 -0.88,-2.36 -1.66,-2.36 -0.34,0 -0.67,0.08 -1.03,0.38 z"
         inkscape:connector-curvature="0"
         style="fill:#000000;stroke-width:0" /><path
         id="path4131"
         d="m 268.36,677.07 0.04,0 0.05,0 0.04,0 0.05,0.01 0.04,0 0.05,0 0.04,0 0.05,0 h 1.2 c -1.47,-1.62 -2.36,-3.61 -2.36,-5.93 h 0.84 c 0,2.98 1.42,5.11 2.2,5.98 v 0.65 h -4.13 v -0.71 z"
         inkscape:connector-curvature="0"
         style="fill:#000000;stroke-width:0" /><polygon
         id="polygon4133"
         points="278.41,675.18 278.41,680.01 277.82,680.01 277.82,675.73 277.82,675.73 275.53,680.01 274.58,680.01 274.58,675.18 275.17,675.18 275.17,679.46 275.17,679.46 277.46,675.18 "
         style="fill:#000000;stroke-width:0" /><path
         id="path4135"
         d="m 281.66,678.16 -0.04,0.02 -0.05,0.01 -0.04,0.02 -0.04,0.01 -0.04,0.02 -0.04,0.01 -0.04,0.01 -0.04,0.01 -0.04,0.01 -0.04,0.01 -0.04,0.01 -0.03,0.01 -0.04,0.01 -0.03,0.01 -0.04,0 -0.03,0.01 -0.03,0 -0.04,0.01 -0.03,0 -0.03,0.01 -0.06,0 -0.06,0.01 -0.05,0 -0.05,0 -0.05,0 -0.05,0 c -0.18,0 -1.23,0 -1.23,-0.92 0,-0.33 0.18,-0.51 0.27,-0.59 0.25,-0.25 0.54,-0.3 0.91,-0.37 0.32,-0.06 0.7,-0.13 0.7,-0.47 0,-0.43 -0.58,-0.43 -0.67,-0.43 -0.45,0 -0.87,0.15 -1.15,0.35 l -0.09,-0.52 c 0.23,-0.12 0.66,-0.31 1.24,-0.31 0.31,0 0.62,0.05 0.87,0.24 0.26,0.19 0.35,0.5 0.35,0.74 0,0.12 -0.02,0.39 -0.31,0.66 -0.26,0.23 -0.51,0.28 -0.84,0.34 -0.41,0.07 -0.74,0.14 -0.74,0.44 0,0.4 0.51,0.4 0.62,0.4 0.39,0 0.7,-0.09 1.05,-0.27 z"
         inkscape:connector-curvature="0"
         style="fill:#000000;stroke-width:0" /><path
         id="path4137"
         d="m 283.37,678.57 -0.02,0 -0.01,0 -0.02,0 -0.02,0 -0.02,0 -0.03,0 -0.02,0 -0.02,0 -0.01,0 -0.01,0 h -0.57 l 0.77,0.68 c 0.09,0.08 0.33,0.26 0.43,0.34 0.22,0.2 0.51,0.46 0.51,0.89 0,0.56 -0.42,1.07 -1.13,1.07 -0.53,0 -0.85,-0.28 -1.02,-0.79 l 0.23,-0.29 c 0.11,0.42 0.29,0.74 0.72,0.74 0.42,0 0.74,-0.29 0.74,-0.74 0,-0.41 -0.25,-0.65 -0.54,-0.93 -0.1,-0.1 -0.37,-0.32 -0.48,-0.42 -0.14,-0.13 -0.48,-0.46 -0.63,-0.59 v -0.34 h 2.11 v 0.38 z"
         inkscape:connector-curvature="0"
         style="fill:#000000;stroke-width:0" /><line
         id="line4139"
         y2="673.75"
         x2="285.10001"
         y1="673.75"
         x1="273.89001"
         style="stroke-width:0.33159471" /><path
         id="path4141"
         d="m 281.85,669.88 0,0.05 -0.01,0.05 0,0.05 0,0.06 -0.01,0.05 0,0.05 -0.01,0.04 -0.01,0.05 -0.01,0.05 -0.02,0.05 -0.01,0.04 -0.02,0.05 -0.02,0.04 -0.02,0.04 -0.02,0.05 -0.03,0.04 -0.03,0.03 -0.03,0.04 -0.04,0.03 -0.03,0.04 -0.04,0.03 -0.05,0.03 -0.04,0.02 -0.05,0.03 -0.05,0.02 -0.06,0.02 -0.03,0 -0.03,0.01 -0.03,0.01 -0.03,0.01 -0.03,0 -0.04,0.01 -0.03,0 -0.04,0 -0.04,0.01 -0.03,0 -0.04,0 -0.04,0 c -0.59,0 -0.95,-0.34 -1.12,-0.56 -0.07,0.18 -0.24,0.56 -0.94,0.56 -0.39,0 -0.78,-0.16 -1.08,-0.53 v 0.51 h -0.56 v -3.14 h 0.61 v 1.69 c 0,0.46 0.19,1.01 0.73,1.01 0.72,0 0.72,-0.49 0.72,-0.69 v -2.01 h 0.6 v 1.69 c 0,0.46 0.2,1.01 0.73,1.01 0.72,0 0.72,-0.49 0.72,-0.69 v -2.01 h 0.61 z"
         inkscape:connector-curvature="0"
         style="fill:#000000;stroke-width:0" /><path
         id="path4143"
         d="m 224.4,666.2 v -6.9 h 2.62 c 1.44,0 2.48,0.9 2.48,1.87 0,0.87 -0.87,1.57 -1.92,1.74 0.91,0.23 1.65,0.81 1.65,1.56 0,0.91 -1.06,1.73 -2.47,1.73 l -0.28,-0.56 c 1.1,0 1.98,-0.53 1.98,-1.18 0,-0.6 -0.71,-1.27 -2.08,-1.27 h -1.16 v -0.61 h 1.44 c 1.06,0 2.04,-0.6 2.04,-1.4 0,-0.74 -0.88,-1.32 -1.96,-1.32 h -1.52 v 2.72 0.61 2.45 h 1.26 l 0.28,0.56 z"
         inkscape:connector-curvature="0"
         style="fill:#000000;stroke-width:0" /><path
         id="path4145"
         d="m 239.68,662.55 0.02,0 0.03,0 0.03,0 0.02,0 0.01,0.01 0.02,0 0.01,0 0.01,0 0.02,0 0.01,0.01 0.02,0 0.01,0 0.01,0.01 0.01,0 0.01,0.01 0.02,0 0.01,0.01 0.01,0.01 0.01,0.01 0,0.01 0.01,0.01 0.01,0 0,0.01 0,0 0.01,0.01 0,0.01 0,0 0,0.01 0.01,0.01 0,0 0,0.01 0,0.01 0,0.01 0,0 0,0.01 0,0.01 0,0.01 c 0,0.2 -0.19,0.2 -0.32,0.2 h -5.96 c -0.14,0 -0.33,0 -0.33,-0.2 0,-0.2 0.19,-0.2 0.34,-0.2 z"
         inkscape:connector-curvature="0"
         style="fill:#000000;stroke-width:0" /><path
         id="path4147"
         d="m 239.69,660.62 0.01,0.01 0.01,0 0.03,0 0.03,0 0.01,0 0.02,0 0.01,0 0.01,0 0.02,0 0.01,0.01 0.01,0 0.02,0 0.01,0.01 0.01,0 0.01,0 0.02,0.01 0.01,0.01 0.01,0 0.01,0.01 0.01,0.01 0,0.01 0.01,0 0,0.01 0.01,0 0,0.01 0,0.01 0.01,0 0,0.01 0,0 0,0.01 0.01,0.01 0,0.01 0,0 0,0.01 0,0.01 0,0.01 0,0.01 0,0 0,0.01 c 0,0.2 -0.19,0.2 -0.33,0.2 h -5.94 c -0.15,0 -0.34,0 -0.34,-0.2 0,-0.2 0.19,-0.2 0.33,-0.2 z"
         inkscape:connector-curvature="0"
         style="fill:#000000;stroke-width:0" /><path
         id="path4149"
         d="m 246.54,662.83 0.08,0.03 0.08,0.03 0.08,0.03 0.07,0.04 0.07,0.03 0.06,0.04 0.07,0.04 0.06,0.04 0.05,0.04 0.06,0.04 0.05,0.05 0.05,0.04 0.04,0.05 0.05,0.05 0.04,0.05 0.03,0.05 0.04,0.05 0.03,0.05 0.03,0.05 0.03,0.05 0.03,0.05 0.02,0.05 0.02,0.06 0.02,0.05 0.01,0.05 0.02,0.05 0.01,0.06 0.01,0.05 0.01,0.05 0,0.05 0,0.05 0,0.05 c 0,0.93 -0.84,1.74 -1.92,1.74 l -0.01,-0.58 c 0.79,0 1.24,-0.51 1.24,-1.16 0,-0.71 -0.51,-1.17 -1.23,-1.17 l -0.01,-0.61 c 0.58,0 1.27,-0.4 1.27,-1.42 0,-0.96 -0.62,-1.41 -1.26,-1.41 h 0 c -0.68,0 -1.26,0.48 -1.26,1.41 0,1.05 0.72,1.42 1.25,1.42 l 0.01,0.61 h 0 c -0.76,0 -1.23,0.48 -1.23,1.17 0,0.69 0.49,1.16 1.22,1.16 l 0.01,0.58 c -1.11,0 -1.93,-0.82 -1.93,-1.74 0,-0.53 0.34,-1.18 1.23,-1.47 -0.72,-0.25 -1.37,-0.87 -1.37,-1.74 0,-1.08 0.92,-2 2.06,-2 1.19,0 2.07,0.95 2.07,2 0,0.91 -0.69,1.51 -1.36,1.74 z"
         inkscape:connector-curvature="0"
         style="fill:#000000;stroke-width:0" /><path
         id="path4151"
         d="m 252.47,665.84 -0.05,0.02 -0.05,0.02 -0.04,0.01 -0.05,0.02 -0.04,0.01 -0.05,0.01 -0.04,0.01 -0.04,0.02 -0.04,0.01 -0.04,0 -0.04,0.01 -0.04,0.01 -0.04,0.01 -0.04,0 -0.03,0.01 -0.04,0 -0.03,0.01 -0.03,0 -0.04,0.01 -0.03,0 -0.03,0 -0.02,0 -0.03,0 -0.02,0.01 -0.03,0 -0.02,0 -0.02,0 -0.02,0 -0.02,0 -0.02,0 -0.01,0 -0.02,0 c -1.4,0 -2.65,-1.4 -2.65,-3.54 0,-2.81 1.23,-3.41 2.08,-3.41 v 0.6 c -1.06,0 -1.21,1.46 -1.24,1.79 h 0 c 0,0.14 0,0.16 0.01,0.28 0,0.73 0.45,1.53 1.27,1.53 0.48,0 0.76,-0.25 0.96,-0.62 0.21,-0.37 0.23,-0.71 0.23,-1.16 0,-0.34 0,-0.79 -0.24,-1.2 -0.17,-0.28 -0.43,-0.62 -0.99,-0.62 v -0.6 c 0.59,0 1.02,0.22 1.41,0.67 0.45,0.51 0.63,0.96 0.63,1.75 0,1.27 -0.65,2.38 -1.61,2.38 -0.31,0 -1.07,-0.08 -1.68,-0.82 0.13,1.6 0.92,2.39 1.83,2.39 0.38,0 0.7,-0.07 1.05,-0.21 z"
         inkscape:connector-curvature="0"
         style="fill:#000000;stroke-width:0" /><path
         id="path4153"
         d="m 255.23,659.83 0,0.03 0,0.02 -0.01,0.03 0,0.03 -0.01,0.02 0,0.03 -0.01,0.02 -0.01,0.02 -0.01,0.03 -0.01,0.02 -0.02,0.02 -0.01,0.02 -0.02,0.02 -0.01,0.02 -0.02,0.02 -0.02,0.02 -0.01,0.02 -0.02,0.02 -0.02,0.01 -0.02,0.02 -0.03,0.01 -0.02,0.01 -0.02,0.01 -0.02,0.02 -0.03,0 -0.02,0.01 -0.03,0.01 -0.02,0.01 -0.03,0 -0.02,0 -0.03,0.01 -0.03,0 c -0.29,0 -0.52,-0.24 -0.52,-0.53 0,-0.29 0.23,-0.53 0.52,-0.53 0.29,0 0.53,0.24 0.53,0.53 z"
         inkscape:connector-curvature="0"
         style="fill:#000000;stroke-width:0" /><path
         id="path4155"
         d="m 260.63,662.54 0,0.15 0,0.15 0,0.16 -0.01,0.15 -0.01,0.16 -0.01,0.16 -0.02,0.16 -0.02,0.16 -0.02,0.16 -0.04,0.16 -0.03,0.16 -0.05,0.16 -0.05,0.16 -0.02,0.08 -0.03,0.08 -0.04,0.08 -0.03,0.07 -0.04,0.08 -0.03,0.08 c -0.41,0.74 -1.1,0.98 -1.61,0.98 -0.58,0 -1.28,-0.27 -1.69,-1.15 -0.33,-0.73 -0.37,-1.55 -0.37,-2.35 0,-0.78 0.04,-1.51 0.33,-2.23 0.4,-0.96 1.16,-1.22 1.72,-1.22 l 0.01,0.6 c -0.51,0 -0.92,0.38 -1.12,1.09 -0.16,0.57 -0.17,1.11 -0.17,1.88 0,0.63 0,1.22 0.17,1.77 0.06,0.19 0.31,1 1.11,1 0.78,0 1.04,-0.75 1.11,-0.93 0.19,-0.56 0.19,-1.22 0.19,-1.84 0,-0.65 0,-1.28 -0.18,-1.91 -0.26,-0.9 -0.79,-1.06 -1.11,-1.06 h 0 l -0.01,-0.6 c 0.73,0 1.36,0.4 1.68,1.09 0.29,0.64 0.39,1.3 0.39,2.36 z"
         inkscape:connector-curvature="0"
         style="fill:#000000;stroke-width:0" /><path
         id="path4157"
         d="m 264.92,666.2 h -1.23 v -6.9 h 0.77 v 6.19 h 0.01 c 0.19,-0.4 0.61,-1.25 0.67,-1.36 l 2.44,-4.83 h 1.23 v 6.9 h -0.77 v -6.19 h -0.02 c -0.18,0.41 -0.6,1.25 -0.66,1.36 z"
         inkscape:connector-curvature="0"
         style="fill:#000000;stroke-width:0" /><path
         id="path4159"
         d="m 276.88,662.26 0,0.07 0,0.06 0,0.07 -0.01,0.06 0,0.07 -0.01,0.07 -0.01,0.06 -0.01,0.07 -0.02,0.07 -0.01,0.06 -0.02,0.07 -0.02,0.06 -0.03,0.06 -0.02,0.07 -0.03,0.06 -0.04,0.05 -0.04,0.06 -0.04,0.05 -0.04,0.06 -0.05,0.05 -0.05,0.04 -0.06,0.05 -0.06,0.04 -0.07,0.03 -0.04,0.02 -0.03,0.02 -0.04,0.01 -0.04,0.02 -0.04,0.01 -0.04,0.01 -0.04,0.01 -0.05,0.01 -0.04,0.01 -0.05,0.01 -0.05,0.01 -0.05,0 -0.05,0.01 -0.05,0 -0.06,0 -0.05,0 c -0.6,0 -1.12,-0.27 -1.48,-0.81 -0.26,0.75 -0.96,0.81 -1.28,0.81 -0.71,0 -1.18,-0.4 -1.45,-0.76 v 0.71 h -0.72 v -4.47 h 0.78 v 2.44 c 0,0.67 0.27,1.48 1.01,1.48 0.92,0 0.97,-0.65 0.97,-1.02 v -2.9 h 0.78 v 2.44 c 0,0.67 0.26,1.48 1,1.48 0.93,0 0.98,-0.65 0.98,-1.02 v -2.9 h 0.77 z"
         inkscape:connector-curvature="0"
         style="fill:#000000;stroke-width:0" /></g>  </g>
</svg>
