<?xml version="1.0" encoding="utf-8" standalone="no"?>
<!DOCTYPE svg PUBLIC "-//W3C//DTD SVG 1.1//EN"
  "http://www.w3.org/Graphics/SVG/1.1/DTD/svg11.dtd">
<!-- Created with matplotlib (http://matplotlib.org/) -->
<svg height="515pt" version="1.1" viewBox="0 0 524 515" width="524pt" xmlns="http://www.w3.org/2000/svg" xmlns:xlink="http://www.w3.org/1999/xlink">
 <defs>
  <style type="text/css">
*{stroke-linecap:butt;stroke-linejoin:round;}
  </style>
 </defs>
 <g id="figure_1">
  <g id="patch_1">
   <path d="M 0 515.217344 
L 524.959062 515.217344 
L 524.959062 0 
L 0 0 
z
" style="fill:none;opacity:0;"/>
  </g>
  <g id="axes_1">
   <g id="patch_2">
    <path d="M 56.959063 230.926491 
L 517.759062 230.926491 
L 517.759062 10.999219 
L 56.959063 10.999219 
z
" style="fill:#ffffff;"/>
   </g>
   <g id="matplotlib.axis_1">
    <g id="xtick_1">
     <g id="line2d_1">
      <path clip-path="url(#p8e38a7c1f2)" d="M 77.904517 230.926491 
L 77.904517 10.999219 
" style="fill:none;stroke:#cbcbcb;"/>
     </g>
     <g id="line2d_2"/>
    </g>
    <g id="xtick_2">
     <g id="line2d_3">
      <path clip-path="url(#p8e38a7c1f2)" d="M 147.722699 230.926491 
L 147.722699 10.999219 
" style="fill:none;stroke:#cbcbcb;"/>
     </g>
     <g id="line2d_4"/>
    </g>
    <g id="xtick_3">
     <g id="line2d_5">
      <path clip-path="url(#p8e38a7c1f2)" d="M 217.540881 230.926491 
L 217.540881 10.999219 
" style="fill:none;stroke:#cbcbcb;"/>
     </g>
     <g id="line2d_6"/>
    </g>
    <g id="xtick_4">
     <g id="line2d_7">
      <path clip-path="url(#p8e38a7c1f2)" d="M 287.359062 230.926491 
L 287.359062 10.999219 
" style="fill:none;stroke:#cbcbcb;"/>
     </g>
     <g id="line2d_8"/>
    </g>
    <g id="xtick_5">
     <g id="line2d_9">
      <path clip-path="url(#p8e38a7c1f2)" d="M 357.177244 230.926491 
L 357.177244 10.999219 
" style="fill:none;stroke:#cbcbcb;"/>
     </g>
     <g id="line2d_10"/>
    </g>
    <g id="xtick_6">
     <g id="line2d_11">
      <path clip-path="url(#p8e38a7c1f2)" d="M 426.995426 230.926491 
L 426.995426 10.999219 
" style="fill:none;stroke:#cbcbcb;"/>
     </g>
     <g id="line2d_12"/>
    </g>
    <g id="xtick_7">
     <g id="line2d_13">
      <path clip-path="url(#p8e38a7c1f2)" d="M 496.813608 230.926491 
L 496.813608 10.999219 
" style="fill:none;stroke:#cbcbcb;"/>
     </g>
     <g id="line2d_14"/>
    </g>
    <g id="text_1">
     <!-- $\sf \lambda$ -->
     <defs>
      <path d="M 30.953125 67.4375 
L 56.203125 0 
L 46.6875 0 
L 31.34375 40.4375 
L 12.5 0 
L 2.984375 0 
L 26.953125 52.4375 
L 23.34375 62.109375 
Q 21.046875 68.265625 15.828125 68.265625 
L 11.140625 68.265625 
L 11.140625 75.984375 
L 16.84375 75.875 
Q 27.875 75.734375 30.953125 67.4375 
z
" id="DejaVuSans-3bb"/>
     </defs>
     <g transform="translate(283.759062 244.044616)scale(0.12 -0.12)">
      <use transform="translate(0 0.015625)" xlink:href="#DejaVuSans-3bb"/>
     </g>
    </g>
   </g>
   <g id="matplotlib.axis_2">
    <g id="ytick_1">
     <g id="line2d_15">
      <path clip-path="url(#p8e38a7c1f2)" d="M 56.959063 230.926491 
L 517.759062 230.926491 
" style="fill:none;stroke:#cbcbcb;"/>
     </g>
     <g id="line2d_16"/>
     <g id="text_2">
      <!-- 0 -->
      <defs>
       <path d="M 31.78125 66.40625 
Q 24.171875 66.40625 20.328125 58.90625 
Q 16.5 51.421875 16.5 36.375 
Q 16.5 21.390625 20.328125 13.890625 
Q 24.171875 6.390625 31.78125 6.390625 
Q 39.453125 6.390625 43.28125 13.890625 
Q 47.125 21.390625 47.125 36.375 
Q 47.125 51.421875 43.28125 58.90625 
Q 39.453125 66.40625 31.78125 66.40625 
z
M 31.78125 74.21875 
Q 44.046875 74.21875 50.515625 64.515625 
Q 56.984375 54.828125 56.984375 36.375 
Q 56.984375 17.96875 50.515625 8.265625 
Q 44.046875 -1.421875 31.78125 -1.421875 
Q 19.53125 -1.421875 13.0625 8.265625 
Q 6.59375 17.96875 6.59375 36.375 
Q 6.59375 54.828125 13.0625 64.515625 
Q 19.53125 74.21875 31.78125 74.21875 
z
" id="DejaVuSans-30"/>
      </defs>
      <g transform="translate(47.096563 234.72571)scale(0.1 -0.1)">
       <use xlink:href="#DejaVuSans-30"/>
      </g>
     </g>
    </g>
    <g id="ytick_2">
     <g id="line2d_17">
      <path clip-path="url(#p8e38a7c1f2)" d="M 56.959063 194.271946 
L 517.759062 194.271946 
" style="fill:none;stroke:#cbcbcb;"/>
     </g>
     <g id="line2d_18"/>
     <g id="text_3">
      <!-- 2 -->
      <defs>
       <path d="M 19.1875 8.296875 
L 53.609375 8.296875 
L 53.609375 0 
L 7.328125 0 
L 7.328125 8.296875 
Q 12.9375 14.109375 22.625 23.890625 
Q 32.328125 33.6875 34.8125 36.53125 
Q 39.546875 41.84375 41.421875 45.53125 
Q 43.3125 49.21875 43.3125 52.78125 
Q 43.3125 58.59375 39.234375 62.25 
Q 35.15625 65.921875 28.609375 65.921875 
Q 23.96875 65.921875 18.8125 64.3125 
Q 13.671875 62.703125 7.8125 59.421875 
L 7.8125 69.390625 
Q 13.765625 71.78125 18.9375 73 
Q 24.125 74.21875 28.421875 74.21875 
Q 39.75 74.21875 46.484375 68.546875 
Q 53.21875 62.890625 53.21875 53.421875 
Q 53.21875 48.921875 51.53125 44.890625 
Q 49.859375 40.875 45.40625 35.40625 
Q 44.1875 33.984375 37.640625 27.21875 
Q 31.109375 20.453125 19.1875 8.296875 
z
" id="DejaVuSans-32"/>
      </defs>
      <g transform="translate(47.096563 198.071165)scale(0.1 -0.1)">
       <use xlink:href="#DejaVuSans-32"/>
      </g>
     </g>
    </g>
    <g id="ytick_3">
     <g id="line2d_19">
      <path clip-path="url(#p8e38a7c1f2)" d="M 56.959063 157.617401 
L 517.759062 157.617401 
" style="fill:none;stroke:#cbcbcb;"/>
     </g>
     <g id="line2d_20"/>
     <g id="text_4">
      <!-- 4 -->
      <defs>
       <path d="M 37.796875 64.3125 
L 12.890625 25.390625 
L 37.796875 25.390625 
z
M 35.203125 72.90625 
L 47.609375 72.90625 
L 47.609375 25.390625 
L 58.015625 25.390625 
L 58.015625 17.1875 
L 47.609375 17.1875 
L 47.609375 0 
L 37.796875 0 
L 37.796875 17.1875 
L 4.890625 17.1875 
L 4.890625 26.703125 
z
" id="DejaVuSans-34"/>
      </defs>
      <g transform="translate(47.096563 161.416619)scale(0.1 -0.1)">
       <use xlink:href="#DejaVuSans-34"/>
      </g>
     </g>
    </g>
    <g id="ytick_4">
     <g id="line2d_21">
      <path clip-path="url(#p8e38a7c1f2)" d="M 56.959063 120.962855 
L 517.759062 120.962855 
" style="fill:none;stroke:#cbcbcb;"/>
     </g>
     <g id="line2d_22"/>
     <g id="text_5">
      <!-- 6 -->
      <defs>
       <path d="M 33.015625 40.375 
Q 26.375 40.375 22.484375 35.828125 
Q 18.609375 31.296875 18.609375 23.390625 
Q 18.609375 15.53125 22.484375 10.953125 
Q 26.375 6.390625 33.015625 6.390625 
Q 39.65625 6.390625 43.53125 10.953125 
Q 47.40625 15.53125 47.40625 23.390625 
Q 47.40625 31.296875 43.53125 35.828125 
Q 39.65625 40.375 33.015625 40.375 
z
M 52.59375 71.296875 
L 52.59375 62.3125 
Q 48.875 64.0625 45.09375 64.984375 
Q 41.3125 65.921875 37.59375 65.921875 
Q 27.828125 65.921875 22.671875 59.328125 
Q 17.53125 52.734375 16.796875 39.40625 
Q 19.671875 43.65625 24.015625 45.921875 
Q 28.375 48.1875 33.59375 48.1875 
Q 44.578125 48.1875 50.953125 41.515625 
Q 57.328125 34.859375 57.328125 23.390625 
Q 57.328125 12.15625 50.6875 5.359375 
Q 44.046875 -1.421875 33.015625 -1.421875 
Q 20.359375 -1.421875 13.671875 8.265625 
Q 6.984375 17.96875 6.984375 36.375 
Q 6.984375 53.65625 15.1875 63.9375 
Q 23.390625 74.21875 37.203125 74.21875 
Q 40.921875 74.21875 44.703125 73.484375 
Q 48.484375 72.75 52.59375 71.296875 
z
" id="DejaVuSans-36"/>
      </defs>
      <g transform="translate(47.096563 124.762074)scale(0.1 -0.1)">
       <use xlink:href="#DejaVuSans-36"/>
      </g>
     </g>
    </g>
    <g id="ytick_5">
     <g id="line2d_23">
      <path clip-path="url(#p8e38a7c1f2)" d="M 56.959063 84.30831 
L 517.759062 84.30831 
" style="fill:none;stroke:#cbcbcb;"/>
     </g>
     <g id="line2d_24"/>
     <g id="text_6">
      <!-- 8 -->
      <defs>
       <path d="M 31.78125 34.625 
Q 24.75 34.625 20.71875 30.859375 
Q 16.703125 27.09375 16.703125 20.515625 
Q 16.703125 13.921875 20.71875 10.15625 
Q 24.75 6.390625 31.78125 6.390625 
Q 38.8125 6.390625 42.859375 10.171875 
Q 46.921875 13.96875 46.921875 20.515625 
Q 46.921875 27.09375 42.890625 30.859375 
Q 38.875 34.625 31.78125 34.625 
z
M 21.921875 38.8125 
Q 15.578125 40.375 12.03125 44.71875 
Q 8.5 49.078125 8.5 55.328125 
Q 8.5 64.0625 14.71875 69.140625 
Q 20.953125 74.21875 31.78125 74.21875 
Q 42.671875 74.21875 48.875 69.140625 
Q 55.078125 64.0625 55.078125 55.328125 
Q 55.078125 49.078125 51.53125 44.71875 
Q 48 40.375 41.703125 38.8125 
Q 48.828125 37.15625 52.796875 32.3125 
Q 56.78125 27.484375 56.78125 20.515625 
Q 56.78125 9.90625 50.3125 4.234375 
Q 43.84375 -1.421875 31.78125 -1.421875 
Q 19.734375 -1.421875 13.25 4.234375 
Q 6.78125 9.90625 6.78125 20.515625 
Q 6.78125 27.484375 10.78125 32.3125 
Q 14.796875 37.15625 21.921875 38.8125 
z
M 18.3125 54.390625 
Q 18.3125 48.734375 21.84375 45.5625 
Q 25.390625 42.390625 31.78125 42.390625 
Q 38.140625 42.390625 41.71875 45.5625 
Q 45.3125 48.734375 45.3125 54.390625 
Q 45.3125 60.0625 41.71875 63.234375 
Q 38.140625 66.40625 31.78125 66.40625 
Q 25.390625 66.40625 21.84375 63.234375 
Q 18.3125 60.0625 18.3125 54.390625 
z
" id="DejaVuSans-38"/>
      </defs>
      <g transform="translate(47.096563 88.107528)scale(0.1 -0.1)">
       <use xlink:href="#DejaVuSans-38"/>
      </g>
     </g>
    </g>
    <g id="ytick_6">
     <g id="line2d_25">
      <path clip-path="url(#p8e38a7c1f2)" d="M 56.959063 47.653764 
L 517.759062 47.653764 
" style="fill:none;stroke:#cbcbcb;"/>
     </g>
     <g id="line2d_26"/>
     <g id="text_7">
      <!-- 10 -->
      <defs>
       <path d="M 12.40625 8.296875 
L 28.515625 8.296875 
L 28.515625 63.921875 
L 10.984375 60.40625 
L 10.984375 69.390625 
L 28.421875 72.90625 
L 38.28125 72.90625 
L 38.28125 8.296875 
L 54.390625 8.296875 
L 54.390625 0 
L 12.40625 0 
z
" id="DejaVuSans-31"/>
      </defs>
      <g transform="translate(40.734063 51.452983)scale(0.1 -0.1)">
       <use xlink:href="#DejaVuSans-31"/>
       <use x="63.623047" xlink:href="#DejaVuSans-30"/>
      </g>
     </g>
    </g>
    <g id="ytick_7">
     <g id="line2d_27">
      <path clip-path="url(#p8e38a7c1f2)" d="M 56.959063 10.999219 
L 517.759062 10.999219 
" style="fill:none;stroke:#cbcbcb;"/>
     </g>
     <g id="line2d_28"/>
     <g id="text_8">
      <!-- 12 -->
      <g transform="translate(40.734063 14.798437)scale(0.1 -0.1)">
       <use xlink:href="#DejaVuSans-31"/>
       <use x="63.623047" xlink:href="#DejaVuSans-32"/>
      </g>
     </g>
    </g>
    <g id="text_9">
     <!-- $\sf C_p$ -->
     <defs>
      <path d="M 64.40625 67.28125 
L 64.40625 56.890625 
Q 59.421875 61.53125 53.78125 63.8125 
Q 48.140625 66.109375 41.796875 66.109375 
Q 29.296875 66.109375 22.65625 58.46875 
Q 16.015625 50.828125 16.015625 36.375 
Q 16.015625 21.96875 22.65625 14.328125 
Q 29.296875 6.6875 41.796875 6.6875 
Q 48.140625 6.6875 53.78125 8.984375 
Q 59.421875 11.28125 64.40625 15.921875 
L 64.40625 5.609375 
Q 59.234375 2.09375 53.4375 0.328125 
Q 47.65625 -1.421875 41.21875 -1.421875 
Q 24.65625 -1.421875 15.125 8.703125 
Q 5.609375 18.84375 5.609375 36.375 
Q 5.609375 53.953125 15.125 64.078125 
Q 24.65625 74.21875 41.21875 74.21875 
Q 47.75 74.21875 53.53125 72.484375 
Q 59.328125 70.75 64.40625 67.28125 
z
" id="DejaVuSans-43"/>
      <path d="M 18.109375 8.203125 
L 18.109375 -20.796875 
L 9.078125 -20.796875 
L 9.078125 54.6875 
L 18.109375 54.6875 
L 18.109375 46.390625 
Q 20.953125 51.265625 25.265625 53.625 
Q 29.59375 56 35.59375 56 
Q 45.5625 56 51.78125 48.09375 
Q 58.015625 40.1875 58.015625 27.296875 
Q 58.015625 14.40625 51.78125 6.484375 
Q 45.5625 -1.421875 35.59375 -1.421875 
Q 29.59375 -1.421875 25.265625 0.953125 
Q 20.953125 3.328125 18.109375 8.203125 
z
M 48.6875 27.296875 
Q 48.6875 37.203125 44.609375 42.84375 
Q 40.53125 48.484375 33.40625 48.484375 
Q 26.265625 48.484375 22.1875 42.84375 
Q 18.109375 37.203125 18.109375 27.296875 
Q 18.109375 17.390625 22.1875 11.75 
Q 26.265625 6.109375 33.40625 6.109375 
Q 40.53125 6.109375 44.609375 11.75 
Q 48.6875 17.390625 48.6875 27.296875 
z
" id="DejaVuSans-70"/>
     </defs>
     <g transform="translate(33.014063 128.042855)rotate(-90)scale(0.12 -0.12)">
      <use transform="translate(0 0.78125)" xlink:href="#DejaVuSans-43"/>
      <use transform="translate(70.78125 -15.625)scale(0.7)" xlink:href="#DejaVuSans-70"/>
     </g>
    </g>
   </g>
   <g id="line2d_29">
    <defs>
     <path d="M 0 1.5 
C 0.397805 1.5 0.77937 1.341951 1.06066 1.06066 
C 1.341951 0.77937 1.5 0.397805 1.5 0 
C 1.5 -0.397805 1.341951 -0.77937 1.06066 -1.06066 
C 0.77937 -1.341951 0.397805 -1.5 0 -1.5 
C -0.397805 -1.5 -0.77937 -1.341951 -1.06066 -1.06066 
C -1.341951 -0.77937 -1.5 -0.397805 -1.5 0 
C -1.5 0.397805 -1.341951 0.77937 -1.06066 1.06066 
C -0.77937 1.341951 -0.397805 1.5 0 1.5 
z
" id="m324192afde" style="stroke:#fc4f30;"/>
    </defs>
    <g clip-path="url(#p8e38a7c1f2)">
     <use style="fill:#fc4f30;stroke:#fc4f30;" x="77.904517" xlink:href="#m324192afde" y="230.926491"/>
     <use style="fill:#fc4f30;stroke:#fc4f30;" x="82.135922" xlink:href="#m324192afde" y="228.71044"/>
     <use style="fill:#fc4f30;stroke:#fc4f30;" x="86.367327" xlink:href="#m324192afde" y="226.526907"/>
     <use style="fill:#fc4f30;stroke:#fc4f30;" x="90.598732" xlink:href="#m324192afde" y="224.407936"/>
     <use style="fill:#fc4f30;stroke:#fc4f30;" x="94.830137" xlink:href="#m324192afde" y="222.38462"/>
     <use style="fill:#fc4f30;stroke:#fc4f30;" x="99.061542" xlink:href="#m324192afde" y="220.486652"/>
     <use style="fill:#fc4f30;stroke:#fc4f30;" x="103.292947" xlink:href="#m324192afde" y="218.741882"/>
     <use style="fill:#fc4f30;stroke:#fc4f30;" x="107.524352" xlink:href="#m324192afde" y="217.175913"/>
     <use style="fill:#fc4f30;stroke:#fc4f30;" x="111.755757" xlink:href="#m324192afde" y="215.811726"/>
     <use style="fill:#fc4f30;stroke:#fc4f30;" x="115.987162" xlink:href="#m324192afde" y="214.669339"/>
     <use style="fill:#fc4f30;stroke:#fc4f30;" x="120.218567" xlink:href="#m324192afde" y="213.765516"/>
     <use style="fill:#fc4f30;stroke:#fc4f30;" x="124.449972" xlink:href="#m324192afde" y="213.11352"/>
     <use style="fill:#fc4f30;stroke:#fc4f30;" x="128.681377" xlink:href="#m324192afde" y="212.722919"/>
     <use style="fill:#fc4f30;stroke:#fc4f30;" x="132.912782" xlink:href="#m324192afde" y="212.599444"/>
     <use style="fill:#fc4f30;stroke:#fc4f30;" x="137.144186" xlink:href="#m324192afde" y="212.744908"/>
     <use style="fill:#fc4f30;stroke:#fc4f30;" x="141.375591" xlink:href="#m324192afde" y="213.157175"/>
     <use style="fill:#fc4f30;stroke:#fc4f30;" x="145.606996" xlink:href="#m324192afde" y="213.830197"/>
     <use style="fill:#fc4f30;stroke:#fc4f30;" x="149.838401" xlink:href="#m324192afde" y="214.754096"/>
     <use style="fill:#fc4f30;stroke:#fc4f30;" x="154.069806" xlink:href="#m324192afde" y="215.915315"/>
     <use style="fill:#fc4f30;stroke:#fc4f30;" x="158.301211" xlink:href="#m324192afde" y="217.296814"/>
     <use style="fill:#fc4f30;stroke:#fc4f30;" x="162.532616" xlink:href="#m324192afde" y="218.878321"/>
     <use style="fill:#fc4f30;stroke:#fc4f30;" x="166.764021" xlink:href="#m324192afde" y="220.636627"/>
     <use style="fill:#fc4f30;stroke:#fc4f30;" x="170.995426" xlink:href="#m324192afde" y="222.545931"/>
     <use style="fill:#fc4f30;stroke:#fc4f30;" x="175.226831" xlink:href="#m324192afde" y="224.578215"/>
     <use style="fill:#fc4f30;stroke:#fc4f30;" x="179.458236" xlink:href="#m324192afde" y="226.703656"/>
     <use style="fill:#fc4f30;stroke:#fc4f30;" x="183.689641" xlink:href="#m324192afde" y="228.891064"/>
     <use style="fill:#fc4f30;stroke:#fc4f30;" x="187.921046" xlink:href="#m324192afde" y="231.108341"/>
     <use style="fill:#fc4f30;stroke:#fc4f30;" x="192.152451" xlink:href="#m324192afde" y="233.322949"/>
     <use style="fill:#fc4f30;stroke:#fc4f30;" x="196.383856" xlink:href="#m324192afde" y="235.502391"/>
     <use style="fill:#fc4f30;stroke:#fc4f30;" x="200.615261" xlink:href="#m324192afde" y="237.614684"/>
     <use style="fill:#fc4f30;stroke:#fc4f30;" x="204.846666" xlink:href="#m324192afde" y="239.628832"/>
     <use style="fill:#fc4f30;stroke:#fc4f30;" x="209.078071" xlink:href="#m324192afde" y="241.515279"/>
     <use style="fill:#fc4f30;stroke:#fc4f30;" x="213.309476" xlink:href="#m324192afde" y="243.246341"/>
     <use style="fill:#fc4f30;stroke:#fc4f30;" x="217.540881" xlink:href="#m324192afde" y="244.796617"/>
     <use style="fill:#fc4f30;stroke:#fc4f30;" x="221.772286" xlink:href="#m324192afde" y="246.143357"/>
     <use style="fill:#fc4f30;stroke:#fc4f30;" x="226.003691" xlink:href="#m324192afde" y="247.266799"/>
     <use style="fill:#fc4f30;stroke:#fc4f30;" x="230.235096" xlink:href="#m324192afde" y="248.150457"/>
     <use style="fill:#fc4f30;stroke:#fc4f30;" x="234.466501" xlink:href="#m324192afde" y="248.781363"/>
     <use style="fill:#fc4f30;stroke:#fc4f30;" x="238.697905" xlink:href="#m324192afde" y="249.15026"/>
     <use style="fill:#fc4f30;stroke:#fc4f30;" x="242.92931" xlink:href="#m324192afde" y="249.251734"/>
     <use style="fill:#fc4f30;stroke:#fc4f30;" x="247.160715" xlink:href="#m324192afde" y="249.084296"/>
     <use style="fill:#fc4f30;stroke:#fc4f30;" x="251.39212" xlink:href="#m324192afde" y="248.650404"/>
     <use style="fill:#fc4f30;stroke:#fc4f30;" x="255.623525" xlink:href="#m324192afde" y="247.956423"/>
     <use style="fill:#fc4f30;stroke:#fc4f30;" x="259.85493" xlink:href="#m324192afde" y="247.012539"/>
     <use style="fill:#fc4f30;stroke:#fc4f30;" x="264.086335" xlink:href="#m324192afde" y="245.832601"/>
     <use style="fill:#fc4f30;stroke:#fc4f30;" x="268.31774" xlink:href="#m324192afde" y="244.433925"/>
     <use style="fill:#fc4f30;stroke:#fc4f30;" x="272.549145" xlink:href="#m324192afde" y="242.837036"/>
     <use style="fill:#fc4f30;stroke:#fc4f30;" x="276.78055" xlink:href="#m324192afde" y="241.065367"/>
     <use style="fill:#fc4f30;stroke:#fc4f30;" x="281.011955" xlink:href="#m324192afde" y="239.144916"/>
     <use style="fill:#fc4f30;stroke:#fc4f30;" x="285.24336" xlink:href="#m324192afde" y="237.103864"/>
     <use style="fill:#fc4f30;stroke:#fc4f30;" x="289.474765" xlink:href="#m324192afde" y="234.972163"/>
     <use style="fill:#fc4f30;stroke:#fc4f30;" x="293.70617" xlink:href="#m324192afde" y="232.781095"/>
     <use style="fill:#fc4f30;stroke:#fc4f30;" x="297.937575" xlink:href="#m324192afde" y="230.562811"/>
     <use style="fill:#fc4f30;stroke:#fc4f30;" x="302.16898" xlink:href="#m324192afde" y="228.349864"/>
     <use style="fill:#fc4f30;stroke:#fc4f30;" x="306.400385" xlink:href="#m324192afde" y="226.174727"/>
     <use style="fill:#fc4f30;stroke:#fc4f30;" x="310.63179" xlink:href="#m324192afde" y="224.06932"/>
     <use style="fill:#fc4f30;stroke:#fc4f30;" x="314.863195" xlink:href="#m324192afde" y="222.064537"/>
     <use style="fill:#fc4f30;stroke:#fc4f30;" x="319.0946" xlink:href="#m324192afde" y="220.189799"/>
     <use style="fill:#fc4f30;stroke:#fc4f30;" x="323.326005" xlink:href="#m324192afde" y="218.472615"/>
     <use style="fill:#fc4f30;stroke:#fc4f30;" x="327.55741" xlink:href="#m324192afde" y="216.938184"/>
     <use style="fill:#fc4f30;stroke:#fc4f30;" x="331.788815" xlink:href="#m324192afde" y="215.609023"/>
     <use style="fill:#fc4f30;stroke:#fc4f30;" x="336.02022" xlink:href="#m324192afde" y="214.504637"/>
     <use style="fill:#fc4f30;stroke:#fc4f30;" x="340.251624" xlink:href="#m324192afde" y="213.641231"/>
     <use style="fill:#fc4f30;stroke:#fc4f30;" x="344.483029" xlink:href="#m324192afde" y="213.031477"/>
     <use style="fill:#fc4f30;stroke:#fc4f30;" x="348.714434" xlink:href="#m324192afde" y="212.68432"/>
     <use style="fill:#fc4f30;stroke:#fc4f30;" x="352.945839" xlink:href="#m324192afde" y="212.604857"/>
     <use style="fill:#fc4f30;stroke:#fc4f30;" x="357.177244" xlink:href="#m324192afde" y="212.794253"/>
     <use style="fill:#fc4f30;stroke:#fc4f30;" x="361.408649" xlink:href="#m324192afde" y="213.249729"/>
     <use style="fill:#fc4f30;stroke:#fc4f30;" x="365.640054" xlink:href="#m324192afde" y="213.9646"/>
     <use style="fill:#fc4f30;stroke:#fc4f30;" x="369.871459" xlink:href="#m324192afde" y="214.928377"/>
     <use style="fill:#fc4f30;stroke:#fc4f30;" x="374.102864" xlink:href="#m324192afde" y="216.126916"/>
     <use style="fill:#fc4f30;stroke:#fc4f30;" x="378.334269" xlink:href="#m324192afde" y="217.542631"/>
     <use style="fill:#fc4f30;stroke:#fc4f30;" x="382.565674" xlink:href="#m324192afde" y="219.154745"/>
     <use style="fill:#fc4f30;stroke:#fc4f30;" x="386.797079" xlink:href="#m324192afde" y="220.939603"/>
     <use style="fill:#fc4f30;stroke:#fc4f30;" x="391.028484" xlink:href="#m324192afde" y="222.871012"/>
     <use style="fill:#fc4f30;stroke:#fc4f30;" x="395.259889" xlink:href="#m324192afde" y="224.920631"/>
     <use style="fill:#fc4f30;stroke:#fc4f30;" x="399.491294" xlink:href="#m324192afde" y="227.058382"/>
     <use style="fill:#fc4f30;stroke:#fc4f30;" x="403.722699" xlink:href="#m324192afde" y="229.252896"/>
     <use style="fill:#fc4f30;stroke:#fc4f30;" x="407.954104" xlink:href="#m324192afde" y="231.471968"/>
     <use style="fill:#fc4f30;stroke:#fc4f30;" x="412.185509" xlink:href="#m324192afde" y="233.683036"/>
     <use style="fill:#fc4f30;stroke:#fc4f30;" x="416.416914" xlink:href="#m324192afde" y="235.853653"/>
     <use style="fill:#fc4f30;stroke:#fc4f30;" x="420.648319" xlink:href="#m324192afde" y="237.951967"/>
     <use style="fill:#fc4f30;stroke:#fc4f30;" x="424.879724" xlink:href="#m324192afde" y="239.947186"/>
     <use style="fill:#fc4f30;stroke:#fc4f30;" x="429.111129" xlink:href="#m324192afde" y="241.810032"/>
     <use style="fill:#fc4f30;stroke:#fc4f30;" x="433.342534" xlink:href="#m324192afde" y="243.513169"/>
     <use style="fill:#fc4f30;stroke:#fc4f30;" x="437.573939" xlink:href="#m324192afde" y="245.031604"/>
     <use style="fill:#fc4f30;stroke:#fc4f30;" x="441.805343" xlink:href="#m324192afde" y="246.343054"/>
     <use style="fill:#fc4f30;stroke:#fc4f30;" x="446.036748" xlink:href="#m324192afde" y="247.428276"/>
     <use style="fill:#fc4f30;stroke:#fc4f30;" x="450.268153" xlink:href="#m324192afde" y="248.271345"/>
     <use style="fill:#fc4f30;stroke:#fc4f30;" x="454.499558" xlink:href="#m324192afde" y="248.859888"/>
     <use style="fill:#fc4f30;stroke:#fc4f30;" x="458.730963" xlink:href="#m324192afde" y="249.185269"/>
     <use style="fill:#fc4f30;stroke:#fc4f30;" x="462.962368" xlink:href="#m324192afde" y="249.242713"/>
     <use style="fill:#fc4f30;stroke:#fc4f30;" x="467.193773" xlink:href="#m324192afde" y="249.031378"/>
     <use style="fill:#fc4f30;stroke:#fc4f30;" x="471.425178" xlink:href="#m324192afde" y="248.554365"/>
     <use style="fill:#fc4f30;stroke:#fc4f30;" x="475.656583" xlink:href="#m324192afde" y="247.818673"/>
     <use style="fill:#fc4f30;stroke:#fc4f30;" x="479.887988" xlink:href="#m324192afde" y="246.835099"/>
     <use style="fill:#fc4f30;stroke:#fc4f30;" x="484.119393" xlink:href="#m324192afde" y="245.618075"/>
     <use style="fill:#fc4f30;stroke:#fc4f30;" x="488.350798" xlink:href="#m324192afde" y="244.185461"/>
     <use style="fill:#fc4f30;stroke:#fc4f30;" x="492.582203" xlink:href="#m324192afde" y="242.55828"/>
     <use style="fill:#fc4f30;stroke:#fc4f30;" x="496.813608" xlink:href="#m324192afde" y="240.76041"/>
    </g>
   </g>
   <g id="patch_3">
    <path d="M 56.959063 230.926491 
L 56.959063 10.999219 
" style="fill:none;stroke:#ffffff;stroke-linecap:square;stroke-linejoin:miter;stroke-width:3;"/>
   </g>
   <g id="patch_4">
    <path d="M 517.759062 230.926491 
L 517.759062 10.999219 
" style="fill:none;stroke:#ffffff;stroke-linecap:square;stroke-linejoin:miter;stroke-width:3;"/>
   </g>
   <g id="patch_5">
    <path d="M 56.959063 230.926491 
L 517.759062 230.926491 
" style="fill:none;stroke:#ffffff;stroke-linecap:square;stroke-linejoin:miter;stroke-width:3;"/>
   </g>
   <g id="patch_6">
    <path d="M 56.959063 10.999219 
L 517.759062 10.999219 
" style="fill:none;stroke:#ffffff;stroke-linecap:square;stroke-linejoin:miter;stroke-width:3;"/>
   </g>
  </g>
  <g id="axes_2">
   <g id="patch_7">
    <path d="M 56.959063 494.839219 
L 517.759062 494.839219 
L 517.759062 274.911946 
L 56.959063 274.911946 
z
" style="fill:#ffffff;"/>
   </g>
   <g id="matplotlib.axis_3">
    <g id="xtick_8">
     <g id="line2d_30">
      <path clip-path="url(#p1de4ad6330)" d="M 77.904517 494.839219 
L 77.904517 274.911946 
" style="fill:none;stroke:#cbcbcb;"/>
     </g>
     <g id="line2d_31"/>
     <g id="text_10">
      <!-- 0 -->
      <g transform="translate(74.723267 505.937656)scale(0.1 -0.1)">
       <use xlink:href="#DejaVuSans-30"/>
      </g>
     </g>
    </g>
    <g id="xtick_9">
     <g id="line2d_32">
      <path clip-path="url(#p1de4ad6330)" d="M 147.722699 494.839219 
L 147.722699 274.911946 
" style="fill:none;stroke:#cbcbcb;"/>
     </g>
     <g id="line2d_33"/>
     <g id="text_11">
      <!-- 2 -->
      <g transform="translate(144.541449 505.937656)scale(0.1 -0.1)">
       <use xlink:href="#DejaVuSans-32"/>
      </g>
     </g>
    </g>
    <g id="xtick_10">
     <g id="line2d_34">
      <path clip-path="url(#p1de4ad6330)" d="M 217.540881 494.839219 
L 217.540881 274.911946 
" style="fill:none;stroke:#cbcbcb;"/>
     </g>
     <g id="line2d_35"/>
     <g id="text_12">
      <!-- 4 -->
      <g transform="translate(214.359631 505.937656)scale(0.1 -0.1)">
       <use xlink:href="#DejaVuSans-34"/>
      </g>
     </g>
    </g>
    <g id="xtick_11">
     <g id="line2d_36">
      <path clip-path="url(#p1de4ad6330)" d="M 287.359062 494.839219 
L 287.359062 274.911946 
" style="fill:none;stroke:#cbcbcb;"/>
     </g>
     <g id="line2d_37"/>
     <g id="text_13">
      <!-- 6 -->
      <g transform="translate(284.177812 505.937656)scale(0.1 -0.1)">
       <use xlink:href="#DejaVuSans-36"/>
      </g>
     </g>
    </g>
    <g id="xtick_12">
     <g id="line2d_38">
      <path clip-path="url(#p1de4ad6330)" d="M 357.177244 494.839219 
L 357.177244 274.911946 
" style="fill:none;stroke:#cbcbcb;"/>
     </g>
     <g id="line2d_39"/>
     <g id="text_14">
      <!-- 8 -->
      <g transform="translate(353.995994 505.937656)scale(0.1 -0.1)">
       <use xlink:href="#DejaVuSans-38"/>
      </g>
     </g>
    </g>
    <g id="xtick_13">
     <g id="line2d_40">
      <path clip-path="url(#p1de4ad6330)" d="M 426.995426 494.839219 
L 426.995426 274.911946 
" style="fill:none;stroke:#cbcbcb;"/>
     </g>
     <g id="line2d_41"/>
     <g id="text_15">
      <!-- 10 -->
      <g transform="translate(420.632926 505.937656)scale(0.1 -0.1)">
       <use xlink:href="#DejaVuSans-31"/>
       <use x="63.623047" xlink:href="#DejaVuSans-30"/>
      </g>
     </g>
    </g>
    <g id="xtick_14">
     <g id="line2d_42">
      <path clip-path="url(#p1de4ad6330)" d="M 496.813608 494.839219 
L 496.813608 274.911946 
" style="fill:none;stroke:#cbcbcb;"/>
     </g>
     <g id="line2d_43"/>
     <g id="text_16">
      <!-- 12 -->
      <g transform="translate(490.451108 505.937656)scale(0.1 -0.1)">
       <use xlink:href="#DejaVuSans-31"/>
       <use x="63.623047" xlink:href="#DejaVuSans-32"/>
      </g>
     </g>
    </g>
   </g>
   <g id="matplotlib.axis_4">
    <g id="ytick_8">
     <g id="line2d_44">
      <path clip-path="url(#p1de4ad6330)" d="M 56.959063 484.847446 
L 517.759062 484.847446 
" style="fill:none;stroke:#cbcbcb;"/>
     </g>
     <g id="line2d_45"/>
     <g id="text_17">
      <!-- −1.00 -->
      <defs>
       <path d="M 10.59375 35.5 
L 73.1875 35.5 
L 73.1875 27.203125 
L 10.59375 27.203125 
z
" id="DejaVuSans-2212"/>
       <path d="M 10.6875 12.40625 
L 21 12.40625 
L 21 0 
L 10.6875 0 
z
" id="DejaVuSans-2e"/>
      </defs>
      <g transform="translate(22.81375 488.646665)scale(0.1 -0.1)">
       <use xlink:href="#DejaVuSans-2212"/>
       <use x="83.789062" xlink:href="#DejaVuSans-31"/>
       <use x="147.412109" xlink:href="#DejaVuSans-2e"/>
       <use x="179.199219" xlink:href="#DejaVuSans-30"/>
       <use x="242.822266" xlink:href="#DejaVuSans-30"/>
      </g>
     </g>
    </g>
    <g id="ytick_9">
     <g id="line2d_46">
      <path clip-path="url(#p1de4ad6330)" d="M 56.959063 459.855095 
L 517.759062 459.855095 
" style="fill:none;stroke:#cbcbcb;"/>
     </g>
     <g id="line2d_47"/>
     <g id="text_18">
      <!-- −0.75 -->
      <defs>
       <path d="M 8.203125 72.90625 
L 55.078125 72.90625 
L 55.078125 68.703125 
L 28.609375 0 
L 18.3125 0 
L 43.21875 64.59375 
L 8.203125 64.59375 
z
" id="DejaVuSans-37"/>
       <path d="M 10.796875 72.90625 
L 49.515625 72.90625 
L 49.515625 64.59375 
L 19.828125 64.59375 
L 19.828125 46.734375 
Q 21.96875 47.46875 24.109375 47.828125 
Q 26.265625 48.1875 28.421875 48.1875 
Q 40.625 48.1875 47.75 41.5 
Q 54.890625 34.8125 54.890625 23.390625 
Q 54.890625 11.625 47.5625 5.09375 
Q 40.234375 -1.421875 26.90625 -1.421875 
Q 22.3125 -1.421875 17.546875 -0.640625 
Q 12.796875 0.140625 7.71875 1.703125 
L 7.71875 11.625 
Q 12.109375 9.234375 16.796875 8.0625 
Q 21.484375 6.890625 26.703125 6.890625 
Q 35.15625 6.890625 40.078125 11.328125 
Q 45.015625 15.765625 45.015625 23.390625 
Q 45.015625 31 40.078125 35.4375 
Q 35.15625 39.890625 26.703125 39.890625 
Q 22.75 39.890625 18.8125 39.015625 
Q 14.890625 38.140625 10.796875 36.28125 
z
" id="DejaVuSans-35"/>
      </defs>
      <g transform="translate(22.81375 463.654314)scale(0.1 -0.1)">
       <use xlink:href="#DejaVuSans-2212"/>
       <use x="83.789062" xlink:href="#DejaVuSans-30"/>
       <use x="147.412109" xlink:href="#DejaVuSans-2e"/>
       <use x="179.199219" xlink:href="#DejaVuSans-37"/>
       <use x="242.822266" xlink:href="#DejaVuSans-35"/>
      </g>
     </g>
    </g>
    <g id="ytick_10">
     <g id="line2d_48">
      <path clip-path="url(#p1de4ad6330)" d="M 56.959063 434.862744 
L 517.759062 434.862744 
" style="fill:none;stroke:#cbcbcb;"/>
     </g>
     <g id="line2d_49"/>
     <g id="text_19">
      <!-- −0.50 -->
      <g transform="translate(22.81375 438.661963)scale(0.1 -0.1)">
       <use xlink:href="#DejaVuSans-2212"/>
       <use x="83.789062" xlink:href="#DejaVuSans-30"/>
       <use x="147.412109" xlink:href="#DejaVuSans-2e"/>
       <use x="179.199219" xlink:href="#DejaVuSans-35"/>
       <use x="242.822266" xlink:href="#DejaVuSans-30"/>
      </g>
     </g>
    </g>
    <g id="ytick_11">
     <g id="line2d_50">
      <path clip-path="url(#p1de4ad6330)" d="M 56.959063 409.870394 
L 517.759062 409.870394 
" style="fill:none;stroke:#cbcbcb;"/>
     </g>
     <g id="line2d_51"/>
     <g id="text_20">
      <!-- −0.25 -->
      <g transform="translate(22.81375 413.669612)scale(0.1 -0.1)">
       <use xlink:href="#DejaVuSans-2212"/>
       <use x="83.789062" xlink:href="#DejaVuSans-30"/>
       <use x="147.412109" xlink:href="#DejaVuSans-2e"/>
       <use x="179.199219" xlink:href="#DejaVuSans-32"/>
       <use x="242.822266" xlink:href="#DejaVuSans-35"/>
      </g>
     </g>
    </g>
    <g id="ytick_12">
     <g id="line2d_52">
      <path clip-path="url(#p1de4ad6330)" d="M 56.959063 384.878043 
L 517.759062 384.878043 
" style="fill:none;stroke:#cbcbcb;"/>
     </g>
     <g id="line2d_53"/>
     <g id="text_21">
      <!-- 0.00 -->
      <g transform="translate(31.193438 388.677262)scale(0.1 -0.1)">
       <use xlink:href="#DejaVuSans-30"/>
       <use x="63.623047" xlink:href="#DejaVuSans-2e"/>
       <use x="95.410156" xlink:href="#DejaVuSans-30"/>
       <use x="159.033203" xlink:href="#DejaVuSans-30"/>
      </g>
     </g>
    </g>
    <g id="ytick_13">
     <g id="line2d_54">
      <path clip-path="url(#p1de4ad6330)" d="M 56.959063 359.885692 
L 517.759062 359.885692 
" style="fill:none;stroke:#cbcbcb;"/>
     </g>
     <g id="line2d_55"/>
     <g id="text_22">
      <!-- 0.25 -->
      <g transform="translate(31.193438 363.684911)scale(0.1 -0.1)">
       <use xlink:href="#DejaVuSans-30"/>
       <use x="63.623047" xlink:href="#DejaVuSans-2e"/>
       <use x="95.410156" xlink:href="#DejaVuSans-32"/>
       <use x="159.033203" xlink:href="#DejaVuSans-35"/>
      </g>
     </g>
    </g>
    <g id="ytick_14">
     <g id="line2d_56">
      <path clip-path="url(#p1de4ad6330)" d="M 56.959063 334.893342 
L 517.759062 334.893342 
" style="fill:none;stroke:#cbcbcb;"/>
     </g>
     <g id="line2d_57"/>
     <g id="text_23">
      <!-- 0.50 -->
      <g transform="translate(31.193438 338.69256)scale(0.1 -0.1)">
       <use xlink:href="#DejaVuSans-30"/>
       <use x="63.623047" xlink:href="#DejaVuSans-2e"/>
       <use x="95.410156" xlink:href="#DejaVuSans-35"/>
       <use x="159.033203" xlink:href="#DejaVuSans-30"/>
      </g>
     </g>
    </g>
    <g id="ytick_15">
     <g id="line2d_58">
      <path clip-path="url(#p1de4ad6330)" d="M 56.959063 309.900991 
L 517.759062 309.900991 
" style="fill:none;stroke:#cbcbcb;"/>
     </g>
     <g id="line2d_59"/>
     <g id="text_24">
      <!-- 0.75 -->
      <g transform="translate(31.193438 313.70021)scale(0.1 -0.1)">
       <use xlink:href="#DejaVuSans-30"/>
       <use x="63.623047" xlink:href="#DejaVuSans-2e"/>
       <use x="95.410156" xlink:href="#DejaVuSans-37"/>
       <use x="159.033203" xlink:href="#DejaVuSans-35"/>
      </g>
     </g>
    </g>
    <g id="ytick_16">
     <g id="line2d_60">
      <path clip-path="url(#p1de4ad6330)" d="M 56.959063 284.90864 
L 517.759062 284.90864 
" style="fill:none;stroke:#cbcbcb;"/>
     </g>
     <g id="line2d_61"/>
     <g id="text_25">
      <!-- 1.00 -->
      <g transform="translate(31.193438 288.707859)scale(0.1 -0.1)">
       <use xlink:href="#DejaVuSans-31"/>
       <use x="63.623047" xlink:href="#DejaVuSans-2e"/>
       <use x="95.410156" xlink:href="#DejaVuSans-30"/>
       <use x="159.033203" xlink:href="#DejaVuSans-30"/>
      </g>
     </g>
    </g>
    <g id="text_26">
     <!-- $\sf Y_2$ -->
     <defs>
      <path d="M -0.203125 72.90625 
L 10.40625 72.90625 
L 30.609375 42.921875 
L 50.6875 72.90625 
L 61.28125 72.90625 
L 35.5 34.71875 
L 35.5 0 
L 25.59375 0 
L 25.59375 34.71875 
z
" id="DejaVuSans-59"/>
     </defs>
     <g transform="translate(16.318125 391.475582)rotate(-90)scale(0.12 -0.12)">
      <use transform="translate(0 0.09375)" xlink:href="#DejaVuSans-59"/>
      <use transform="translate(62.041016 -16.3125)scale(0.7)" xlink:href="#DejaVuSans-32"/>
     </g>
    </g>
   </g>
   <g id="line2d_62">
    <g clip-path="url(#p1de4ad6330)">
     <use style="fill:#fc4f30;stroke:#fc4f30;" x="77.904517" xlink:href="#m324192afde" y="284.90864"/>
     <use style="fill:#fc4f30;stroke:#fc4f30;" x="82.135922" xlink:href="#m324192afde" y="285.642136"/>
     <use style="fill:#fc4f30;stroke:#fc4f30;" x="86.367327" xlink:href="#m324192afde" y="287.831858"/>
     <use style="fill:#fc4f30;stroke:#fc4f30;" x="90.598732" xlink:href="#m324192afde" y="291.445675"/>
     <use style="fill:#fc4f30;stroke:#fc4f30;" x="94.830137" xlink:href="#m324192afde" y="296.430556"/>
     <use style="fill:#fc4f30;stroke:#fc4f30;" x="99.061542" xlink:href="#m324192afde" y="302.713351"/>
     <use style="fill:#fc4f30;stroke:#fc4f30;" x="103.292947" xlink:href="#m324192afde" y="310.201862"/>
     <use style="fill:#fc4f30;stroke:#fc4f30;" x="107.524352" xlink:href="#m324192afde" y="318.786202"/>
     <use style="fill:#fc4f30;stroke:#fc4f30;" x="111.755757" xlink:href="#m324192afde" y="328.3404"/>
     <use style="fill:#fc4f30;stroke:#fc4f30;" x="115.987162" xlink:href="#m324192afde" y="338.724254"/>
     <use style="fill:#fc4f30;stroke:#fc4f30;" x="120.218567" xlink:href="#m324192afde" y="349.785387"/>
     <use style="fill:#fc4f30;stroke:#fc4f30;" x="124.449972" xlink:href="#m324192afde" y="361.361483"/>
     <use style="fill:#fc4f30;stroke:#fc4f30;" x="128.681377" xlink:href="#m324192afde" y="373.282671"/>
     <use style="fill:#fc4f30;stroke:#fc4f30;" x="132.912782" xlink:href="#m324192afde" y="385.374014"/>
     <use style="fill:#fc4f30;stroke:#fc4f30;" x="137.144186" xlink:href="#m324192afde" y="397.458079"/>
     <use style="fill:#fc4f30;stroke:#fc4f30;" x="141.375591" xlink:href="#m324192afde" y="409.357539"/>
     <use style="fill:#fc4f30;stroke:#fc4f30;" x="145.606996" xlink:href="#m324192afde" y="420.897778"/>
     <use style="fill:#fc4f30;stroke:#fc4f30;" x="149.838401" xlink:href="#m324192afde" y="431.909448"/>
     <use style="fill:#fc4f30;stroke:#fc4f30;" x="154.069806" xlink:href="#m324192afde" y="442.230961"/>
     <use style="fill:#fc4f30;stroke:#fc4f30;" x="158.301211" xlink:href="#m324192afde" y="451.710855"/>
     <use style="fill:#fc4f30;stroke:#fc4f30;" x="162.532616" xlink:href="#m324192afde" y="460.210017"/>
     <use style="fill:#fc4f30;stroke:#fc4f30;" x="166.764021" xlink:href="#m324192afde" y="467.603728"/>
     <use style="fill:#fc4f30;stroke:#fc4f30;" x="170.995426" xlink:href="#m324192afde" y="473.783489"/>
     <use style="fill:#fc4f30;stroke:#fc4f30;" x="175.226831" xlink:href="#m324192afde" y="478.658616"/>
     <use style="fill:#fc4f30;stroke:#fc4f30;" x="179.458236" xlink:href="#m324192afde" y="482.15757"/>
     <use style="fill:#fc4f30;stroke:#fc4f30;" x="183.689641" xlink:href="#m324192afde" y="484.229005"/>
     <use style="fill:#fc4f30;stroke:#fc4f30;" x="187.921046" xlink:href="#m324192afde" y="484.842525"/>
     <use style="fill:#fc4f30;stroke:#fc4f30;" x="192.152451" xlink:href="#m324192afde" y="483.989126"/>
     <use style="fill:#fc4f30;stroke:#fc4f30;" x="196.383856" xlink:href="#m324192afde" y="481.681331"/>
     <use style="fill:#fc4f30;stroke:#fc4f30;" x="200.615261" xlink:href="#m324192afde" y="477.953006"/>
     <use style="fill:#fc4f30;stroke:#fc4f30;" x="204.846666" xlink:href="#m324192afde" y="472.858863"/>
     <use style="fill:#fc4f30;stroke:#fc4f30;" x="209.078071" xlink:href="#m324192afde" y="466.473654"/>
     <use style="fill:#fc4f30;stroke:#fc4f30;" x="213.309476" xlink:href="#m324192afde" y="458.891078"/>
     <use style="fill:#fc4f30;stroke:#fc4f30;" x="217.540881" xlink:href="#m324192afde" y="450.222405"/>
     <use style="fill:#fc4f30;stroke:#fc4f30;" x="221.772286" xlink:href="#m324192afde" y="440.594844"/>
     <use style="fill:#fc4f30;stroke:#fc4f30;" x="226.003691" xlink:href="#m324192afde" y="430.149672"/>
     <use style="fill:#fc4f30;stroke:#fc4f30;" x="230.235096" xlink:href="#m324192afde" y="419.040165"/>
     <use style="fill:#fc4f30;stroke:#fc4f30;" x="234.466501" xlink:href="#m324192afde" y="407.429351"/>
     <use style="fill:#fc4f30;stroke:#fc4f30;" x="238.697905" xlink:href="#m324192afde" y="395.487609"/>
     <use style="fill:#fc4f30;stroke:#fc4f30;" x="242.92931" xlink:href="#m324192afde" y="383.390179"/>
     <use style="fill:#fc4f30;stroke:#fc4f30;" x="247.160715" xlink:href="#m324192afde" y="371.314582"/>
     <use style="fill:#fc4f30;stroke:#fc4f30;" x="251.39212" xlink:href="#m324192afde" y="359.43802"/>
     <use style="fill:#fc4f30;stroke:#fc4f30;" x="255.623525" xlink:href="#m324192afde" y="347.934776"/>
     <use style="fill:#fc4f30;stroke:#fc4f30;" x="259.85493" xlink:href="#m324192afde" y="336.973652"/>
     <use style="fill:#fc4f30;stroke:#fc4f30;" x="264.086335" xlink:href="#m324192afde" y="326.715496"/>
     <use style="fill:#fc4f30;stroke:#fc4f30;" x="268.31774" xlink:href="#m324192afde" y="317.31084"/>
     <use style="fill:#fc4f30;stroke:#fc4f30;" x="272.549145" xlink:href="#m324192afde" y="308.897692"/>
     <use style="fill:#fc4f30;stroke:#fc4f30;" x="276.78055" xlink:href="#m324192afde" y="301.599511"/>
     <use style="fill:#fc4f30;stroke:#fc4f30;" x="281.011955" xlink:href="#m324192afde" y="295.523391"/>
     <use style="fill:#fc4f30;stroke:#fc4f30;" x="285.24336" xlink:href="#m324192afde" y="290.758498"/>
     <use style="fill:#fc4f30;stroke:#fc4f30;" x="289.474765" xlink:href="#m324192afde" y="287.374752"/>
     <use style="fill:#fc4f30;stroke:#fc4f30;" x="293.70617" xlink:href="#m324192afde" y="285.421808"/>
     <use style="fill:#fc4f30;stroke:#fc4f30;" x="297.937575" xlink:href="#m324192afde" y="284.928325"/>
     <use style="fill:#fc4f30;stroke:#fc4f30;" x="302.16898" xlink:href="#m324192afde" y="285.901543"/>
     <use style="fill:#fc4f30;stroke:#fc4f30;" x="306.400385" xlink:href="#m324192afde" y="288.327183"/>
     <use style="fill:#fc4f30;stroke:#fc4f30;" x="310.63179" xlink:href="#m324192afde" y="292.169648"/>
     <use style="fill:#fc4f30;stroke:#fc4f30;" x="314.863195" xlink:href="#m324192afde" y="297.372552"/>
     <use style="fill:#fc4f30;stroke:#fc4f30;" x="319.0946" xlink:href="#m324192afde" y="303.859548"/>
     <use style="fill:#fc4f30;stroke:#fc4f30;" x="323.326005" xlink:href="#m324192afde" y="311.535441"/>
     <use style="fill:#fc4f30;stroke:#fc4f30;" x="327.55741" xlink:href="#m324192afde" y="320.287592"/>
     <use style="fill:#fc4f30;stroke:#fc4f30;" x="331.788815" xlink:href="#m324192afde" y="329.98757"/>
     <use style="fill:#fc4f30;stroke:#fc4f30;" x="336.02022" xlink:href="#m324192afde" y="340.493032"/>
     <use style="fill:#fc4f30;stroke:#fc4f30;" x="340.251624" xlink:href="#m324192afde" y="351.649818"/>
     <use style="fill:#fc4f30;stroke:#fc4f30;" x="344.483029" xlink:href="#m324192afde" y="363.294207"/>
     <use style="fill:#fc4f30;stroke:#fc4f30;" x="348.714434" xlink:href="#m324192afde" y="375.255327"/>
     <use style="fill:#fc4f30;stroke:#fc4f30;" x="352.945839" xlink:href="#m324192afde" y="387.357654"/>
     <use style="fill:#fc4f30;stroke:#fc4f30;" x="357.177244" xlink:href="#m324192afde" y="399.423594"/>
     <use style="fill:#fc4f30;stroke:#fc4f30;" x="361.408649" xlink:href="#m324192afde" y="411.276088"/>
     <use style="fill:#fc4f30;stroke:#fc4f30;" x="365.640054" xlink:href="#m324192afde" y="422.741205"/>
     <use style="fill:#fc4f30;stroke:#fc4f30;" x="369.871459" xlink:href="#m324192afde" y="433.650704"/>
     <use style="fill:#fc4f30;stroke:#fc4f30;" x="374.102864" xlink:href="#m324192afde" y="443.844493"/>
     <use style="fill:#fc4f30;stroke:#fc4f30;" x="378.334269" xlink:href="#m324192afde" y="453.172985"/>
     <use style="fill:#fc4f30;stroke:#fc4f30;" x="382.565674" xlink:href="#m324192afde" y="461.49929"/>
     <use style="fill:#fc4f30;stroke:#fc4f30;" x="386.797079" xlink:href="#m324192afde" y="468.701224"/>
     <use style="fill:#fc4f30;stroke:#fc4f30;" x="391.028484" xlink:href="#m324192afde" y="474.673103"/>
     <use style="fill:#fc4f30;stroke:#fc4f30;" x="395.259889" xlink:href="#m324192afde" y="479.327294"/>
     <use style="fill:#fc4f30;stroke:#fc4f30;" x="399.491294" xlink:href="#m324192afde" y="482.595499"/>
     <use style="fill:#fc4f30;stroke:#fc4f30;" x="403.722699" xlink:href="#m324192afde" y="484.429759"/>
     <use style="fill:#fc4f30;stroke:#fc4f30;" x="407.954104" xlink:href="#m324192afde" y="484.803157"/>
     <use style="fill:#fc4f30;stroke:#fc4f30;" x="412.185509" xlink:href="#m324192afde" y="483.710215"/>
     <use style="fill:#fc4f30;stroke:#fc4f30;" x="416.416914" xlink:href="#m324192afde" y="481.16697"/>
     <use style="fill:#fc4f30;stroke:#fc4f30;" x="420.648319" xlink:href="#m324192afde" y="477.210743"/>
     <use style="fill:#fc4f30;stroke:#fc4f30;" x="424.879724" xlink:href="#m324192afde" y="471.899589"/>
     <use style="fill:#fc4f30;stroke:#fc4f30;" x="429.111129" xlink:href="#m324192afde" y="465.311446"/>
     <use style="fill:#fc4f30;stroke:#fc4f30;" x="433.342534" xlink:href="#m324192afde" y="457.542992"/>
     <use style="fill:#fc4f30;stroke:#fc4f30;" x="437.573939" xlink:href="#m324192afde" y="448.708223"/>
     <use style="fill:#fc4f30;stroke:#fc4f30;" x="441.805343" xlink:href="#m324192afde" y="438.936784"/>
     <use style="fill:#fc4f30;stroke:#fc4f30;" x="446.036748" xlink:href="#m324192afde" y="428.372066"/>
     <use style="fill:#fc4f30;stroke:#fc4f30;" x="450.268153" xlink:href="#m324192afde" y="417.1691"/>
     <use style="fill:#fc4f30;stroke:#fc4f30;" x="454.499558" xlink:href="#m324192afde" y="405.492281"/>
     <use style="fill:#fc4f30;stroke:#fc4f30;" x="458.730963" xlink:href="#m324192afde" y="393.512961"/>
     <use style="fill:#fc4f30;stroke:#fc4f30;" x="462.962368" xlink:href="#m324192afde" y="381.406929"/>
     <use style="fill:#fc4f30;stroke:#fc4f30;" x="467.193773" xlink:href="#m324192afde" y="369.351834"/>
     <use style="fill:#fc4f30;stroke:#fc4f30;" x="471.425178" xlink:href="#m324192afde" y="357.524576"/>
     <use style="fill:#fc4f30;stroke:#fc4f30;" x="475.656583" xlink:href="#m324192afde" y="346.098713"/>
     <use style="fill:#fc4f30;stroke:#fc4f30;" x="479.887988" xlink:href="#m324192afde" y="335.241915"/>
     <use style="fill:#fc4f30;stroke:#fc4f30;" x="484.119393" xlink:href="#m324192afde" y="325.113496"/>
     <use style="fill:#fc4f30;stroke:#fc4f30;" x="488.350798" xlink:href="#m324192afde" y="315.862086"/>
     <use style="fill:#fc4f30;stroke:#fc4f30;" x="492.582203" xlink:href="#m324192afde" y="307.623444"/>
     <use style="fill:#fc4f30;stroke:#fc4f30;" x="496.813608" xlink:href="#m324192afde" y="300.518467"/>
    </g>
   </g>
   <g id="patch_8">
    <path d="M 56.959063 494.839219 
L 56.959063 274.911946 
" style="fill:none;stroke:#ffffff;stroke-linecap:square;stroke-linejoin:miter;stroke-width:3;"/>
   </g>
   <g id="patch_9">
    <path d="M 517.759062 494.839219 
L 517.759062 274.911946 
" style="fill:none;stroke:#ffffff;stroke-linecap:square;stroke-linejoin:miter;stroke-width:3;"/>
   </g>
   <g id="patch_10">
    <path d="M 56.959063 494.839219 
L 517.759062 494.839219 
" style="fill:none;stroke:#ffffff;stroke-linecap:square;stroke-linejoin:miter;stroke-width:3;"/>
   </g>
   <g id="patch_11">
    <path d="M 56.959063 274.911946 
L 517.759062 274.911946 
" style="fill:none;stroke:#ffffff;stroke-linecap:square;stroke-linejoin:miter;stroke-width:3;"/>
   </g>
  </g>
 </g>
 <defs>
  <clipPath id="p8e38a7c1f2">
   <rect height="219.927273" width="460.8" x="56.959063" y="10.999219"/>
  </clipPath>
  <clipPath id="p1de4ad6330">
   <rect height="219.927273" width="460.8" x="56.959063" y="274.911946"/>
  </clipPath>
 </defs>
</svg>
