<?xml version="1.0" encoding="utf-8" standalone="no"?>
<!DOCTYPE svg PUBLIC "-//W3C//DTD SVG 1.1//EN"
  "http://www.w3.org/Graphics/SVG/1.1/DTD/svg11.dtd">
<!-- Created with matplotlib (http://matplotlib.org/) -->
<svg height="432pt" version="1.1" viewBox="0 0 576 432" width="576pt" xmlns="http://www.w3.org/2000/svg" xmlns:xlink="http://www.w3.org/1999/xlink">
 <defs>
  <style type="text/css">
*{stroke-linecap:butt;stroke-linejoin:round;}
  </style>
 </defs>
 <g id="figure_1">
  <g id="patch_1">
   <path d="
M0 432
L576 432
L576 0
L0 0
z
" style="fill:#ffffff;"/>
  </g>
  <g id="axes_1">
   <g id="patch_2">
    <path d="
M184.592 388.8
L405.808 388.8
L405.808 43.2
L184.592 43.2
z
" style="fill:#00ffff;"/>
   </g>
   <g id="patch_3">
    <path clip-path="url(#p1605bd9422)" d="
M197.886 388.8
L197.898 388.767
L197.809 388.304
L197.451 387.777
L197.182 386.85
L196.618 386.221
L196.678 386.088
L196.412 385.923
L196.143 385.46
L195.518 384.965
L195.578 384.37
L195.102 383.741
L195.191 383.313
L194.895 382.455
L193.944 381.792
L193.943 381.495
L194.076 381.512
L194.209 381.199
L194.419 381.032
L194.24 380.537
L194.359 380.241
L194.182 379.978
L194.522 379.991
L195.087 379.794
L195.132 379.547
L195.371 379.25
L195.37 378.787
L195.757 378.69
L195.726 378.492
L195.549 378.358
L195.37 377.203
L195.548 376.115
L195.726 376.015
L195.843 375.751
L195.815 375.356
L196.337 375.34
L196.827 374.961
L196.844 374.713
L197.228 374.943
L197.51 374.663
L197.599 373.806
L197.289 373.755
L197.182 373.574
L197.393 372.06
L197.242 371.467
L197.421 371.169
L197.42 370.872
L197.287 370.526
L197.051 370.559
L196.947 370.411
L197.139 370.164
L197.347 370.23
L197.57 370.083
L197.72 369.652
L197.57 369.52
L197.793 369.174
L198.061 369.075
L198.717 369.24
L199.221 369.077
L199.638 369.142
L199.68 368.927
L200.11 368.747
L200.291 368.418
L201.272 368.155
L201.494 367.84
L201.584 366.819
L201.703 366.656
L201.404 366.129
L201.523 365.834
L201.464 365.636
L201.673 365.503
L201.583 365.339
L201.882 365.174
L201.763 364.746
L202.519 365.323
L203.161 364.814
L203.115 364.5
L203.295 364.532
L203.592 364.335
L203.74 364.401
L204.23 363.758
L204.261 362.641
L204.141 362.476
L204.169 362.278
L203.992 362.114
L204.111 361.851
L203.992 361.687
L204.051 361.422
L203.902 360.864
L204.111 360.668
L204.023 360.305
L204.41 359.911
L204.348 359.548
L204.542 359.499
L204.675 359.253
L204.706 358.858
L204.527 358.596
L204.528 358.135
L204.409 357.871
L204.528 357.61
L204.439 357.116
L204.602 357.065
L204.645 356.92
L204.23 356
L203.753 355.605
L203.872 355.211
L203.664 354.915
L203.724 354.654
L202.878 353.716
L202.492 353.519
L202.312 353.716
L202.207 353.602
L202.298 353.338
L202.09 352.977
L202.177 352.683
L202.522 352.37
L202.61 352.405
L202.802 351.994
L202.835 351.534
L202.98 351.27
L202.952 350.878
L203.427 349.99
L203.398 349.53
L203.575 349.269
L203.518 348.549
L203.042 347.925
L203.011 347.628
L202.758 347.317
L202.044 346.826
L201.315 345.794
L201.288 345.234
L201.583 344.252
L201.585 343.891
L200.753 343.007
L200.782 342.351
L200.632 341.535
L200.634 340.944
L200.78 340.682
L200.692 340.189
L200.363 339.861
L200.278 339.21
L199.756 338.963
L199.621 338.684
L199.563 338.195
L200.037 337.669
L200.096 337.376
L200.007 336.558
L199.712 335.771
L199.756 335.592
L199.843 335.657
L200.053 335.329
L200.173 335.394
L200.276 335.215
L200.366 334.791
L200.186 334.266
L200.542 333.514
L200.604 333.09
L200.215 332.435
L199.977 332.273
L199.86 331.749
L199.562 331.618
L199.563 331.389
L199.681 331.227
L199.621 330.9
L199.712 330.702
L200.068 330.376
L200.007 330.049
L199.8 329.95
L200.365 329.462
L200.334 329.003
L200.126 328.807
L200.096 328.481
L200.485 327.959
L200.423 327.664
L200.721 327.24
L200.692 326.946
L200.901 326.62
L200.899 325.998
L200.632 325.575
L200.693 325.117
L200.306 324.563
L200.499 324.481
L200.676 324.578
L200.87 324.367
L200.989 323.942
L200.96 323.584
L200.691 323.257
L200.632 322.866
L201.168 322.147
L201.169 321.463
L201.407 320.908
L201.197 320.516
L201.317 320.093
L201.048 319.408
L201.3 319.359
L201.538 319.49
L201.673 319.377
L201.583 318.853
L201.733 318.397
L201.642 318.071
L202.001 317.745
L201.703 317.452
L201.615 317.191
L201.776 317.045
L202.252 316.981
L202.356 316.639
L202.327 316.409
L201.911 315.954
L201.851 315.301
L201.643 314.878
L201.688 314.699
L201.955 314.765
L202.237 314.617
L202.387 314.226
L202.328 313.867
L202.447 313.313
L202.447 313.151
L202.059 312.534
L202.06 311.229
L201.673 310.741
L201.792 310.645
L202.059 309.538
L201.823 308.886
L201.939 308.723
L201.912 308.269
L202.062 307.813
L201.851 307.521
L201.792 307.195
L202.104 307.144
L202.326 306.934
L202.536 306.382
L202.536 306.088
L202.134 305.552
L201.881 305.439
L201.823 304.951
L201.51 304.902
L201.435 304.723
L201.688 304.446
L202.269 304.204
L202.297 303.196
L202.118 302.74
L202.268 302.383
L202.148 302.187
L202.297 302.187
L202.387 301.83
L202.653 301.668
L202.907 301.23
L203.309 301.018
L203.233 300.741
L203.501 300.514
L203.769 300.546
L204.259 300.074
L204.736 298.678
L205.002 298.419
L205.182 297.771
L205.717 296.925
L205.776 296.537
L205.628 296.473
L205.629 296.212
L205.734 296.423
L205.776 296.082
L205.983 296.017
L206.014 295.369
L206.194 294.947
L206.162 294.394
L206.015 294.168
L206.134 293.551
L205.718 292.772
L205.924 292.285
L205.835 291.895
L205.629 291.704
L205.21 290.859
L204.007 289.807
L202.938 289.254
L202.312 289.158
L201.97 289.304
L201.762 290.535
L201.287 290.796
L201.407 291.185
L201.316 291.572
L200.765 292.011
L200.647 291.849
L200.498 291.945
L200.349 291.881
L200.261 291.685
L200.082 291.622
L199.785 291.719
L198.953 290.779
L198.476 290.747
L198.312 290.859
L198.312 291.215
L198.09 291.329
L197.837 291.153
L197.837 290.761
L198.133 290.406
L198.047 289.66
L198.283 289.044
L198.52 289.108
L198.597 289.514
L198.758 289.305
L198.879 288.362
L199.236 287.844
L199.234 287.263
L199.102 287.116
L198.937 287.164
L198.639 286.614
L198.877 286.159
L198.939 285.641
L198.849 285.349
L198.701 285.286
L198.699 285.059
L199.115 284.702
L199.177 284.184
L199.532 283.795
L199.444 283.538
L198.848 282.825
L198.819 282.632
L198.909 282.501
L198.819 282.371
L198.878 281.821
L198.789 281.693
L198.996 281.561
L199.026 281.335
L199.027 281.206
L198.79 281.045
L199.085 279.88
L198.967 279.718
L199.191 279.442
L199.458 279.412
L199.636 279.119
L199.934 279.217
L200.128 278.682
L200.306 278.487
L200.127 277.518
L199.888 277.226
L200.156 276.095
L199.888 275.611
L199.621 275.448
L199.651 275.318
L199.532 275.19
L199.712 274.994
L199.651 274.898
L199.832 274.769
L199.77 274.513
L199.638 274.495
L199.593 274.351
L199.816 274.333
L200.261 273.913
L200.351 273.945
L200.335 273.542
L200.603 273.38
L200.765 273.042
L201.54 272.784
L201.777 272.038
L202.104 272.037
L202.358 272.345
L202.475 272.733
L202.387 272.928
L202.388 273.929
L203.026 274.915
L203.501 274.948
L204.781 274.754
L206.029 274.108
L207.263 272.927
L207.74 272.217
L208.333 271.12
L208.571 269.989
L209.076 269.761
L209.254 269.019
L209.255 268.632
L209.137 268.504
L209.344 268.342
L209.316 268.083
L209.598 267.904
L209.746 267.938
L209.88 267.726
L209.851 266.5
L208.958 263.599
L209.107 263.242
L209.076 263.017
L209.256 262.855
L209.316 262.565
L209.314 262.308
L209.076 261.984
L209.791 261.437
L209.79 261.05
L209.7 260.953
L209.85 260.793
L209.88 260.374
L210.266 260.115
L210.266 259.889
L210.088 259.728
L210.235 259.246
L210.089 258.891
L210.265 258.698
L210.236 258.119
L210.103 257.974
L209.909 257.957
L209.88 257.763
L210.073 257.392
L210.579 257.264
L210.833 256.989
L210.801 256.603
L210.653 256.41
L210.742 256.024
L210.548 255.716
L210.326 255.67
L210.236 255.026
L210.326 254.896
L210.238 254.638
L210.058 254.51
L210.535 254.186
L210.653 253.769
L210.489 253.656
L210.994 253.558
L211.188 253.319
L211.276 252.546
L211.456 252.353
L211.337 252.064
L211.724 251.58
L211.574 251.065
L210.801 250.228
L210.832 249.971
L211.038 249.745
L211.128 249.361
L211.038 249.133
L211.157 249.006
L211.159 248.847
L210.92 248.621
L210.92 248.363
L211.084 248.349
L211.098 248.203
L211.246 248.106
L211.307 247.688
L211.574 247.27
L211.574 246.98
L211.247 246.625
L211.157 246.178
L211.396 245.759
L211.395 244.987
L211.784 244.634
L211.842 244.44
L211.784 243.828
L211.485 243.413
L211.96 242.866
L211.96 242.576
L211.722 242.095
L212.139 241.388
L212.049 241.131
L212.258 240.521
L212.11 240.167
L212.287 239.944
L212.347 239.591
L212.258 239.236
L212.05 239.076
L212.289 238.852
L212.347 238.177
L212.676 237.536
L212.554 237.215
L212.704 236.732
L212.468 236.284
L212.644 236.219
L212.599 236.011
L212.899 236.011
L213.165 235.85
L213.329 235.419
L213.268 235.034
L213.419 234.935
L213.507 234.518
L213.33 234.2
L213.418 233.878
L213.3 233.813
L213.328 233.557
L213.24 233.492
L213.33 233.429
L213.21 233.267
L213.268 232.981
L213.18 232.916
L213.418 232.723
L213.657 232.21
L213.655 231.568
L213.507 231.472
L213.954 230.959
L213.924 230.543
L214.102 229.967
L214.042 229.485
L213.745 228.971
L213.36 228.587
L213.521 228.476
L213.968 228.477
L214.653 227.9
L215.052 226.632
L214.994 226.184
L215.083 225.96
L214.963 225.289
L215.143 224.999
L214.994 224.712
L214.964 224.295
L214.517 223.368
L214.665 223.173
L214.667 222.79
L214.844 222.727
L214.875 221.894
L215.023 221.637
L214.994 221.191
L214.696 220.582
L214.964 218.439
L215.753 218.231
L215.959 217.815
L216.541 217.416
L216.898 216.679
L216.806 216.074
L217.017 215.753
L216.927 215.242
L217.535 214.745
L217.699 214.442
L217.522 213.739
L217.583 213.61
L217.432 213.483
L217.313 213.036
L217.341 212.717
L217.817 212.079
L217.848 211.79
L218.055 211.534
L218.236 211.023
L218.206 210.704
L217.669 209.809
L217.373 208.948
L217.136 208.659
L217.165 208.434
L216.778 207.509
L216.807 207.126
L217.195 206.967
L217.416 206.602
L217.699 206.425
L217.906 205.978
L217.908 205.53
L217.671 204.83
L217.105 203.807
L217.136 203.583
L217.313 203.458
L217.314 202.979
L217.044 202.501
L216.835 202.341
L216.807 201.353
L216.272 200.811
L216.244 200.301
L215.945 200.142
L216.123 200.013
L216.065 199.789
L215.841 199.517
L215.707 199.503
L215.737 199.343
L215.44 199.089
L215.914 198.355
L215.767 197.527
L214.696 196.381
L214.549 195.901
L214.399 195.805
L214.251 195.456
L214.311 195.328
L213.864 195.074
L214.071 194.755
L214.102 194.502
L214.281 194.373
L214.34 194.055
L214.667 193.703
L214.607 193.291
L214.935 193.068
L215.141 192.559
L215.485 192.351
L215.708 191.984
L215.561 191.253
L215.173 190.871
L215.351 190.583
L215.35 190.425
L215.203 190.391
L215.35 190.075
L215.321 189.66
L215.143 189.534
L215.173 189.375
L214.995 189.025
L214.355 188.245
L213.833 187.91
L213.804 187.688
L213.537 187.37
L213.166 187.069
L212.734 186.956
L213.626 186.448
L213.12 184.764
L213.255 184.523
L213.685 184.253
L213.656 183.936
L213.239 183.681
L213.18 183.426
L213.239 183.077
L213.402 182.807
L213.507 182.822
L213.448 182.601
L213.595 182.314
L213.446 181.838
L213.627 181.583
L213.509 181.392
L213.775 180.98
L213.716 180.693
L213.418 180.407
L213.448 180.249
L213.181 179.74
L213.15 179.233
L213.268 178.787
L213.418 178.662
L213.328 178.09
L213.418 177.962
L213.33 177.614
L213.211 177.58
L213.299 176.818
L213.089 176.469
L213.284 176.072
L213.567 176.026
L213.626 175.738
L213.893 175.36
L214.251 175.135
L214.251 174.851
L214.429 174.63
L214.428 174.439
L214.192 174.281
L214.161 174.09
L214.488 173.864
L214.549 173.612
L214.398 173.167
L214.517 172.851
L214.34 172.184
L214.221 172.119
L214.517 171.582
L214.192 170.946
L213.685 170.439
L213.717 169.679
L213.908 169.346
L214.147 169.346
L214.502 169.124
L214.858 168.679
L215.039 168.68
L215.142 168.536
L215.292 168.221
L215.38 167.427
L215.589 167.269
L215.498 167.046
L215.648 166.857
L215.529 166.507
L215.588 166.095
L215.35 165.62
L214.787 165.051
L214.755 164.955
L214.919 164.971
L214.964 164.797
L214.577 164.257
L214.668 164.068
L214.503 164.052
L214.428 163.91
L214.621 163.608
L214.607 163.782
L214.726 163.72
L214.696 163.943
L214.8 164.022
L215.231 163.655
L215.321 163.37
L215.231 162.834
L214.844 162.327
L214.814 162.008
L215.35 161.376
L215.321 161.122
L215.559 160.552
L215.5 160.299
L215.707 160.076
L215.915 159.443
L215.737 159.096
L215.737 158.843
L215.469 158.652
L215.529 158.495
L215.38 158.368
L215.559 158.273
L215.707 157.829
L215.647 157.101
L215.886 156.438
L215.797 155.582
L215.619 155.107
L215.26 154.635
L215.291 153.873
L215.113 153.432
L215.29 153.115
L215.142 152.513
L214.934 152.324
L215.115 151.944
L215.5 151.533
L215.173 150.966
L215.26 150.775
L215.114 150.397
L214.814 150.175
L214.935 149.954
L214.742 149.716
L214.414 149.622
L214.281 149.417
L214.326 149.273
L214.563 149.401
L214.549 149.196
L214.816 148.944
L214.844 147.993
L214.964 147.93
L214.963 147.772
L214.547 147.173
L214.757 146.604
L214.696 146.225
L214.844 145.972
L214.786 145.467
L214.593 145.199
L214.429 145.151
L214.177 144.661
L213.953 144.583
L214.369 144.107
L214.354 143.839
L213.922 143.571
L214.19 143.1
L213.538 142.498
L213.461 142.262
L212.733 141.931
L212.986 141.631
L212.778 141.599
L212.631 141.409
L212.481 141.473
L212.184 141.157
L211.665 140.952
L211.768 140.778
L212.272 140.81
L212.66 140.683
L212.882 140.446
L212.942 139.847
L212.838 139.611
L212.586 139.5
L212.912 139.247
L212.676 138.776
L212.764 138.522
L212.676 138.207
L212.809 138.19
L213.001 137.922
L213.001 137.607
L212.882 137.45
L213.001 137.229
L212.973 136.944
L212.778 136.961
L212.673 136.851
L212.705 136.693
L212.408 135.777
L212.406 135.62
L212.526 135.556
L212.437 135.021
L212.08 134.832
L212.2 134.674
L212.199 134.485
L212.049 134.295
L212.049 133.918
L212.2 133.76
L212.138 133.538
L211.813 133.445
L211.692 133.13
L211.782 132.72
L211.337 131.994
L210.861 131.492
L210.92 131.331
L210.83 131.018
L210.966 131.065
L211.129 130.767
L210.965 130.561
L210.58 130.435
L210.222 129.898
L210.028 129.852
L210.236 129.632
L210.176 129.569
L210.297 129.348
L210.058 129.254
L210.029 128.813
L210.148 128.718
L210.267 127.836
L210.148 127.3
L210.205 126.986
L209.999 126.859
L209.999 126.544
L210.562 125.946
L210.681 125.63
L210.446 125.223
L210.384 124.876
L210.386 124.499
L210.653 123.712
L210.238 123.239
L210.267 123.083
L210.088 122.893
L210.177 122.168
L209.851 121.414
L209.582 121.07
L209.672 120.784
L209.343 120.376
L209.286 119.997
L209.107 119.78
L209.135 119.4
L208.898 119.117
L208.87 118.74
L209.107 118.456
L208.985 118.237
L209.163 117.892
L209.044 117.388
L209.104 116.791
L208.956 116.32
L208.718 116.13
L208.806 115.566
L208.479 114.685
L208.541 114.277
L208.391 113.899
L208.389 113.239
L208.183 112.706
L207.647 112.015
L207.647 111.042
L207.41 110.603
L207.44 110.446
L207.291 110.384
L207.5 110.288
L207.647 109.974
L207.649 109.377
L208.182 109.063
L208.005 107.304
L208.21 106.864
L208.213 106.02
L207.708 104.921
L208.094 104.042
L208.153 101.595
L208.392 101.312
L208.33 100.873
L208.658 100.653
L208.926 99.8693
L208.747 99.3988
L208.449 99.0561
L208.569 98.5211
L208.3 98.3038
L208.464 98.1302
L208.42 98.3331
L208.672 98.4752
L208.644 98.2243
L208.821 98.3486
L209.343 97.9244
L209.402 97.5494
L209.313 97.1106
L207.498 94.5108
L205.55 92.6771
L201.389 89.7345
L198.889 88.2007
L196.067 86.7016
L195.591 86.2312
L195.456 86.2157
L195.057 85.6995
L194.922 85.6846
L194.922 85.4646
L194.669 85.1977
L194.252 84.9485
L194.208 84.5876
L194.016 84.3542
L193.39 83.9476
L193.033 83.4782
L192.498 83.1979
L192.23 82.8205
L191.696 82.4775
L191.279 82.3828
L191.295 82.148
L191.16 81.9774
L190.804 81.7884
L190.149 81.7584
L190.059 81.5717
L189.702 81.5082
L189.376 81.2571
L189.168 81.2571
L188.664 80.8192
L188.573 80.913
L188.501 80.6119
L188.709 80.2379
L188.472 79.8306
L188.413 79.3312
L187.669 78.7062
L187.788 78.3623
L187.623 78.1884
L187.357 78.223
L187.178 77.752
L187.058 77.7228
L186.941 77.8779
L186.776 77.7666
L186.673 77.379
L186.316 77.1896
L185.959 77.1581
L185.543 76.7219
L184.592 76.1569
L184.592 43.2
L405.808 43.2
L405.808 388.8
z
" style="fill:#ffffff;"/>
   </g>
   <g id="patch_4">
    <path clip-path="url(#p1605bd9422)" d="
M330.077 123.774
L329.086 124.288
L328.491 124.466
L327.441 125.495
L327.292 125.39
L327.401 124.98
L326.846 124.739
L325.845 123.931
L325.617 122.085
L325.617 121.151
L325.26 120.732
L325.24 120.501
L325.399 120.145
L324.656 118.551
L324.745 116.717
L324.18 115.47
L324.309 115.051
L324.646 114.873
L324.775 114.223
L324.081 113.626
L323.932 113.26
L323.248 113.05
L322.683 112.317
L321.395 111.793
L320.652 111.249
L320.107 111.008
L319.849 110.495
L320.681 109.511
L321.078 109.542
L321.306 109.228
L321.93 109.082
L322.218 108.841
L322.634 108.747
L322.743 108.59
L322.713 108.098
L322.475 107.815
L322.356 107.167
L322.247 107.01
L321.474 106.748
L321.246 105.943
L321.088 105.838
L320.602 105.807
L320.235 105.388
L320.037 105.336
L319.958 105.514
L319.571 105.65
L318.491 104.917
L317.787 104.06
L317.787 103.537
L317.985 102.941
L318.838 101.989
L319.363 101.738
L319.671 101.268
L320.008 101.09
L321.276 100.923
L321.534 100.662
L321.722 100.066
L322.059 99.6268
L322.584 99.3759
L322.604 98.6758
L323.209 97.725
L323.387 96.607
L323.734 96.1683
L324.438 95.8444
L324.804 95.4264
L325.062 94.3926
L325.409 93.7034
L325.508 93.0249
L325.231 92.0224
L325.24 91.0413
L325.052 90.4465
L324.983 89.7471
L324.804 89.4029
L323.754 88.3907
L322.802 88.0568
L322.515 87.556
L322.237 87.3265
L321.613 87.2222
L320.662 86.1063
L320.017 85.7098
L319.581 85.6368
L319.274 85.4283
L319.274 85.2198
L319.611 84.7818
L319.74 84.3958
L320.315 84.1873
L320.731 84.1979
L320.88 83.1134
L321.197 82.6444
L321.97 82.3942
L322.257 82.1649
L322.693 82.0919
L323.556 81.6542
L324.428 81.7584
L326.182 82.9362
L326.073 82.9571
L326.182 83.1134
L325.865 83.5722
L325.34 84.0933
L325.33 84.323
L324.646 85.7098
L324.428 86.5337
L324.091 87.2328
L324.061 87.6709
L324.249 88.2655
L324.467 88.5577
L325.449 89.382
L326.43 89.9558
L326.222 90.5193
L326.192 91.0101
L325.924 91.5319
L325.954 92.743
L325.498 94.633
L325.617 95.7922
L325.27 98.2995
L325.042 99.104
L325.092 99.5639
L324.854 99.8464
L324.517 100.808
L324.041 101.111
L323.883 103.443
L323.615 103.955
L323.377 105.231
L323.476 105.639
L323.684 105.691
L324.467 105.44
L325.082 105.65
L325.934 106.152
L326.123 106.487
L327.272 107.659
L327.708 108.517
L327.807 109.448
L328.115 110.171
L328.362 111.469
L329.036 113.647
L329.7 114.789
L330.473 115.837
L330.84 116.245
L331.762 116.874
L332.02 117.398
L332.049 118.121
L331.831 119.002
L331.99 119.316
L331.96 119.967
L331.574 120.606
L331.227 122.347
L330.939 123.102
L330.156 123.742
z
" style="fill:#00ffff;"/>
   </g>
   <g id="patch_5">
    <path clip-path="url(#p1605bd9422)" d="
M255.13 336.294
L254.971 336.272
L254.723 335.978
L254.337 335.106
L254.337 334.419
L254.674 332.882
L255.407 331.672
L256.586 330.386
L257.141 330.201
L257.617 330.299
L257.786 330.637
L257.934 331.443
L257.905 332.37
L257.647 333.623
L256.626 335.487
L256.259 335.956
L255.962 336.196
L255.357 336.327
z
" style="fill:#00ffff;"/>
   </g>
   <g id="patch_6">
    <path clip-path="url(#p1605bd9422)" d="
M286.567 124.393
L287.113 124.162
L287.321 124.214
L287.707 124.865
L288.758 125.62
L289.125 126.544
L289.224 127.216
L289.115 127.373
L288.728 127.499
L288.341 127.373
L287.499 126.156
L287.113 125.767
L285.586 125.473
L285.279 125.264
L285.12 124.907
L285.23 124.498
L285.586 124.34
L286.439 124.372
z
" style="fill:#00ffff;"/>
   </g>
   <g id="LineCollection_1">
    <defs>
     <path d="
M197.886 -43.2
L197.898 -43.233
L197.809 -43.6961
L197.451 -44.2233
L197.182 -45.1504
L196.618 -45.7785
L196.678 -45.9117
L196.412 -46.0773
L196.143 -46.54
L195.518 -47.0349
L195.578 -47.6298
L195.102 -48.2588
L195.191 -48.6872
L194.895 -49.545
L193.944 -50.2079
L193.943 -50.5052
L194.076 -50.4877
L194.209 -50.8012
L194.419 -50.9676
L194.24 -51.4628
L194.359 -51.7591
L194.182 -52.0221
L194.522 -52.0088
L195.087 -52.2059
L195.132 -52.4525
L195.371 -52.7497
L195.37 -53.213
L195.757 -53.3097
L195.726 -53.5079
L195.549 -53.6421
L195.37 -54.797
L195.548 -55.8848
L195.726 -55.985
L195.843 -56.2487
L195.815 -56.6438
L196.337 -56.6601
L196.827 -57.0394
L196.844 -57.287
L197.228 -57.0569
L197.51 -57.3374
L197.599 -58.1937
L197.289 -58.2453
L197.182 -58.4258
L197.393 -59.9399
L197.242 -60.5334
L197.421 -60.831
L197.42 -61.1276
L197.287 -61.4736
L197.051 -61.4407
L196.947 -61.5892
L197.139 -61.8362
L197.347 -61.7702
L197.57 -61.9174
L197.72 -62.3481
L197.57 -62.4796
L197.793 -62.8256
L198.061 -62.9245
L198.717 -62.7599
L199.221 -62.9233
L199.638 -62.8576
L199.68 -63.0726
L200.11 -63.253
L200.291 -63.5823
L201.272 -63.8446
L201.494 -64.1597
L201.584 -65.1806
L201.703 -65.3443
L201.404 -65.8709
L201.523 -66.1659
L201.464 -66.3636
L201.673 -66.4975
L201.583 -66.6608
L201.882 -66.8256
L201.763 -67.2545
L202.519 -66.6774
L203.161 -67.1864
L203.115 -67.5003
L203.295 -67.4684
L203.592 -67.6648
L203.74 -67.5992
L204.23 -68.2418
L204.261 -69.3594
L204.141 -69.5238
L204.169 -69.7223
L203.992 -69.8858
L204.111 -70.1487
L203.992 -70.3134
L204.051 -70.5775
L203.902 -71.1358
L204.111 -71.3318
L204.023 -71.6945
L204.41 -72.0892
L204.348 -72.4519
L204.542 -72.5013
L204.675 -72.7469
L204.706 -73.1424
L204.527 -73.4042
L204.528 -73.8655
L204.409 -74.1294
L204.528 -74.3903
L204.439 -74.8843
L204.602 -74.9345
L204.645 -75.0801
L204.23 -76.0003
L203.753 -76.3946
L203.872 -76.7886
L203.664 -77.0854
L203.724 -77.3461
L202.878 -78.2841
L202.492 -78.481
L202.312 -78.2841
L202.207 -78.3978
L202.298 -78.6617
L202.09 -79.0227
L202.177 -79.3173
L202.522 -79.6302
L202.61 -79.5953
L202.802 -80.0065
L202.835 -80.4662
L202.98 -80.7298
L202.952 -81.1225
L203.427 -82.0097
L203.398 -82.4701
L203.575 -82.7315
L203.518 -83.4511
L203.042 -84.0754
L203.011 -84.3717
L202.758 -84.6831
L202.044 -85.1739
L201.315 -86.2056
L201.288 -86.766
L201.583 -87.7484
L201.585 -88.1088
L200.753 -88.9926
L200.782 -89.6488
L200.632 -90.4655
L200.634 -91.0562
L200.78 -91.3183
L200.692 -91.8106
L200.363 -92.1391
L200.278 -92.7905
L199.756 -93.0372
L199.621 -93.3165
L199.563 -93.8053
L200.037 -94.3312
L200.096 -94.6236
L200.007 -95.4418
L199.712 -96.229
L199.756 -96.4079
L199.843 -96.3426
L200.053 -96.6708
L200.173 -96.6064
L200.276 -96.7852
L200.366 -97.2093
L200.186 -97.7339
L200.542 -98.4861
L200.604 -98.91
L200.215 -99.5649
L199.977 -99.7275
L199.86 -100.251
L199.562 -100.382
L199.563 -100.611
L199.681 -100.773
L199.621 -101.1
L199.712 -101.298
L200.068 -101.624
L200.007 -101.951
L199.8 -102.05
L200.365 -102.538
L200.334 -102.997
L200.126 -103.193
L200.096 -103.519
L200.485 -104.041
L200.423 -104.336
L200.721 -104.76
L200.692 -105.054
L200.901 -105.38
L200.899 -106.002
L200.632 -106.425
L200.693 -106.883
L200.306 -107.437
L200.499 -107.519
L200.676 -107.422
L200.87 -107.633
L200.989 -108.058
L200.96 -108.416
L200.691 -108.743
L200.632 -109.134
L201.168 -109.853
L201.169 -110.537
L201.407 -111.092
L201.197 -111.484
L201.317 -111.907
L201.048 -112.592
L201.3 -112.641
L201.538 -112.51
L201.673 -112.623
L201.583 -113.147
L201.733 -113.603
L201.642 -113.929
L202.001 -114.255
L201.703 -114.548
L201.615 -114.809
L201.776 -114.955
L202.252 -115.019
L202.356 -115.361
L202.327 -115.591
L201.911 -116.046
L201.851 -116.699
L201.643 -117.122
L201.688 -117.301
L201.955 -117.235
L202.237 -117.383
L202.387 -117.774
L202.328 -118.133
L202.447 -118.687
L202.447 -118.849
L202.059 -119.466
L202.06 -120.771
L201.673 -121.259
L201.792 -121.355
L202.059 -122.462
L201.823 -123.114
L201.939 -123.277
L201.912 -123.731
L202.062 -124.187
L201.851 -124.479
L201.792 -124.805
L202.104 -124.856
L202.326 -125.066
L202.536 -125.618
L202.536 -125.912
L202.134 -126.448
L201.881 -126.561
L201.823 -127.049
L201.51 -127.098
L201.435 -127.277
L201.688 -127.554
L202.269 -127.796
L202.297 -128.804
L202.118 -129.26
L202.268 -129.617
L202.148 -129.813
L202.297 -129.813
L202.387 -130.17
L202.653 -130.332
L202.907 -130.77
L203.309 -130.982
L203.233 -131.259
L203.501 -131.486
L203.769 -131.454
L204.259 -131.926
L204.736 -133.322
L205.002 -133.581
L205.182 -134.229
L205.717 -135.075
L205.776 -135.463
L205.628 -135.527
L205.629 -135.788
L205.734 -135.577
L205.776 -135.919
L205.983 -135.983
L206.014 -136.631
L206.194 -137.053
L206.162 -137.606
L206.015 -137.832
L206.134 -138.449
L205.718 -139.228
L205.924 -139.715
L205.835 -140.105
L205.629 -140.296
L205.21 -141.141
L204.007 -142.193
L202.938 -142.746
L202.312 -142.842
L201.97 -142.696
L201.762 -141.465
L201.287 -141.204
L201.407 -140.815
L201.316 -140.428
L200.765 -139.989
L200.647 -140.151
L200.498 -140.055
L200.349 -140.119
L200.261 -140.315
L200.082 -140.378
L199.785 -140.281
L198.953 -141.221
L198.476 -141.253
L198.312 -141.141
L198.312 -140.785
L198.09 -140.671
L197.837 -140.847
L197.837 -141.239
L198.133 -141.594
L198.047 -142.34
L198.283 -142.956
L198.52 -142.892
L198.597 -142.486
L198.758 -142.695
L198.879 -143.638
L199.236 -144.156
L199.234 -144.737
L199.102 -144.884
L198.937 -144.836
L198.639 -145.386
L198.877 -145.841
L198.939 -146.359
L198.849 -146.651
L198.701 -146.714
L198.699 -146.941
L199.115 -147.298
L199.177 -147.816
L199.532 -148.205
L199.444 -148.462
L198.848 -149.175
L198.819 -149.368
L198.909 -149.499
L198.819 -149.629
L198.878 -150.179
L198.789 -150.307
L198.996 -150.439
L199.026 -150.665
L199.027 -150.794
L198.79 -150.955
L199.085 -152.12
L198.967 -152.282
L199.191 -152.558
L199.458 -152.588
L199.636 -152.881
L199.934 -152.783
L200.128 -153.318
L200.306 -153.513
L200.127 -154.482
L199.888 -154.774
L200.156 -155.905
L199.888 -156.389
L199.621 -156.552
L199.651 -156.682
L199.532 -156.81
L199.712 -157.006
L199.651 -157.102
L199.832 -157.231
L199.77 -157.487
L199.638 -157.505
L199.593 -157.649
L199.816 -157.667
L200.261 -158.087
L200.351 -158.055
L200.335 -158.458
L200.603 -158.62
L200.765 -158.958
L201.54 -159.216
L201.777 -159.961
L202.104 -159.963
L202.358 -159.655
L202.475 -159.267
L202.387 -159.072
L202.388 -158.071
L203.026 -157.085
L203.501 -157.052
L204.781 -157.246
L206.029 -157.892
L207.263 -159.073
L207.74 -159.783
L208.333 -160.88
L208.571 -162.011
L209.076 -162.239
L209.254 -162.981
L209.255 -163.368
L209.137 -163.496
L209.344 -163.658
L209.316 -163.917
L209.598 -164.096
L209.746 -164.062
L209.88 -164.274
L209.851 -165.5
L208.958 -168.401
L209.107 -168.758
L209.076 -168.983
L209.256 -169.145
L209.316 -169.435
L209.314 -169.692
L209.076 -170.016
L209.791 -170.563
L209.79 -170.95
L209.7 -171.047
L209.85 -171.207
L209.88 -171.626
L210.266 -171.885
L210.266 -172.111
L210.088 -172.272
L210.235 -172.754
L210.089 -173.109
L210.265 -173.302
L210.236 -173.881
L210.103 -174.026
L209.909 -174.043
L209.88 -174.237
L210.073 -174.608
L210.579 -174.736
L210.833 -175.011
L210.801 -175.397
L210.653 -175.59
L210.742 -175.976
L210.548 -176.284
L210.326 -176.33
L210.236 -176.974
L210.326 -177.104
L210.238 -177.362
L210.058 -177.49
L210.535 -177.814
L210.653 -178.231
L210.489 -178.344
L210.994 -178.442
L211.188 -178.681
L211.276 -179.454
L211.456 -179.647
L211.337 -179.936
L211.724 -180.42
L211.574 -180.935
L210.801 -181.772
L210.832 -182.029
L211.038 -182.255
L211.128 -182.639
L211.038 -182.867
L211.157 -182.994
L211.159 -183.153
L210.92 -183.379
L210.92 -183.637
L211.084 -183.651
L211.098 -183.797
L211.246 -183.894
L211.307 -184.312
L211.574 -184.73
L211.574 -185.02
L211.247 -185.375
L211.157 -185.822
L211.396 -186.241
L211.395 -187.013
L211.784 -187.366
L211.842 -187.56
L211.784 -188.172
L211.485 -188.587
L211.96 -189.134
L211.96 -189.424
L211.722 -189.905
L212.139 -190.612
L212.049 -190.869
L212.258 -191.479
L212.11 -191.833
L212.287 -192.056
L212.347 -192.409
L212.258 -192.764
L212.05 -192.924
L212.289 -193.148
L212.347 -193.823
L212.676 -194.464
L212.554 -194.785
L212.704 -195.268
L212.468 -195.716
L212.644 -195.781
L212.599 -195.989
L212.899 -195.989
L213.165 -196.15
L213.329 -196.581
L213.268 -196.966
L213.419 -197.065
L213.507 -197.482
L213.33 -197.8
L213.418 -198.122
L213.3 -198.187
L213.328 -198.443
L213.24 -198.508
L213.33 -198.571
L213.21 -198.733
L213.268 -199.019
L213.18 -199.084
L213.418 -199.277
L213.657 -199.79
L213.655 -200.432
L213.507 -200.528
L213.954 -201.041
L213.924 -201.457
L214.102 -202.033
L214.042 -202.515
L213.745 -203.029
L213.36 -203.413
L213.521 -203.524
L213.968 -203.523
L214.653 -204.1
L215.052 -205.368
L214.994 -205.816
L215.083 -206.04
L214.963 -206.711
L215.143 -207.001
L214.994 -207.288
L214.964 -207.705
L214.517 -208.632
L214.665 -208.827
L214.667 -209.21
L214.844 -209.273
L214.875 -210.106
L215.023 -210.363
L214.994 -210.809
L214.696 -211.418
L214.964 -213.561
L215.753 -213.769
L215.959 -214.185
L216.541 -214.584
L216.898 -215.321
L216.806 -215.926
L217.017 -216.247
L216.927 -216.758
L217.535 -217.255
L217.699 -217.558
L217.522 -218.261
L217.583 -218.39
L217.432 -218.517
L217.313 -218.964
L217.341 -219.283
L217.817 -219.921
L217.848 -220.21
L218.055 -220.466
L218.236 -220.977
L218.206 -221.296
L217.669 -222.191
L217.373 -223.052
L217.136 -223.341
L217.165 -223.566
L216.778 -224.491
L216.807 -224.874
L217.195 -225.033
L217.416 -225.398
L217.699 -225.575
L217.906 -226.022
L217.908 -226.47
L217.671 -227.17
L217.105 -228.193
L217.136 -228.417
L217.313 -228.542
L217.314 -229.021
L217.044 -229.499
L216.835 -229.659
L216.807 -230.647
L216.272 -231.189
L216.244 -231.699
L215.945 -231.858
L216.123 -231.987
L216.065 -232.211
L215.841 -232.483
L215.707 -232.497
L215.737 -232.657
L215.44 -232.911
L215.914 -233.645
L215.767 -234.473
L214.696 -235.619
L214.549 -236.099
L214.399 -236.195
L214.251 -236.544
L214.311 -236.672
L213.864 -236.926
L214.071 -237.245
L214.102 -237.498
L214.281 -237.627
L214.34 -237.945
L214.667 -238.297
L214.607 -238.709
L214.935 -238.932
L215.141 -239.441
L215.485 -239.649
L215.708 -240.016
L215.561 -240.747
L215.173 -241.129
L215.351 -241.417
L215.35 -241.575
L215.203 -241.609
L215.35 -241.925
L215.321 -242.34
L215.143 -242.466
L215.173 -242.625
L214.995 -242.975
L214.355 -243.755
L213.833 -244.09
L213.804 -244.312
L213.537 -244.63
L213.166 -244.931
L212.734 -245.044
L213.626 -245.552
L213.12 -247.236
L213.255 -247.477
L213.685 -247.747
L213.656 -248.064
L213.239 -248.32
L213.18 -248.574
L213.239 -248.923
L213.402 -249.193
L213.507 -249.178
L213.448 -249.399
L213.595 -249.686
L213.446 -250.162
L213.627 -250.417
L213.509 -250.608
L213.775 -251.02
L213.716 -251.307
L213.418 -251.593
L213.448 -251.751
L213.181 -252.26
L213.15 -252.767
L213.268 -253.213
L213.418 -253.338
L213.328 -253.91
L213.418 -254.038
L213.33 -254.386
L213.211 -254.42
L213.299 -255.182
L213.089 -255.531
L213.284 -255.928
L213.567 -255.974
L213.626 -256.262
L213.893 -256.64
L214.251 -256.865
L214.251 -257.149
L214.429 -257.37
L214.428 -257.561
L214.192 -257.719
L214.161 -257.91
L214.488 -258.136
L214.549 -258.388
L214.398 -258.833
L214.517 -259.149
L214.34 -259.816
L214.221 -259.881
L214.517 -260.418
L214.192 -261.054
L213.685 -261.561
L213.717 -262.321
L213.908 -262.654
L214.147 -262.654
L214.502 -262.876
L214.858 -263.321
L215.039 -263.32
L215.142 -263.464
L215.292 -263.779
L215.38 -264.573
L215.589 -264.731
L215.498 -264.954
L215.648 -265.143
L215.529 -265.493
L215.588 -265.905
L215.35 -266.38
L214.787 -266.949
L214.755 -267.045
L214.919 -267.029
L214.964 -267.203
L214.577 -267.743
L214.668 -267.932
L214.503 -267.948
L214.428 -268.09
L214.621 -268.392
L214.607 -268.218
L214.726 -268.28
L214.696 -268.057
L214.8 -267.978
L215.231 -268.345
L215.321 -268.63
L215.231 -269.166
L214.844 -269.673
L214.814 -269.992
L215.35 -270.624
L215.321 -270.878
L215.559 -271.448
L215.5 -271.701
L215.707 -271.924
L215.915 -272.557
L215.737 -272.904
L215.737 -273.157
L215.469 -273.348
L215.529 -273.505
L215.38 -273.632
L215.559 -273.727
L215.707 -274.171
L215.647 -274.899
L215.886 -275.562
L215.797 -276.418
L215.619 -276.893
L215.26 -277.365
L215.291 -278.127
L215.113 -278.568
L215.29 -278.885
L215.142 -279.487
L214.934 -279.676
L215.115 -280.055
L215.5 -280.467
L215.173 -281.034
L215.26 -281.225
L215.114 -281.603
L214.814 -281.825
L214.935 -282.046
L214.742 -282.284
L214.414 -282.378
L214.281 -282.583
L214.326 -282.727
L214.563 -282.599
L214.549 -282.804
L214.816 -283.056
L214.844 -284.007
L214.964 -284.07
L214.963 -284.228
L214.547 -284.827
L214.757 -285.396
L214.696 -285.775
L214.844 -286.028
L214.786 -286.533
L214.593 -286.801
L214.429 -286.849
L214.177 -287.339
L213.953 -287.417
L214.369 -287.893
L214.354 -288.161
L213.922 -288.429
L214.19 -288.9
L213.538 -289.502
L213.461 -289.738
L212.733 -290.069
L212.986 -290.369
L212.778 -290.401
L212.631 -290.591
L212.481 -290.527
L212.184 -290.843
L211.665 -291.048
L211.768 -291.222
L212.272 -291.19
L212.66 -291.317
L212.882 -291.554
L212.942 -292.153
L212.838 -292.389
L212.586 -292.5
L212.912 -292.753
L212.676 -293.224
L212.764 -293.478
L212.676 -293.793
L212.809 -293.81
L213.001 -294.078
L213.001 -294.393
L212.882 -294.55
L213.001 -294.771
L212.973 -295.056
L212.778 -295.039
L212.673 -295.149
L212.705 -295.307
L212.408 -296.223
L212.406 -296.38
L212.526 -296.444
L212.437 -296.979
L212.08 -297.168
L212.2 -297.326
L212.199 -297.515
L212.049 -297.705
L212.049 -298.082
L212.2 -298.24
L212.138 -298.462
L211.813 -298.555
L211.692 -298.87
L211.782 -299.28
L211.337 -300.006
L210.861 -300.508
L210.92 -300.669
L210.83 -300.982
L210.966 -300.935
L211.129 -301.233
L210.965 -301.439
L210.58 -301.565
L210.222 -302.102
L210.028 -302.148
L210.236 -302.368
L210.176 -302.431
L210.297 -302.652
L210.058 -302.746
L210.029 -303.187
L210.148 -303.282
L210.267 -304.164
L210.148 -304.7
L210.205 -305.014
L209.999 -305.141
L209.999 -305.456
L210.562 -306.054
L210.681 -306.37
L210.446 -306.777
L210.384 -307.124
L210.386 -307.501
L210.653 -308.288
L210.238 -308.761
L210.267 -308.917
L210.088 -309.107
L210.177 -309.832
L209.851 -310.586
L209.582 -310.93
L209.672 -311.216
L209.343 -311.624
L209.286 -312.003
L209.107 -312.22
L209.135 -312.6
L208.898 -312.883
L208.87 -313.26
L209.107 -313.544
L208.985 -313.763
L209.163 -314.108
L209.044 -314.612
L209.104 -315.209
L208.956 -315.68
L208.718 -315.87
L208.806 -316.434
L208.479 -317.315
L208.541 -317.723
L208.391 -318.101
L208.389 -318.761
L208.183 -319.294
L207.647 -319.985
L207.647 -320.958
L207.41 -321.397
L207.44 -321.554
L207.291 -321.616
L207.5 -321.712
L207.647 -322.026
L207.649 -322.623
L208.182 -322.937
L208.005 -324.696
L208.21 -325.136
L208.213 -325.98
L207.708 -327.079
L208.094 -327.958
L208.153 -330.405
L208.392 -330.688
L208.33 -331.127
L208.658 -331.347
L208.926 -332.131
L208.747 -332.601
L208.449 -332.944
L208.569 -333.479
L208.3 -333.696
L208.464 -333.87
L208.42 -333.667
L208.672 -333.525
L208.644 -333.776
L208.821 -333.651
L209.343 -334.076
L209.402 -334.451
L209.313 -334.889
L207.498 -337.489
L205.55 -339.323
L201.389 -342.265
L198.889 -343.799
L196.067 -345.298
L195.591 -345.769
L195.456 -345.784
L195.057 -346.3
L194.922 -346.315
L194.922 -346.535
L194.669 -346.802
L194.252 -347.051
L194.208 -347.412
L194.016 -347.646
L193.39 -348.052
L193.033 -348.522
L192.498 -348.802
L192.23 -349.179
L191.696 -349.522
L191.279 -349.617
L191.295 -349.852
L191.16 -350.023
L190.804 -350.212
L190.149 -350.242
L190.059 -350.428
L189.702 -350.492
L189.376 -350.743
L189.168 -350.743
L188.664 -351.181
L188.573 -351.087
L188.501 -351.388
L188.709 -351.762
L188.472 -352.169
L188.413 -352.669
L187.669 -353.294
L187.788 -353.638
L187.623 -353.812
L187.357 -353.777
L187.178 -354.248
L187.058 -354.277
L186.941 -354.122
L186.776 -354.233
L186.673 -354.621
L186.316 -354.81
L185.959 -354.842
L185.543 -355.278
L184.592 -355.843
L184.592 -388.8
L405.808 -388.8
L405.808 -43.2
L197.886 -43.2" id="C0_0_079cdfae63"/>
     <path d="
M330.077 -308.226
L329.086 -307.712
L328.491 -307.534
L327.441 -306.505
L327.292 -306.61
L327.401 -307.02
L326.846 -307.261
L325.845 -308.069
L325.617 -309.915
L325.617 -310.849
L325.26 -311.268
L325.24 -311.499
L325.399 -311.855
L324.656 -313.449
L324.745 -315.283
L324.18 -316.53
L324.309 -316.949
L324.646 -317.127
L324.775 -317.777
L324.081 -318.374
L323.932 -318.74
L323.248 -318.95
L322.683 -319.683
L321.395 -320.207
L320.652 -320.751
L320.107 -320.992
L319.849 -321.505
L320.681 -322.489
L321.078 -322.458
L321.306 -322.772
L321.93 -322.918
L322.218 -323.159
L322.634 -323.253
L322.743 -323.41
L322.713 -323.902
L322.475 -324.185
L322.356 -324.833
L322.247 -324.99
L321.474 -325.252
L321.246 -326.057
L321.088 -326.162
L320.602 -326.193
L320.235 -326.612
L320.037 -326.664
L319.958 -326.486
L319.571 -326.35
L318.491 -327.083
L317.787 -327.94
L317.787 -328.463
L317.985 -329.059
L318.838 -330.011
L319.363 -330.262
L319.671 -330.732
L320.008 -330.91
L321.276 -331.077
L321.534 -331.338
L321.722 -331.934
L322.059 -332.373
L322.584 -332.624
L322.604 -333.324
L323.209 -334.275
L323.387 -335.393
L323.734 -335.832
L324.438 -336.156
L324.804 -336.574
L325.062 -337.607
L325.409 -338.297
L325.508 -338.975
L325.231 -339.978
L325.24 -340.959
L325.052 -341.553
L324.983 -342.253
L324.804 -342.597
L323.754 -343.609
L322.802 -343.943
L322.515 -344.444
L322.237 -344.674
L321.613 -344.778
L320.662 -345.894
L320.017 -346.29
L319.581 -346.363
L319.274 -346.572
L319.274 -346.78
L319.611 -347.218
L319.74 -347.604
L320.315 -347.813
L320.731 -347.802
L320.88 -348.887
L321.197 -349.356
L321.97 -349.606
L322.257 -349.835
L322.693 -349.908
L323.556 -350.346
L324.428 -350.242
L326.182 -349.064
L326.073 -349.043
L326.182 -348.887
L325.865 -348.428
L325.34 -347.907
L325.33 -347.677
L324.646 -346.29
L324.428 -345.466
L324.091 -344.767
L324.061 -344.329
L324.249 -343.735
L324.467 -343.442
L325.449 -342.618
L326.43 -342.044
L326.222 -341.481
L326.192 -340.99
L325.924 -340.468
L325.954 -339.257
L325.498 -337.367
L325.617 -336.208
L325.27 -333.7
L325.042 -332.896
L325.092 -332.436
L324.854 -332.154
L324.517 -331.192
L324.041 -330.889
L323.883 -328.557
L323.615 -328.045
L323.377 -326.769
L323.476 -326.361
L323.684 -326.309
L324.467 -326.56
L325.082 -326.35
L325.934 -325.848
L326.123 -325.513
L327.272 -324.341
L327.708 -323.483
L327.807 -322.552
L328.115 -321.829
L328.362 -320.531
L329.036 -318.353
L329.7 -317.211
L330.473 -316.163
L330.84 -315.755
L331.762 -315.126
L332.02 -314.602
L332.049 -313.879
L331.831 -312.998
L331.99 -312.684
L331.96 -312.033
L331.574 -311.394
L331.227 -309.653
L330.939 -308.898
L330.156 -308.258
L330.077 -308.226" id="C0_1_382ec4ddae"/>
     <path d="
M255.13 -95.7058
L254.971 -95.7276
L254.723 -96.0221
L254.337 -96.8943
L254.337 -97.5812
L254.674 -99.1183
L255.407 -100.328
L256.586 -101.614
L257.141 -101.799
L257.617 -101.701
L257.786 -101.363
L257.934 -100.557
L257.905 -99.6305
L257.647 -98.3771
L256.626 -96.5127
L256.259 -96.0436
L255.962 -95.804
L255.357 -95.6728
L255.13 -95.7058" id="C0_2_6ed235f134"/>
     <path d="
M286.567 -307.607
L287.113 -307.838
L287.321 -307.786
L287.707 -307.135
L288.758 -306.38
L289.125 -305.456
L289.224 -304.784
L289.115 -304.627
L288.728 -304.501
L288.341 -304.627
L287.499 -305.844
L287.113 -306.233
L285.586 -306.527
L285.279 -306.736
L285.12 -307.093
L285.23 -307.502
L285.586 -307.66
L286.439 -307.628
L286.567 -307.607" id="C0_3_3cae015ef1"/>
    </defs>
    <g clip-path="url(#p1605bd9422)">
     <use style="fill:none;stroke:#000000;stroke-width:0.25;" x="0.0" xlink:href="#C0_0_079cdfae63" y="432.0"/>
    </g>
    <g clip-path="url(#p1605bd9422)">
     <use style="fill:none;stroke:#000000;stroke-width:0.25;" x="0.0" xlink:href="#C0_1_382ec4ddae" y="432.0"/>
    </g>
    <g clip-path="url(#p1605bd9422)">
     <use style="fill:none;stroke:#000000;stroke-width:0.25;" x="0.0" xlink:href="#C0_2_6ed235f134" y="432.0"/>
    </g>
    <g clip-path="url(#p1605bd9422)">
     <use style="fill:none;stroke:#000000;stroke-width:0.25;" x="0.0" xlink:href="#C0_3_3cae015ef1" y="432.0"/>
    </g>
   </g>
   <g id="LineCollection_2">
    <defs>
     <path d="
M238.122 -369.923
L238.439 -365.244
L243.266 -360.926
L243.543 -360.177
L243.979 -359.584
L244.385 -358.71
L244.583 -358.137
L244.604 -357.648
L244.484 -355.441
L244.703 -354.128
L245.288 -352.399
L245.704 -352.044
L246.11 -352.076
L246.704 -353.034
L247.062 -352.618
L247.27 -352.056
L247.518 -351.794
L248.954 -351.429
L249.016 -351.388" id="C1_0_5169e8c673"/>
     <path d="
M242.703 -388.8
L241.283 -388.033
L241.195 -387.857
L241.283 -387.722
L242.027 -387.442
L242.145 -387.308
L242.195 -386.903
L242.096 -386.747
L240.024 -384.965
L239.847 -384.944
L239.42 -385.276
L239.064 -385.234
L236.764 -383.792
L234.97 -381.977
L234.088 -381.915
L233.8 -381.686
L233.821 -380.328
L232.671 -378.127
L232.72 -377.972
L233.157 -377.941
L233.513 -377.785
L234.871 -377.702
L234.871 -377.775
L238.072 -374.649
L238.122 -369.923
L231.551 -363.997
L226.873 -364.423
L226.07 -363.164
L225.684 -362.009
L225.634 -360.604
L225.832 -360.292
L226.537 -359.688
L226.962 -358.845
L227.081 -357.68
L226.992 -355.961
L227.141 -355.347
L228.211 -354.108
L228.449 -353.587
L228.518 -353.149
L228.32 -351.94
L228.112 -351.388" id="C1_1_a31a048a1f"/>
     <path d="
M220.272 -341.201
L220.045 -341.157
L219.351 -341.251
L218.726 -341.147
L217.695 -340.646
L216.218 -339.549
L215.029 -339.195
L213.106 -338.986
L207.794 -339.404
L206.972 -339.195
L205.832 -338.317" id="C1_2_8c68759ab2"/>
     <path d="
M249.016 -351.388
L249.876 -350.804
L250.976 -350.356
L251.889 -350.232
L252.928 -350.71
L253.147 -350.71
L253.266 -350.575
L253.394 -349.929
L253.286 -348.481
L252.949 -348.062
L251.215 -346.968
L250.669 -346.217
L250.609 -345.55
L251.273 -344.413
L252.443 -343.276
L252.829 -342.628
L252.899 -340.656
L253.752 -339.246
L253.682 -338.86
L253.345 -338.172
L253.256 -336.761
L253.583 -336.061
L254.583 -334.745
L255.09 -333.461
L255.139 -332.99
L254.742 -331.066
L255.04 -329.049
L254.842 -327.941
L254.871 -327.197
L255.08 -326.633
L255.873 -325.618
L256.2 -324.927
L256.3 -324.258
L255.931 -323.452
L258.351 -318.186
L256.686 -315.817
L257.172 -315.535
L257.865 -314.675
L258.648 -313.156
L259.243 -311.677
L259.58 -311.226
L260.036 -310.922
L262.355 -310.135
L263.712 -308.404
L264.912 -307.282
L265.536 -306.872
L266.795 -306.327
L267.211 -305.96
L268.272 -303.42
L269.025 -302.926
L270.938 -302.255
L272.117 -301.602
L272.98 -300.668
L274.021 -299.891
L275.666 -298.178
L275.973 -297.705
L276.022 -297.243
L275.894 -297.117
L275.269 -296.959
L274.476 -296.969
L269.66 -290.113
L269.561 -289.703
L269.194 -289.029
L268.698 -288.492
L268.223 -288.187
L268.005 -287.882
L267.241 -287.334
L266.667 -286.144
L266.676 -285.923
L266.914 -285.628
L267.29 -285.481
L269.293 -284.038
L269.868 -283.079
L270.274 -282.69
L272.246 -281.974
L272.335 -281.805
L272.078 -280.466
L272.415 -279.792
L272.95 -279.086
L271.81 -277.019
L271.757 -275.912" id="C1_3_badd8c681e"/>
     <path d="
M228.112 -351.388
L227.685 -350.252
L227.349 -349.564
L226.566 -348.511
L225.931 -346.562
L224.614 -345.08
L223.236 -344.141
L222.017 -342.274
L221.492 -341.773
L220.688 -341.282
L220.272 -341.201" id="C1_4_d153fee7c3"/>
     <path d="
M271.757 -275.912
L271.741 -275.575
L271.136 -273.728
L269.798 -273.991
L269.144 -273.908
L267.35 -273.507
L266.042 -273.063
L264.268 -272.874
L263.961 -272.663
L263.634 -272.198
L263.545 -271.734
L263.673 -271.343
L264.149 -270.794
L264.912 -270.467
L266.082 -270.499
L266.3 -270.245
L265.735 -267.13
L267.786 -263.454
L266.706 -263.125
L265.655 -262.66
L264.882 -262.142
L264.605 -261.604
L264.625 -260.44
L264.893 -259.446
L265.259 -258.791
L266.002 -257.722
L266.904 -256.759
L268.897 -255.552
L271.88 -254.442
L272.564 -253.573
L272.881 -253.351
L273.535 -253.181
L274.06 -252.906
L274.981 -251.985
L275.081 -251.593
L274.903 -251.233
L273.465 -250.354
L272.881 -249.878
L272.078 -248.839
L271.661 -248.478
L271.463 -248.118
L271.384 -247.429
L271.622 -244.959
L271.453 -242.774
L271.642 -241.968
L271.979 -241.269
L272.494 -240.738
L273.168 -240.345
L273.792 -240.133
L274.546 -240.048
L276.607 -240.144
L284.903 -226.459
L284.903 -214.586
L286.488 -212.591
L286.875 -211.952
L287.281 -211.077
L287.965 -208.965
L288.51 -205.507
L288.609 -200.742
L289.903 -199.47" id="C1_5_7f9112fcce"/>
     <path d="
M352.905 -199.47
L352.932 -200.304
L353.299 -201.32
L353.606 -203.232
L354.19 -204.534
L354.499 -207.022
L354.726 -207.641
L356.044 -207.61
L360.227 -205.923
L361.525 -204.364
L361.515 -202.676
L362.992 -202.446" id="C1_6_0c436c6835"/>
     <path d="
M362.992 -202.446
L365.628 -202.036
L367.576 -199.47" id="C1_7_cadbd5d171"/>
     <path d="
M289.903 -199.47
L291.632 -197.771" id="C1_8_48db426d0f"/>
     <path d="
M291.632 -197.771
L291.741 -197.664
L292.574 -197.182
L292.891 -196.177
L293.584 -195.535
L293.594 -194.903
L292.91 -193.684
L292.821 -193.213
L292.891 -193.02
L293.545 -192.357
L293.901 -191.673
L294.377 -190.366
L294.417 -189.167
L294.348 -188.674
L293.922 -188.31
L294.031 -187.903
L293.981 -187.667
L293.466 -186.831
L293.475 -186.595
L295.676 -182.79
L295.824 -180.195
L296.072 -179.669
L296.805 -178.821
L297.044 -178.296
L295.765 -171.971
L296.042 -167.511
L297.361 -166.876
L297.896 -167.155
L299.006 -165.574
L306.647 -164.682
L320.76 -167.758
L327.281 -160.742
L321.93 -145.635
L315.547 -121.942" id="C1_9_59c333db5c"/>
     <path d="
M320.799 -167.8
L322.92 -171.767
L326.875 -174.678
L326.498 -179.272
L328.621 -179.326
L329.939 -181.031
L335.34 -183.015
L335.152 -184.806
L335.47 -185.02
L335.806 -185.77
L336.708 -190.708
L338.413 -191.918
L340.583 -191.255
L340.999 -192.078
L345.311 -193.267
L345.995 -193.695
L346.55 -193.866
L348.641 -194.305
L349.8 -194.7
L350.663 -195.064
L350.989 -195.781
L351.614 -196.488
L352.04 -196.509
L352.17 -196.358
L352.526 -196.295
L352.605 -198.24
L352.883 -198.785
L352.905 -199.47" id="C1_a_18149a203f"/>
     <path d="
M367.576 -199.47
L369.662 -196.723
L370.723 -196.048
L371.416 -195.417
L371.981 -195.171
L372.477 -195.107
L373.685 -195.428
L375.212 -195.278
L375.857 -195.396
L376.589 -195.696
L377.303 -195.62
L378.027 -196.199
L381.991 -195.696
L392.516 -195.781
L399.089 -195.964
L399.584 -195.417
L399.941 -195.236
L400.714 -195.214
L401.804 -194.7
L403.935 -194.637
L404.757 -194.369
L405.511 -194.037
L405.808 -193.752" id="C1_b_77e61369a7"/>
     <path d="
M291.632 -110.477
L282.633 -106.436
L282.067 -104.945
L281.731 -104.445
L281.028 -103.792
L280.651 -102.67
L280.334 -102.463
L279.888 -102.431
L278.559 -102.8
L278.182 -102.692
L277.747 -102.311
L277.44 -101.428
L276.35 -99.6526
L276.131 -97.9522
L275.804 -97.418
L275.645 -97.309
L275.408 -97.3306
L275.2 -97.6468
L275.111 -98.2684
L274.992 -98.4205
L274.555 -98.5402
L274.229 -98.3558
L274.021 -97.9953
L273.505 -95.6953
L271.473 -91.6025
L271.275 -90.8829
L271.235 -90.1728
L271.929 -89.0918
L271.84 -88.3923
L271.958 -88.0215
L272.177 -87.7046
L272.93 -87.5294
L273.881 -86.82
L274.981 -86.8524
L275.289 -86.6231
L275.447 -86.0433
L275.379 -85.8139
L275.101 -85.5414
L275.12 -85.3769
L276.22 -84.2841
L276.399 -83.9345
L276.191 -83.0264
L276.498 -81.4079
L277.31 -80.1279
L278.788 -78.8258
L278.996 -78.5192
L279.075 -78.114
L278.986 -77.6437
L278.856 -77.5018
L277.45 -77.2059
L276.637 -76.7128
L276.22 -76.6586
L276.022 -76.7464
L275.437 -77.2721
L275.041 -77.1951
L274.328 -76.5383
L273.713 -75.7491
L273.297 -75.0163
L272.574 -72.343
L271.235 -69.1955
L270.849 -67.1999
L270.313 -65.2469
L270.235 -63.8081
L270.402 -62.7876
L270.839 -61.931
L272.078 -60.6674
L272.256 -60.3488
L271.83 -57.9087
L271.83 -57.2166
L272.009 -56.4133
L272.316 -55.9409
L273.207 -55.1601
L273.753 -54.3685
L273.941 -53.8065
L275.051 -48.3241
L275.715 -45.7688
L276.111 -43.2" id="C1_c_5043e6c241"/>
     <path d="
M315.547 -121.942
L315.319 -121.096
L291.632 -110.477" id="C1_d_76e65fc459"/>
    </defs>
    <g clip-path="url(#p1605bd9422)">
     <use style="fill:none;stroke:#000000;stroke-width:0.25;" x="0.0" xlink:href="#C1_0_5169e8c673" y="432.0"/>
    </g>
    <g clip-path="url(#p1605bd9422)">
     <use style="fill:none;stroke:#000000;stroke-width:0.25;" x="0.0" xlink:href="#C1_1_a31a048a1f" y="432.0"/>
    </g>
    <g clip-path="url(#p1605bd9422)">
     <use style="fill:none;stroke:#000000;stroke-width:0.25;" x="0.0" xlink:href="#C1_2_8c68759ab2" y="432.0"/>
    </g>
    <g clip-path="url(#p1605bd9422)">
     <use style="fill:none;stroke:#000000;stroke-width:0.25;" x="0.0" xlink:href="#C1_3_badd8c681e" y="432.0"/>
    </g>
    <g clip-path="url(#p1605bd9422)">
     <use style="fill:none;stroke:#000000;stroke-width:0.25;" x="0.0" xlink:href="#C1_4_d153fee7c3" y="432.0"/>
    </g>
    <g clip-path="url(#p1605bd9422)">
     <use style="fill:none;stroke:#000000;stroke-width:0.25;" x="0.0" xlink:href="#C1_5_7f9112fcce" y="432.0"/>
    </g>
    <g clip-path="url(#p1605bd9422)">
     <use style="fill:none;stroke:#000000;stroke-width:0.25;" x="0.0" xlink:href="#C1_6_0c436c6835" y="432.0"/>
    </g>
    <g clip-path="url(#p1605bd9422)">
     <use style="fill:none;stroke:#000000;stroke-width:0.25;" x="0.0" xlink:href="#C1_7_cadbd5d171" y="432.0"/>
    </g>
    <g clip-path="url(#p1605bd9422)">
     <use style="fill:none;stroke:#000000;stroke-width:0.25;" x="0.0" xlink:href="#C1_8_48db426d0f" y="432.0"/>
    </g>
    <g clip-path="url(#p1605bd9422)">
     <use style="fill:none;stroke:#000000;stroke-width:0.25;" x="0.0" xlink:href="#C1_9_59c333db5c" y="432.0"/>
    </g>
    <g clip-path="url(#p1605bd9422)">
     <use style="fill:none;stroke:#000000;stroke-width:0.25;" x="0.0" xlink:href="#C1_a_18149a203f" y="432.0"/>
    </g>
    <g clip-path="url(#p1605bd9422)">
     <use style="fill:none;stroke:#000000;stroke-width:0.25;" x="0.0" xlink:href="#C1_b_77e61369a7" y="432.0"/>
    </g>
    <g clip-path="url(#p1605bd9422)">
     <use style="fill:none;stroke:#000000;stroke-width:0.25;" x="0.0" xlink:href="#C1_c_5043e6c241" y="432.0"/>
    </g>
    <g clip-path="url(#p1605bd9422)">
     <use style="fill:none;stroke:#000000;stroke-width:0.25;" x="0.0" xlink:href="#C1_d_76e65fc459" y="432.0"/>
    </g>
   </g>
   <g id="line2d_1">
    <defs>
     <path d="
M0 1.5
C0.397805 1.5 0.77937 1.34195 1.06066 1.06066
C1.34195 0.77937 1.5 0.397805 1.5 0
C1.5 -0.397805 1.34195 -0.77937 1.06066 -1.06066
C0.77937 -1.34195 0.397805 -1.5 0 -1.5
C-0.397805 -1.5 -0.77937 -1.34195 -1.06066 -1.06066
C-1.34195 -0.77937 -1.5 -0.397805 -1.5 0
C-1.5 0.397805 -1.34195 0.77937 -1.06066 1.06066
C-0.77937 1.34195 -0.397805 1.5 0 1.5
z
" id="m76a7ce5b4a" style="stroke:#0000ff;stroke-width:0.5;"/>
    </defs>
    <g clip-path="url(#p1605bd9422)">
     <use style="fill:#0000ff;stroke:#0000ff;stroke-width:0.5;" x="212.723114227" xlink:href="#m76a7ce5b4a" y="236.242396118"/>
    </g>
   </g>
   <g id="line2d_2">
    <g clip-path="url(#p1605bd9422)">
     <use style="fill:#0000ff;stroke:#0000ff;stroke-width:0.5;" x="212.621587195" xlink:href="#m76a7ce5b4a" y="236.223708117"/>
    </g>
   </g>
   <g id="line2d_3">
    <g clip-path="url(#p1605bd9422)">
     <use style="fill:#0000ff;stroke:#0000ff;stroke-width:0.5;" x="212.631185076" xlink:href="#m76a7ce5b4a" y="236.215625278"/>
    </g>
   </g>
   <g id="line2d_4">
    <g clip-path="url(#p1605bd9422)">
     <use style="fill:#0000ff;stroke:#0000ff;stroke-width:0.5;" x="396.796058253" xlink:href="#m76a7ce5b4a" y="339.208297521"/>
    </g>
   </g>
   <g id="line2d_5">
    <g clip-path="url(#p1605bd9422)">
     <use style="fill:#0000ff;stroke:#0000ff;stroke-width:0.5;" x="396.816442155" xlink:href="#m76a7ce5b4a" y="339.206384246"/>
    </g>
   </g>
   <g id="line2d_6">
    <g clip-path="url(#p1605bd9422)">
     <use style="fill:#0000ff;stroke:#0000ff;stroke-width:0.5;" x="396.830699826" xlink:href="#m76a7ce5b4a" y="339.205044561"/>
    </g>
   </g>
   <g id="line2d_7">
    <g clip-path="url(#p1605bd9422)">
     <use style="fill:#0000ff;stroke:#0000ff;stroke-width:0.5;" x="207.18558264" xlink:href="#m76a7ce5b4a" y="273.387315653"/>
    </g>
   </g>
   <g id="line2d_8">
    <g clip-path="url(#p1605bd9422)">
     <use style="fill:#0000ff;stroke:#0000ff;stroke-width:0.5;" x="205.636684384" xlink:href="#m76a7ce5b4a" y="274.616619157"/>
    </g>
   </g>
   <g id="line2d_9">
    <g clip-path="url(#p1605bd9422)">
     <use style="fill:#0000ff;stroke:#0000ff;stroke-width:0.5;" x="205.592716097" xlink:href="#m76a7ce5b4a" y="274.601321618"/>
    </g>
   </g>
   <g id="line2d_10">
    <g clip-path="url(#p1605bd9422)">
     <use style="fill:#0000ff;stroke:#0000ff;stroke-width:0.5;" x="205.578447722" xlink:href="#m76a7ce5b4a" y="274.609020805"/>
    </g>
   </g>
   <g id="line2d_11">
    <g clip-path="url(#p1605bd9422)">
     <use style="fill:#0000ff;stroke:#0000ff;stroke-width:0.5;" x="207.194713115" xlink:href="#m76a7ce5b4a" y="273.393516224"/>
    </g>
   </g>
   <g id="line2d_12">
    <g clip-path="url(#p1605bd9422)">
     <use style="fill:#0000ff;stroke:#0000ff;stroke-width:0.5;" x="213.393624364" xlink:href="#m76a7ce5b4a" y="186.747095215"/>
    </g>
   </g>
   <g id="line2d_13">
    <g clip-path="url(#p1605bd9422)">
     <use style="fill:#0000ff;stroke:#0000ff;stroke-width:0.5;" x="210.878108841" xlink:href="#m76a7ce5b4a" y="671.825846382"/>
    </g>
   </g>
   <g id="line2d_14">
    <g clip-path="url(#p1605bd9422)">
     <use style="fill:#0000ff;stroke:#0000ff;stroke-width:0.5;" x="212.786506628" xlink:href="#m76a7ce5b4a" y="236.223203661"/>
    </g>
   </g>
   <g id="line2d_15">
    <g clip-path="url(#p1605bd9422)">
     <use style="fill:#0000ff;stroke:#0000ff;stroke-width:0.5;" x="212.769333913" xlink:href="#m76a7ce5b4a" y="236.234317102"/>
    </g>
   </g>
   <g id="line2d_16">
    <g clip-path="url(#p1605bd9422)">
     <use style="fill:#0000ff;stroke:#0000ff;stroke-width:0.5;" x="205.3928197" xlink:href="#m76a7ce5b4a" y="274.683829565"/>
    </g>
   </g>
   <g id="line2d_17">
    <g clip-path="url(#p1605bd9422)">
     <use style="fill:#0000ff;stroke:#0000ff;stroke-width:0.5;" x="205.409639185" xlink:href="#m76a7ce5b4a" y="274.683057696"/>
    </g>
   </g>
   <g id="line2d_18">
    <g clip-path="url(#p1605bd9422)">
     <use style="fill:#0000ff;stroke:#0000ff;stroke-width:0.5;" x="205.359401947" xlink:href="#m76a7ce5b4a" y="274.698339959"/>
    </g>
   </g>
   <g id="line2d_19">
    <g clip-path="url(#p1605bd9422)">
     <use style="fill:#0000ff;stroke:#0000ff;stroke-width:0.5;" x="205.377538018" xlink:href="#m76a7ce5b4a" y="274.690861729"/>
    </g>
   </g>
   <g id="line2d_20">
    <g clip-path="url(#p1605bd9422)">
     <use style="fill:#0000ff;stroke:#0000ff;stroke-width:0.5;" x="205.40931093" xlink:href="#m76a7ce5b4a" y="274.676681049"/>
    </g>
   </g>
   <g id="line2d_21">
    <g clip-path="url(#p1605bd9422)">
     <use style="fill:#0000ff;stroke:#0000ff;stroke-width:0.5;" x="205.378308703" xlink:href="#m76a7ce5b4a" y="274.695698529"/>
    </g>
   </g>
   <g id="line2d_22">
    <defs>
     <path d="
M0 1.5
C0.397805 1.5 0.77937 1.34195 1.06066 1.06066
C1.34195 0.77937 1.5 0.397805 1.5 0
C1.5 -0.397805 1.34195 -0.77937 1.06066 -1.06066
C0.77937 -1.34195 0.397805 -1.5 0 -1.5
C-0.397805 -1.5 -0.77937 -1.34195 -1.06066 -1.06066
C-1.34195 -0.77937 -1.5 -0.397805 -1.5 0
C-1.5 0.397805 -1.34195 0.77937 -1.06066 1.06066
C-0.77937 1.34195 -0.397805 1.5 0 1.5
z
" id="mb0b177905e" style="stroke:#008000;stroke-width:0.5;"/>
    </defs>
    <g clip-path="url(#p1605bd9422)">
     <use style="fill:#008000;stroke:#008000;stroke-width:0.5;" x="212.60928478" xlink:href="#mb0b177905e" y="298.068315222"/>
    </g>
   </g>
   <g id="line2d_23">
    <g clip-path="url(#p1605bd9422)">
     <use style="fill:#008000;stroke:#008000;stroke-width:0.5;" x="210.558998907" xlink:href="#mb0b177905e" y="98.6110433295"/>
    </g>
   </g>
   <g id="line2d_24">
    <g clip-path="url(#p1605bd9422)">
     <use style="fill:#008000;stroke:#008000;stroke-width:0.5;" x="213.394962359" xlink:href="#mb0b177905e" y="186.796329294"/>
    </g>
   </g>
   <g id="line2d_25">
    <g clip-path="url(#p1605bd9422)">
     <use style="fill:#008000;stroke:#008000;stroke-width:0.5;" x="217.366533583" xlink:href="#mb0b177905e" y="165.529160073"/>
    </g>
   </g>
   <g id="line2d_26">
    <g clip-path="url(#p1605bd9422)">
     <use style="fill:#008000;stroke:#008000;stroke-width:0.5;" x="203.489538405" xlink:href="#mb0b177905e" y="300.845782981"/>
    </g>
   </g>
   <g id="line2d_27">
    <g clip-path="url(#p1605bd9422)">
     <use style="fill:#008000;stroke:#008000;stroke-width:0.5;" x="252.502814719" xlink:href="#mb0b177905e" y="319.881520181"/>
    </g>
   </g>
   <g id="line2d_28">
    <g clip-path="url(#p1605bd9422)">
     <use style="fill:#008000;stroke:#008000;stroke-width:0.5;" x="255.40867501" xlink:href="#mb0b177905e" y="320.455340718"/>
    </g>
   </g>
   <g id="line2d_29">
    <g clip-path="url(#p1605bd9422)">
     <use style="fill:#008000;stroke:#008000;stroke-width:0.5;" x="252.225089852" xlink:href="#mb0b177905e" y="319.933387669"/>
    </g>
   </g>
   <g id="line2d_30">
    <g clip-path="url(#p1605bd9422)">
     <use style="fill:#008000;stroke:#008000;stroke-width:0.5;" x="253.850664119" xlink:href="#mb0b177905e" y="323.387996604"/>
    </g>
   </g>
   <g id="line2d_31">
    <g clip-path="url(#p1605bd9422)">
     <use style="fill:#008000;stroke:#008000;stroke-width:0.5;" x="252.432450474" xlink:href="#mb0b177905e" y="268.288786752"/>
    </g>
   </g>
   <g id="line2d_32">
    <g clip-path="url(#p1605bd9422)">
     <use style="fill:#008000;stroke:#008000;stroke-width:0.5;" x="245.899054841" xlink:href="#mb0b177905e" y="263.573730863"/>
    </g>
   </g>
   <g id="line2d_33">
    <g clip-path="url(#p1605bd9422)">
     <use style="fill:#008000;stroke:#008000;stroke-width:0.5;" x="231.191161435" xlink:href="#mb0b177905e" y="187.102884746"/>
    </g>
   </g>
   <g id="line2d_34">
    <g clip-path="url(#p1605bd9422)">
     <use style="fill:#008000;stroke:#008000;stroke-width:0.5;" x="212.907083135" xlink:href="#mb0b177905e" y="236.19410704"/>
    </g>
   </g>
   <g id="matplotlib.axis_1"/>
   <g id="matplotlib.axis_2"/>
   <g id="patch_7">
    <path d="
M184.592 43.2
L405.808 43.2" style="fill:none;stroke:#000000;"/>
   </g>
   <g id="patch_8">
    <path d="
M405.808 388.8
L405.808 43.2" style="fill:none;stroke:#000000;"/>
   </g>
   <g id="patch_9">
    <path d="
M184.592 388.8
L405.808 388.8" style="fill:none;stroke:#000000;"/>
   </g>
   <g id="patch_10">
    <path d="
M184.592 388.8
L184.592 43.2" style="fill:none;stroke:#000000;"/>
   </g>
   <g id="text_1">
    <!-- Mercator Projection -->
    <defs>
     <path d="
M9.8125 72.9062
L24.5156 72.9062
L43.1094 23.2969
L61.8125 72.9062
L76.5156 72.9062
L76.5156 0
L66.8906 0
L66.8906 64.0156
L48.0938 14.0156
L38.1875 14.0156
L19.3906 64.0156
L19.3906 0
L9.8125 0
z
" id="DejaVuSans-4d"/>
     <path d="
M19.6719 64.7969
L19.6719 37.4062
L32.0781 37.4062
Q38.9688 37.4062 42.7188 40.9688
Q46.4844 44.5312 46.4844 51.125
Q46.4844 57.6719 42.7188 61.2344
Q38.9688 64.7969 32.0781 64.7969
z

M9.8125 72.9062
L32.0781 72.9062
Q44.3438 72.9062 50.6094 67.3594
Q56.8906 61.8125 56.8906 51.125
Q56.8906 40.3281 50.6094 34.8125
Q44.3438 29.2969 32.0781 29.2969
L19.6719 29.2969
L19.6719 0
L9.8125 0
z
" id="DejaVuSans-50"/>
     <path d="
M30.6094 48.3906
Q23.3906 48.3906 19.1875 42.75
Q14.9844 37.1094 14.9844 27.2969
Q14.9844 17.4844 19.1562 11.8438
Q23.3438 6.20312 30.6094 6.20312
Q37.7969 6.20312 41.9844 11.8594
Q46.1875 17.5312 46.1875 27.2969
Q46.1875 37.0156 41.9844 42.7031
Q37.7969 48.3906 30.6094 48.3906
M30.6094 56
Q42.3281 56 49.0156 48.375
Q55.7188 40.7656 55.7188 27.2969
Q55.7188 13.875 49.0156 6.21875
Q42.3281 -1.42188 30.6094 -1.42188
Q18.8438 -1.42188 12.1719 6.21875
Q5.51562 13.875 5.51562 27.2969
Q5.51562 40.7656 12.1719 48.375
Q18.8438 56 30.6094 56" id="DejaVuSans-6f"/>
     <path d="
M41.1094 46.2969
Q39.5938 47.1719 37.8125 47.5781
Q36.0312 48 33.8906 48
Q26.2656 48 22.1875 43.0469
Q18.1094 38.0938 18.1094 28.8125
L18.1094 0
L9.07812 0
L9.07812 54.6875
L18.1094 54.6875
L18.1094 46.1875
Q20.9531 51.1719 25.4844 53.5781
Q30.0312 56 36.5312 56
Q37.4531 56 38.5781 55.875
Q39.7031 55.7656 41.0625 55.5156
z
" id="DejaVuSans-72"/>
     <path d="
M54.8906 33.0156
L54.8906 0
L45.9062 0
L45.9062 32.7188
Q45.9062 40.4844 42.875 44.3281
Q39.8438 48.1875 33.7969 48.1875
Q26.5156 48.1875 22.3125 43.5469
Q18.1094 38.9219 18.1094 30.9062
L18.1094 0
L9.07812 0
L9.07812 54.6875
L18.1094 54.6875
L18.1094 46.1875
Q21.3438 51.125 25.7031 53.5625
Q30.0781 56 35.7969 56
Q45.2188 56 50.0469 50.1719
Q54.8906 44.3438 54.8906 33.0156" id="DejaVuSans-6e"/>
     <path d="
M9.42188 54.6875
L18.4062 54.6875
L18.4062 -0.984375
Q18.4062 -11.4219 14.4219 -16.1094
Q10.4531 -20.7969 1.60938 -20.7969
L-1.8125 -20.7969
L-1.8125 -13.1875
L0.59375 -13.1875
Q5.71875 -13.1875 7.5625 -10.8125
Q9.42188 -8.45312 9.42188 -0.984375
z

M9.42188 75.9844
L18.4062 75.9844
L18.4062 64.5938
L9.42188 64.5938
z
" id="DejaVuSans-6a"/>
     <path id="DejaVuSans-20"/>
     <path d="
M9.42188 54.6875
L18.4062 54.6875
L18.4062 0
L9.42188 0
z

M9.42188 75.9844
L18.4062 75.9844
L18.4062 64.5938
L9.42188 64.5938
z
" id="DejaVuSans-69"/>
     <path d="
M18.3125 70.2188
L18.3125 54.6875
L36.8125 54.6875
L36.8125 47.7031
L18.3125 47.7031
L18.3125 18.0156
Q18.3125 11.3281 20.1406 9.42188
Q21.9688 7.51562 27.5938 7.51562
L36.8125 7.51562
L36.8125 0
L27.5938 0
Q17.1875 0 13.2344 3.875
Q9.28125 7.76562 9.28125 18.0156
L9.28125 47.7031
L2.6875 47.7031
L2.6875 54.6875
L9.28125 54.6875
L9.28125 70.2188
z
" id="DejaVuSans-74"/>
     <path d="
M56.2031 29.5938
L56.2031 25.2031
L14.8906 25.2031
Q15.4844 15.9219 20.4844 11.0625
Q25.4844 6.20312 34.4219 6.20312
Q39.5938 6.20312 44.4531 7.46875
Q49.3125 8.73438 54.1094 11.2812
L54.1094 2.78125
Q49.2656 0.734375 44.1875 -0.34375
Q39.1094 -1.42188 33.8906 -1.42188
Q20.7969 -1.42188 13.1562 6.1875
Q5.51562 13.8125 5.51562 26.8125
Q5.51562 40.2344 12.7656 48.1094
Q20.0156 56 32.3281 56
Q43.3594 56 49.7812 48.8906
Q56.2031 41.7969 56.2031 29.5938
M47.2188 32.2344
Q47.125 39.5938 43.0938 43.9844
Q39.0625 48.3906 32.4219 48.3906
Q24.9062 48.3906 20.3906 44.1406
Q15.875 39.8906 15.1875 32.1719
z
" id="DejaVuSans-65"/>
     <path d="
M48.7812 52.5938
L48.7812 44.1875
Q44.9688 46.2969 41.1406 47.3438
Q37.3125 48.3906 33.4062 48.3906
Q24.6562 48.3906 19.8125 42.8438
Q14.9844 37.3125 14.9844 27.2969
Q14.9844 17.2812 19.8125 11.7344
Q24.6562 6.20312 33.4062 6.20312
Q37.3125 6.20312 41.1406 7.25
Q44.9688 8.29688 48.7812 10.4062
L48.7812 2.09375
Q45.0156 0.34375 40.9844 -0.53125
Q36.9688 -1.42188 32.4219 -1.42188
Q20.0625 -1.42188 12.7812 6.34375
Q5.51562 14.1094 5.51562 27.2969
Q5.51562 40.6719 12.8594 48.3281
Q20.2188 56 33.0156 56
Q37.1562 56 41.1094 55.1406
Q45.0625 54.2969 48.7812 52.5938" id="DejaVuSans-63"/>
     <path d="
M34.2812 27.4844
Q23.3906 27.4844 19.1875 25
Q14.9844 22.5156 14.9844 16.5
Q14.9844 11.7188 18.1406 8.90625
Q21.2969 6.10938 26.7031 6.10938
Q34.1875 6.10938 38.7031 11.4062
Q43.2188 16.7031 43.2188 25.4844
L43.2188 27.4844
z

M52.2031 31.2031
L52.2031 0
L43.2188 0
L43.2188 8.29688
Q40.1406 3.32812 35.5469 0.953125
Q30.9531 -1.42188 24.3125 -1.42188
Q15.9219 -1.42188 10.9531 3.29688
Q6 8.01562 6 15.9219
Q6 25.1406 12.1719 29.8281
Q18.3594 34.5156 30.6094 34.5156
L43.2188 34.5156
L43.2188 35.4062
Q43.2188 41.6094 39.1406 45
Q35.0625 48.3906 27.6875 48.3906
Q23 48.3906 18.5469 47.2656
Q14.1094 46.1406 10.0156 43.8906
L10.0156 52.2031
Q14.9375 54.1094 19.5781 55.0469
Q24.2188 56 28.6094 56
Q40.4844 56 46.3438 49.8438
Q52.2031 43.7031 52.2031 31.2031" id="DejaVuSans-61"/>
    </defs>
    <g transform="translate(225.923625 38.2)scale(0.144 -0.144)">
     <use xlink:href="#DejaVuSans-4d"/>
     <use x="86.279296875" xlink:href="#DejaVuSans-65"/>
     <use x="147.802734375" xlink:href="#DejaVuSans-72"/>
     <use x="186.666015625" xlink:href="#DejaVuSans-63"/>
     <use x="241.646484375" xlink:href="#DejaVuSans-61"/>
     <use x="302.92578125" xlink:href="#DejaVuSans-74"/>
     <use x="342.134765625" xlink:href="#DejaVuSans-6f"/>
     <use x="403.31640625" xlink:href="#DejaVuSans-72"/>
     <use x="444.4296875" xlink:href="#DejaVuSans-20"/>
     <use x="476.216796875" xlink:href="#DejaVuSans-50"/>
     <use x="534.76953125" xlink:href="#DejaVuSans-72"/>
     <use x="573.6328125" xlink:href="#DejaVuSans-6f"/>
     <use x="634.814453125" xlink:href="#DejaVuSans-6a"/>
     <use x="662.59765625" xlink:href="#DejaVuSans-65"/>
     <use x="724.12109375" xlink:href="#DejaVuSans-63"/>
     <use x="779.1015625" xlink:href="#DejaVuSans-74"/>
     <use x="818.310546875" xlink:href="#DejaVuSans-69"/>
     <use x="846.09375" xlink:href="#DejaVuSans-6f"/>
     <use x="907.275390625" xlink:href="#DejaVuSans-6e"/>
    </g>
   </g>
  </g>
 </g>
 <defs>
  <clipPath id="p1605bd9422">
   <rect height="345.6" width="221.215111022" x="184.592444489" y="43.2"/>
  </clipPath>
 </defs>
</svg>
